<svg class="dn" height="0" version="1.1" width="0" xmlns="http://www.w3.org/2000/svg">
  <defs>
    <g id="hpa-search">
      <path
        d="M15.3089 16.0001L9.19433 9.88549C8.706 10.3012 8.14453 10.6229 7.50979 10.8507C6.87504 11.0786 6.2372 11.1925 5.59627 11.1925C4.03219 11.1925 2.70841 10.6511 1.62495 9.56834C0.541652 8.48551 0 7.16255 0 5.59945C0 4.03617 0.541408 2.71208 1.62422 1.62715C2.70704 0.542384 4.03 0 5.5931 0C7.15636 0 8.48044 0.541653 9.56538 1.62495C10.6501 2.70841 11.1925 4.03219 11.1925 5.59627C11.1925 6.2748 11.0724 6.93144 10.832 7.56618C10.5915 8.20093 10.2761 8.74365 9.88543 9.19429L16 15.3091L15.3089 16.0001ZM5.59627 10.216C6.89197 10.216 7.98585 9.76999 8.87793 8.87789C9.76993 7.98601 10.216 6.89213 10.216 5.59627C10.216 4.30041 9.76993 3.20653 8.87793 2.31463C7.98585 1.42257 6.89197 0.976537 5.59627 0.976537C4.30041 0.976537 3.20653 1.42257 2.31463 2.31463C1.42257 3.20653 0.976536 4.30041 0.976536 5.59627C0.976536 6.89213 1.42257 7.98601 2.31463 8.87789C3.20653 9.76999 4.30041 10.216 5.59627 10.216Z" />
    </g>
    <g id="logo-vz">
      <path
        d="M26.7249 8.81759C26.3306 8.8406 25.9401 8.90835 25.561 9.01954C25.1667 9.11165 24.7865 9.25656 24.4308 9.45037C24.0268 9.66991 23.6813 9.98328 23.4231 10.3642C23.1385 10.7861 22.887 11.2295 22.6707 11.6904C21.8489 13.4855 20.6089 16.2904 18.9508 20.105C17.2926 23.9197 15.5941 27.8847 13.8554 32.0001H12.3103C10.5368 27.6244 8.82152 23.4047 7.16448 19.341C5.50743 15.2773 4.38781 12.5341 3.8056 11.1114C3.66358 10.7703 3.4642 10.456 3.21612 10.1824C2.9279 9.88589 2.59806 9.63303 2.23701 9.43186C1.89118 9.23087 1.51602 9.08549 1.12522 9.00102C0.756093 8.90765 0.37963 8.84628 0 8.81759V7.61597H10.8525V8.82095C10.0692 8.85746 9.28894 8.94346 8.51642 9.07844C7.8816 9.20298 7.5625 9.41503 7.5625 9.74152C7.56513 9.89068 7.59178 10.0384 7.64144 10.1791C7.68678 10.3474 7.73213 10.4871 7.76572 10.588C8.22812 11.6954 8.96931 13.504 9.98929 16.0138C11.0093 18.5236 12.4648 22.0915 14.3558 26.7173C15.2918 24.6282 16.3706 22.1543 17.5921 19.2956C18.8063 16.4447 19.6343 14.4857 20.0542 13.4187C20.3495 12.7291 20.5866 12.0158 20.7629 11.2865C20.8211 10.9658 20.8542 10.6412 20.862 10.3154C20.8591 10.1851 20.824 10.0575 20.7598 9.94413C20.6956 9.83075 20.6043 9.73511 20.4942 9.66579C20.1837 9.46353 19.8438 9.3108 19.4865 9.21308C19.0785 9.10215 18.664 9.01672 18.2454 8.95727C17.8289 8.90342 17.4057 8.85798 16.9741 8.82095V7.61597H26.7333L26.7249 8.81759Z" />
      <path
        d="M61.1811 24.6001L60.6773 31.6937H38.9068V30.4854C39.2679 30.4618 39.7666 30.418 40.378 30.3389C40.7865 30.3099 41.1904 30.2349 41.5821 30.1151C41.9217 29.9886 42.2091 29.7515 42.3983 29.4419C42.5665 29.1244 42.6471 28.7677 42.6318 28.4086V11.1114C42.6412 10.7689 42.5729 10.4288 42.4319 10.1168C42.2471 9.78345 41.9436 9.53224 41.5821 9.4133C41.1487 9.23778 40.6985 9.10696 40.2386 9.02285C39.795 8.9289 39.3464 8.86035 38.895 8.81754V7.61255H59.1994V13.4153H57.8088C57.4731 12.4026 56.9302 11.4712 56.2151 10.6805C55.6553 9.87719 54.8171 9.31144 53.8638 9.09354C53.4876 9.04642 53.0359 9.01444 52.5035 8.98583C51.9711 8.95722 51.3598 8.95554 50.6897 8.95554H46.5734V18.5264H49.5326C50.2346 18.5585 50.937 18.4743 51.6117 18.2773C52.0602 18.1064 52.4579 17.8237 52.7672 17.4561C53.074 17.0627 53.3084 16.6176 53.4591 16.1417C53.6415 15.6394 53.7677 15.1185 53.8353 14.5883H55.2259V24.0229H53.8353C53.7803 23.4346 53.6458 22.8566 53.4356 22.3046C53.2913 21.8295 53.0638 21.3838 52.7638 20.9885C52.425 20.5759 51.9713 20.2736 51.4606 20.1201C50.8286 19.967 50.1792 19.898 49.5292 19.9148H46.5734V27.1329C46.5573 27.7083 46.6137 28.2833 46.7413 28.8445C46.83 29.2307 47.0594 29.5698 47.3846 29.7954C47.7841 30.0346 48.2338 30.1775 48.6979 30.2127C49.2555 30.2699 50.0414 30.3036 51.0625 30.3036H52.6782C53.3499 30.3036 53.9075 30.2784 54.3677 30.2329C54.8532 30.1811 55.335 30.099 55.8103 29.9872C56.2009 29.9172 56.5676 29.75 56.8768 29.5008C57.5867 28.7696 58.1879 27.9398 58.662 27.037C59.1274 26.2591 59.5268 25.4433 59.8561 24.5984L61.1811 24.6001ZM53.4289 3.27226C52.8892 3.52245 52.0495 3.89831 50.9097 4.39983C49.766 4.90471 48.4829 5.47691 47.047 6.12315L46.4642 5.46176C47.5895 4.47892 48.5014 3.66943 49.2135 3.02823C49.9256 2.38704 50.6158 1.73742 51.3077 1.06425C51.6271 0.74067 51.9907 0.464155 52.3876 0.242972C52.7129 0.0820441 53.0711 -0.000919331 53.4339 0.000628835C53.8682 -0.0105083 54.2934 0.126571 54.6397 0.389387C54.7954 0.497994 54.9225 0.642726 55.0102 0.811232C55.098 0.979738 55.1437 1.16701 55.1436 1.35708C55.154 1.57235 55.1166 1.78726 55.0341 1.98631C54.9516 2.18536 54.8261 2.36361 54.6666 2.50821C54.2955 2.82484 53.878 3.08252 53.4289 3.27226Z" />
      <path
        d="M96.2808 24.5361L95.7216 31.6953H75.2207V30.487C75.5146 30.4634 75.9429 30.4264 76.5088 30.3725C76.9084 30.3471 77.3033 30.2719 77.6844 30.1487C78.0163 30.0311 78.2982 29.8038 78.4839 29.5041C78.6681 29.1726 78.7559 28.796 78.7374 28.417V11.1803C78.7486 10.8289 78.6779 10.4797 78.5309 10.1604C78.347 9.82847 78.0483 9.5753 77.6912 9.44856C77.308 9.2796 76.9107 9.145 76.5038 9.04634C76.0863 8.93535 75.6606 8.85825 75.2308 8.81578V7.61584H86.2949V8.82083C85.8439 8.84788 85.3951 8.90409 84.9514 8.98912C84.4072 9.10132 84.0092 9.19388 83.7573 9.26681C83.5724 9.31424 83.3999 9.40103 83.2516 9.52126C83.1032 9.64149 82.9824 9.79234 82.8974 9.96354C82.7407 10.2917 82.662 10.6517 82.6673 11.0154V27.18C82.6536 27.7632 82.6952 28.3465 82.7916 28.9218C82.8475 29.3025 83.0471 29.647 83.3492 29.8845C83.7328 30.1172 84.1677 30.2518 84.6155 30.2766C85.397 30.3504 86.1818 30.383 86.9667 30.3742C87.4218 30.3742 87.8971 30.3641 88.3976 30.3389C88.8643 30.3183 89.3296 30.2728 89.7915 30.2026C90.1964 30.141 90.5957 30.047 90.9856 29.9215C91.2908 29.8451 91.5705 29.6896 91.7967 29.4705C92.46 28.741 93.0517 27.9491 93.5635 27.1059C94.1038 26.2948 94.5687 25.4357 94.9524 24.5395L96.2808 24.5361Z" />
      <path
        d="M131.498 24.6002L131.011 31.6938H109.217V30.4854C109.59 30.4618 110.083 30.4181 110.695 30.339C111.102 30.3093 111.505 30.2343 111.896 30.1152C112.238 29.9891 112.529 29.7522 112.722 29.442C112.888 29.1238 112.967 28.7673 112.95 28.4087V11.1114C112.96 10.7687 112.89 10.4283 112.747 10.1168C112.563 9.78185 112.259 9.53011 111.896 9.41335C111.462 9.2383 111.012 9.10749 110.552 9.0229C110.109 8.92821 109.66 8.85966 109.208 8.81759V7.61597H129.513V13.4187H128.122C127.789 12.4046 127.245 11.4727 126.527 10.684C125.97 9.88335 125.136 9.31797 124.187 9.09695C123.804 9.04983 123.348 9.01785 122.819 8.98924C122.29 8.96063 121.688 8.95895 121.01 8.95895H116.889V18.5298H119.844C120.546 18.5641 121.249 18.4799 121.924 18.2807C122.374 18.1108 122.773 17.828 123.082 17.4595C123.39 17.066 123.626 16.621 123.779 16.1451C123.957 15.6421 124.081 15.1213 124.147 14.5917H125.546V24.0263H124.147C124.093 23.4389 123.962 22.8611 123.757 22.308C123.613 21.8328 123.386 21.3871 123.086 20.992C122.75 20.5755 122.295 20.2724 121.782 20.1236C121.149 19.9696 120.499 19.9006 119.848 19.9182H116.892V27.138C116.878 27.7133 116.934 28.2881 117.06 28.8496C117.152 29.2357 117.383 29.5743 117.708 29.8004C118.11 30.0378 118.56 30.1805 119.025 30.2178C119.572 30.275 120.368 30.3087 121.391 30.3087H122.998C123.662 30.3087 124.228 30.2835 124.678 30.238C125.166 30.1852 125.652 30.1032 126.131 29.9923C126.519 29.9222 126.884 29.7556 127.192 29.5076C127.898 28.7746 128.498 27.9451 128.972 27.0438C129.438 26.2658 129.837 25.4501 130.166 24.6052L131.498 24.6002Z" />
      <path
        d="M166.184 24.1759L165.309 31.6953H144.232V31.1012L160.744 8.9622H154.698C153.989 8.9622 153.397 8.97398 152.931 8.99249C152.494 9.01436 152.058 9.0627 151.626 9.13722C150.539 9.45105 149.577 10.0985 148.876 10.9885C147.91 11.9894 147.133 13.1571 146.581 14.4351H145.288L146.068 7.61584H165.73V8.20992L149.211 30.3523H155.447C156.566 30.3494 157.683 30.2819 158.794 30.1504C159.614 30.1391 160.413 29.8971 161.102 29.452C161.959 28.6967 162.712 27.8309 163.342 26.8771C163.939 26.0313 164.453 25.1295 164.876 24.1844L166.184 24.1759Z" />
    </g>
    <g id="logo-flyup">
      <path d="M9.82692 7.03079V13.4498H26.0123L26.0316 19.4806H9.82692V30.3373H1.57678V1H28.1648V7.03079H9.82692Z" />
      <path d="M30.3624 30.3373V1.02008L38.6126 1V24.3066H55.1193V30.3373H30.3624Z" />
      <path
        d="M69.3832 20.083V30.3373H61.1331V20.083L47.5114 1H56.8859L65.271 13.7979L73.6175 1H82.9856L69.3832 20.083Z" />
      <path
        d="M130.778 1V17.6801C130.778 19.6212 130.469 21.4083 129.852 23.0415C129.236 24.6747 128.272 26.0803 126.961 27.2584C125.65 28.4364 123.986 29.3534 121.956 30.0094C119.925 30.672 117.503 31 114.689 31C111.707 31 109.195 30.6653 107.145 29.9893C105.102 29.3199 103.444 28.3896 102.185 27.2115C100.926 26.0268 100.013 24.6278 99.4541 23.0013C98.8951 21.3815 98.6124 19.6078 98.6124 17.7001V1H106.863V17.6934C106.863 18.7644 107.01 19.7483 107.299 20.6452C107.595 21.5355 108.058 22.2985 108.694 22.9344C109.33 23.5703 110.146 24.0589 111.135 24.407C112.125 24.755 113.32 24.9291 114.714 24.9291C116.109 24.9291 117.342 24.7483 118.332 24.3869C119.321 24.0254 120.137 23.5234 120.767 22.8809C121.397 22.2383 121.853 21.4752 122.129 20.585C122.412 19.6948 122.553 18.7242 122.553 17.6734V1H130.765H130.778Z" />
      <path
        d="M165.423 11.7831C165.423 13.3829 165.153 14.8019 164.607 16.0335C164.067 17.2584 163.283 18.2892 162.255 19.1258C161.234 19.9625 159.987 20.5917 158.522 21.0201C157.057 21.4485 155.4 21.6627 153.556 21.6627H143.172V30.3507H134.961V1H153.35C155.213 1 156.884 1.2075 158.375 1.62249C159.865 2.03748 161.131 2.6332 162.172 3.41633C163.213 4.19946 164.016 5.15663 164.575 6.29451C165.134 7.4324 165.417 8.71754 165.417 10.1499V11.7831H165.423ZM157.077 10.7323C157.077 9.44043 156.704 8.50335 155.946 7.90763C155.188 7.31861 154.005 7.0241 152.399 7.0241H143.191V15.6319H152.116C153.723 15.6319 154.956 15.3039 155.804 14.6412C156.653 13.9786 157.077 12.9746 157.077 11.6158V10.7256V10.7323Z" />
    </g>
    <g id="flyup">
      <path fill-rule="evenodd" clip-rule="evenodd"
        d="M0.805779 7.1564V7.78334H2.38659L2.38847 8.37236H0.805779V9.43272H0V6.56738H2.59682V7.1564H0.805779ZM2.81143 9.43272V6.56934L3.61721 6.56738V8.8437H5.22939V9.43272H2.81143ZM6.62258 9.43272V8.43119L7.95111 6.56738H7.03614L6.22094 7.81733L5.40198 6.56738H4.48638L5.8168 8.43119V9.43272H6.62258ZM12.5482 6.56738V8.15985C12.5482 8.34516 12.5187 8.51578 12.4598 8.67171C12.401 8.82763 12.3089 8.96183 12.1838 9.0743C12.0587 9.18677 11.8998 9.27431 11.7059 9.33694C11.5121 9.4002 11.2808 9.43151 11.0121 9.43151C10.7275 9.43151 10.4876 9.39956 10.292 9.33502C10.0969 9.27112 9.93863 9.18229 9.81839 9.06982C9.69816 8.95672 9.61105 8.82316 9.55768 8.66787C9.50432 8.51323 9.47732 8.34389 9.47732 8.16176V6.56738H10.265V8.16112C10.265 8.26337 10.2791 8.35731 10.3067 8.44294C10.3349 8.52793 10.3791 8.60078 10.4398 8.66148C10.5005 8.72219 10.5784 8.76884 10.6729 8.80207C10.7674 8.8353 10.8815 8.85191 11.0146 8.85191C11.1477 8.85191 11.2655 8.83466 11.36 8.80015C11.4544 8.76565 11.5323 8.71772 11.5924 8.65637C11.6526 8.59502 11.6961 8.52218 11.7225 8.43718C11.7495 8.35219 11.763 8.25953 11.763 8.15921V6.56738H12.5469H12.5482ZM15.9204 8.03439C15.9737 7.91421 16 7.77574 16 7.61963H15.9994V7.46026C15.9994 7.32048 15.9718 7.19508 15.9172 7.08404C15.8627 6.973 15.7843 6.8796 15.6827 6.80318C15.5812 6.72676 15.4576 6.66862 15.3122 6.62813C15.1667 6.58763 15.0037 6.56738 14.8219 6.56738H13.0274V9.43151H13.8287V8.58371H14.8419C15.0219 8.58371 15.1836 8.5628 15.3266 8.521C15.4696 8.4792 15.5912 8.4178 15.6909 8.33616C15.7912 8.25451 15.8677 8.15392 15.9204 8.03439ZM15.0752 7.24145C15.1492 7.29958 15.1855 7.39102 15.1855 7.51709V7.6033C15.1855 7.7359 15.1441 7.83387 15.0614 7.89853C14.9786 7.9632 14.8582 7.9952 14.7015 7.9952H13.8306V7.15523H14.7291C14.8858 7.15523 15.0012 7.18397 15.0752 7.24145Z" />
    </g>
    <g id="velez">
      <path
        d="M2.57304 7.30832C2.53508 7.31053 2.49749 7.31706 2.46099 7.32776C2.42302 7.33663 2.38642 7.35058 2.35217 7.36924C2.31328 7.39038 2.28001 7.42055 2.25515 7.45722C2.22775 7.49785 2.20353 7.54054 2.18271 7.58491C2.10359 7.75774 1.98421 8.02779 1.82456 8.39506C1.66491 8.76233 1.50139 9.14408 1.33398 9.5403H1.18522C1.01447 9.11902 0.849326 8.71275 0.689788 8.3215C0.530249 7.93025 0.422453 7.66614 0.366399 7.52917C0.352726 7.49632 0.333529 7.46607 0.309645 7.43973C0.281895 7.41117 0.250138 7.38683 0.215377 7.36746C0.18208 7.34811 0.145961 7.33411 0.108335 7.32598C0.0727958 7.31699 0.0365504 7.31108 0 7.30832V7.19263H1.04487V7.30864C0.969451 7.31216 0.894329 7.32044 0.819952 7.33343C0.758831 7.34542 0.72811 7.36584 0.72811 7.39727C0.728362 7.41163 0.730928 7.42586 0.735709 7.4394C0.740075 7.4556 0.744441 7.46905 0.747675 7.47877C0.792195 7.58539 0.863556 7.75952 0.961758 8.00116C1.05996 8.24281 1.2001 8.58631 1.38216 9.03168C1.47228 8.83055 1.57614 8.59236 1.69375 8.31712C1.81065 8.04264 1.89037 7.85404 1.93079 7.75131C1.95923 7.68491 1.98206 7.61624 1.99903 7.54602C2.00463 7.51515 2.00782 7.48389 2.00857 7.45253C2.00829 7.43998 2.00491 7.4277 1.99873 7.41678C1.99255 7.40586 1.98376 7.39666 1.97316 7.38998C1.94326 7.37051 1.91053 7.3558 1.87614 7.34639C1.83686 7.33572 1.79695 7.32749 1.75665 7.32177C1.71655 7.31658 1.6758 7.31221 1.63424 7.30864V7.19263H2.57385L2.57304 7.30832Z" />
      <path
        d="M5.89056 8.82795L5.84205 9.51091H3.746V9.39457C3.78077 9.3923 3.82879 9.38809 3.88765 9.38047C3.92698 9.37768 3.96587 9.37045 4.00358 9.35892C4.03628 9.34674 4.06395 9.32392 4.08217 9.29411C4.09836 9.26354 4.10612 9.2292 4.10464 9.19462V7.52926C4.10555 7.4963 4.09897 7.46355 4.0854 7.4335C4.06761 7.40141 4.03839 7.37723 4.00358 7.36577C3.96185 7.34888 3.91851 7.33628 3.87423 7.32818C3.83152 7.31914 3.78833 7.31254 3.74487 7.30842V7.1924H5.69976V7.75109H5.56587C5.53355 7.65358 5.48128 7.56391 5.41243 7.48778C5.35853 7.41044 5.27784 7.35597 5.18605 7.33499C5.14983 7.33045 5.10634 7.32737 5.05508 7.32462C5.00383 7.32186 4.94497 7.3217 4.88045 7.3217H4.48414V8.24317H4.76904C4.83663 8.24627 4.90427 8.23816 4.96922 8.21919C5.0124 8.20273 5.05069 8.17552 5.08047 8.14012C5.11001 8.10225 5.13257 8.0594 5.14709 8.01358C5.16465 7.96522 5.17679 7.91506 5.18331 7.86402H5.31719V8.77237H5.18331C5.17801 8.71573 5.16506 8.66008 5.14482 8.60693C5.13093 8.56119 5.10903 8.51828 5.08014 8.48023C5.04753 8.4405 5.00385 8.41139 4.95467 8.39662C4.89382 8.38188 4.8313 8.37523 4.76872 8.37685H4.48414V9.0718C4.48259 9.12719 4.48802 9.18256 4.50031 9.23659C4.50885 9.27377 4.53093 9.30642 4.56224 9.32814C4.60071 9.35117 4.644 9.36493 4.68868 9.36832C4.74237 9.37383 4.81804 9.37707 4.91635 9.37707H5.0719C5.13658 9.37707 5.19026 9.37464 5.23456 9.37026C5.28131 9.36528 5.32769 9.35738 5.37346 9.34661C5.41106 9.33987 5.44637 9.32377 5.47613 9.29978C5.54448 9.22938 5.60237 9.14949 5.64802 9.06257C5.69282 8.98767 5.73128 8.90913 5.76298 8.82778L5.89056 8.82795ZM5.14418 6.77452C5.09222 6.79861 5.01137 6.8348 4.90163 6.88308C4.79152 6.93169 4.66799 6.98678 4.52974 7.049L4.47363 6.98532C4.58196 6.8907 4.66976 6.81276 4.73832 6.75103C4.80688 6.68929 4.87334 6.62675 4.93996 6.56194C4.9707 6.53078 5.00571 6.50416 5.04393 6.48287C5.07525 6.46737 5.10973 6.45938 5.14466 6.45953C5.18648 6.45846 5.22741 6.47166 5.26076 6.49696C5.27574 6.50742 5.28798 6.52135 5.29643 6.53758C5.30488 6.5538 5.30928 6.57183 5.30927 6.59013C5.31027 6.61086 5.30667 6.63155 5.29872 6.65071C5.29078 6.66988 5.2787 6.68704 5.26334 6.70096C5.22761 6.73144 5.18742 6.75625 5.14418 6.77452V6.77452Z" />
      <path
        d="M9.26983 8.82169L9.21599 9.51097H7.24219V9.39463C7.27048 9.39236 7.31172 9.3888 7.36621 9.38361C7.40468 9.38117 7.4427 9.37393 7.47939 9.36206C7.51134 9.35075 7.53849 9.32886 7.55636 9.30001C7.5741 9.26809 7.58255 9.23183 7.58078 9.19533V7.53581C7.58185 7.50197 7.57504 7.46835 7.56089 7.43762C7.54318 7.40566 7.51443 7.38128 7.48004 7.36908C7.44315 7.35281 7.40489 7.33985 7.36572 7.33035C7.32553 7.31967 7.28454 7.31224 7.24316 7.30816V7.19263H8.3084V7.30864C8.26498 7.31125 8.22177 7.31666 8.17904 7.32484C8.12666 7.33565 8.08833 7.34456 8.06408 7.35158C8.04628 7.35615 8.02968 7.3645 8.01539 7.37608C8.0011 7.38765 7.98947 7.40218 7.98129 7.41866C7.96621 7.45025 7.95862 7.48491 7.95914 7.51993V9.07624C7.95782 9.1324 7.96182 9.18855 7.9711 9.24394C7.97649 9.28059 7.9957 9.31377 8.02479 9.33663C8.06173 9.35903 8.10359 9.37199 8.14671 9.37438C8.22195 9.38148 8.29751 9.38462 8.37308 9.38378C8.4169 9.38378 8.46266 9.3828 8.51084 9.38037C8.55578 9.37839 8.60058 9.37401 8.64505 9.36725C8.68403 9.36132 8.72247 9.35227 8.76001 9.34019C8.7894 9.33284 8.81633 9.31786 8.83811 9.29677C8.90197 9.22653 8.95894 9.15029 9.00821 9.06911C9.06023 8.99102 9.10499 8.9083 9.14193 8.82201L9.26983 8.82169Z" />
      <path
        d="M12.6604 8.82785L12.6135 9.51081H10.5152V9.39447C10.5511 9.3922 10.5986 9.38799 10.6575 9.38037C10.6967 9.37752 10.7355 9.37029 10.7731 9.35882C10.8061 9.34668 10.8341 9.32388 10.8527 9.29401C10.8687 9.26338 10.8762 9.22905 10.8747 9.19452V7.52917C10.8756 7.49616 10.8689 7.4634 10.8551 7.43341C10.8374 7.40116 10.8081 7.37692 10.7731 7.36568C10.7314 7.34882 10.688 7.33623 10.6438 7.32809C10.6011 7.31897 10.5579 7.31237 10.5144 7.30832V7.19263H12.4693V7.75131H12.3354C12.3033 7.65367 12.251 7.56394 12.1818 7.48801C12.1281 7.41093 12.0479 7.35649 11.9566 7.33521C11.9197 7.33068 11.8757 7.3276 11.8248 7.32484C11.7738 7.32209 11.716 7.32193 11.6506 7.32193H11.2538V8.2434H11.5384C11.606 8.2467 11.6737 8.2386 11.7386 8.21942C11.7819 8.20306 11.8203 8.17583 11.8502 8.14035C11.8798 8.10247 11.9025 8.05963 11.9173 8.0138C11.9344 7.96538 11.9463 7.91523 11.9527 7.86425H12.0874V8.7726H11.9527C11.9475 8.71604 11.9349 8.66041 11.9152 8.60716C11.9013 8.56141 11.8794 8.5185 11.8505 8.48045C11.8182 8.44036 11.7744 8.41118 11.725 8.39684C11.6641 8.38203 11.6014 8.37538 11.5387 8.37708H11.2542V9.07219C11.2528 9.12758 11.2582 9.18292 11.2703 9.23698C11.2792 9.27415 11.3014 9.30675 11.3327 9.32852C11.3714 9.35137 11.4148 9.36511 11.4595 9.36871C11.5122 9.37422 11.5889 9.37746 11.6873 9.37746H11.8421C11.9059 9.37746 11.9604 9.37503 12.0038 9.37065C12.0508 9.36557 12.0975 9.35767 12.1436 9.347C12.1811 9.34025 12.2162 9.3242 12.2458 9.30033C12.3138 9.22976 12.3715 9.1499 12.4172 9.06312C12.462 8.98822 12.5005 8.90968 12.5322 8.82833L12.6604 8.82785Z" />
      <path
        d="M16 8.78702L15.9157 9.51097H13.8865V9.45377L15.4763 7.32225H14.8942C14.8259 7.32225 14.7688 7.32339 14.7241 7.32517C14.6819 7.32727 14.64 7.33193 14.5984 7.3391C14.4937 7.36932 14.4011 7.43165 14.3336 7.51734C14.2406 7.61371 14.1658 7.72613 14.1127 7.84918H13.9882L14.0632 7.19263H15.9563V7.24982L14.3659 9.38167H14.9663C15.074 9.38138 15.1816 9.37489 15.2885 9.36223C15.3674 9.36115 15.4444 9.33784 15.5107 9.29498C15.5932 9.22227 15.6658 9.13891 15.7264 9.04708C15.7838 8.96564 15.8333 8.87882 15.874 8.78783L16 8.78702Z" />

    </g>
    <g id="icon-search">
      <path
        d="M15.3089 16.0001L9.19433 9.88549C8.706 10.3012 8.14453 10.6229 7.50979 10.8507C6.87504 11.0786 6.2372 11.1925 5.59627 11.1925C4.03219 11.1925 2.70841 10.6511 1.62495 9.56834C0.541652 8.48551 0 7.16255 0 5.59945C0 4.03617 0.541408 2.71208 1.62422 1.62715C2.70704 0.542384 4.03 0 5.5931 0C7.15636 0 8.48044 0.541653 9.56538 1.62495C10.6501 2.70841 11.1925 4.03219 11.1925 5.59627C11.1925 6.2748 11.0724 6.93144 10.832 7.56618C10.5915 8.20093 10.2761 8.74365 9.88543 9.19429L16 15.3091L15.3089 16.0001ZM5.59627 10.216C6.89197 10.216 7.98585 9.76999 8.87793 8.87789C9.76993 7.98601 10.216 6.89213 10.216 5.59627C10.216 4.30041 9.76993 3.20653 8.87793 2.31463C7.98585 1.42257 6.89197 0.976537 5.59627 0.976537C4.30041 0.976537 3.20653 1.42257 2.31463 2.31463C1.42257 3.20653 0.976536 4.30041 0.976536 5.59627C0.976536 6.89213 1.42257 7.98601 2.31463 8.87789C3.20653 9.76999 4.30041 10.216 5.59627 10.216Z" />
    </g>
    <g id="icon-cart">
      <path
        d="M3.27648 15.8949C2.87268 15.8949 2.53555 15.7597 2.26508 15.4892C1.99461 15.2187 1.85938 14.8816 1.85938 14.4778V5.03135C1.85938 4.62755 1.99461 4.29041 2.26508 4.01994C2.53555 3.74948 2.87268 3.61424 3.27648 3.61424H4.92955V3.17564C4.92955 2.32316 5.22816 1.59838 5.82538 1.0013C6.42246 0.404079 7.14724 0.105469 7.99972 0.105469C8.85221 0.105469 9.577 0.404079 10.1741 1.0013C10.7713 1.59838 11.0699 2.32316 11.0699 3.17564V3.61424H12.723C13.1267 3.61424 13.4639 3.74948 13.7344 4.01994C14.0048 4.29041 14.1401 4.62755 14.1401 5.03135V14.4778C14.1401 14.8816 14.0048 15.2187 13.7344 15.4892C13.4639 15.7597 13.1267 15.8949 12.723 15.8949H3.27648ZM3.27648 15.0177H12.723C12.858 15.0177 12.9818 14.9616 13.0942 14.8491C13.2067 14.7367 13.2629 14.6129 13.2629 14.4778V5.03135C13.2629 4.89626 13.2067 4.7725 13.0942 4.66007C12.9818 4.54765 12.858 4.49143 12.723 4.49143H11.0699V6.68442C11.0699 6.80927 11.0281 6.91359 10.9443 6.99735C10.8605 7.08112 10.7561 7.12301 10.6313 7.12301C10.5065 7.12301 10.4021 7.08112 10.3183 6.99735C10.2346 6.91359 10.1927 6.80927 10.1927 6.68442V4.49143H5.80675V6.68442C5.80675 6.80927 5.76486 6.91359 5.68109 6.99735C5.59732 7.08112 5.493 7.12301 5.36814 7.12301C5.24329 7.12301 5.13898 7.08112 5.05521 6.99735C4.97144 6.91359 4.92955 6.80927 4.92955 6.68442V4.49143H3.27648C3.14139 4.49143 3.01764 4.54765 2.90521 4.66007C2.79278 4.7725 2.73657 4.89626 2.73657 5.03135V14.4778C2.73657 14.6129 2.79278 14.7367 2.90521 14.8491C3.01764 14.9616 3.14139 15.0177 3.27648 15.0177ZM5.80675 3.61424H10.1927V3.17564C10.1927 2.55824 9.98159 2.03836 9.55938 1.616C9.137 1.19377 8.61712 0.982665 7.99972 0.982665C7.38233 0.982665 6.86244 1.19377 6.44008 1.616C6.01785 2.03836 5.80675 2.55824 5.80675 3.17564V3.61424Z" />
    </g>
    <g id="icon-login">
      <path
        d="M8.00001 7.29661C7.05716 7.29661 6.25001 6.9609 5.57858 6.28947C4.90715 5.61804 4.57144 4.81089 4.57144 3.86803C4.57144 2.92517 4.90715 2.11802 5.57858 1.4466C6.25001 0.775167 7.05716 0.439453 8.00001 0.439453C8.94288 0.439453 9.75001 0.775167 10.4214 1.4466C11.0929 2.11802 11.4286 2.92517 11.4286 3.86803C11.4286 4.81089 11.0929 5.61804 10.4214 6.28947C9.75001 6.9609 8.94288 7.29661 8.00001 7.29661ZM0 15.5607V13.6792C0 13.2074 0.137334 12.766 0.412001 12.3549C0.686859 11.944 1.05648 11.625 1.52086 11.3978C2.59934 10.8807 3.67848 10.4927 4.7583 10.234C5.83811 9.97557 6.91868 9.84632 8.00001 9.84632C9.08135 9.84632 10.1619 9.97557 11.2418 10.234C12.3216 10.4927 13.4006 10.8807 14.4791 11.3978C14.9436 11.625 15.3132 11.944 15.588 12.3549C15.8627 12.766 16 13.2074 16 13.6792V15.5607H0ZM1.14286 14.4178H14.8572V13.6792C14.8572 13.4257 14.7755 13.1875 14.612 12.9649C14.4487 12.7422 14.2228 12.5539 13.9341 12.4C12.9935 11.9445 12.0236 11.5953 11.0246 11.3529C10.0255 11.1104 9.01735 10.9892 8.00001 10.9892C6.98269 10.9892 5.97449 11.1104 4.97544 11.3529C3.97639 11.5953 3.00658 11.9445 2.06601 12.4C1.77724 12.5539 1.55125 12.7422 1.388 12.9649C1.22457 13.1875 1.14286 13.4257 1.14286 13.6792V14.4178ZM8.00001 6.15375C8.62859 6.15375 9.16668 5.92994 9.61431 5.48232C10.0619 5.03469 10.2857 4.4966 10.2857 3.86803C10.2857 3.23946 10.0619 2.70136 9.61431 2.25374C9.16668 1.80613 8.62859 1.58231 8.00001 1.58231C7.37145 1.58231 6.83334 1.80613 6.38573 2.25374C5.9381 2.70136 5.7143 3.23946 5.7143 3.86803C5.7143 4.4966 5.9381 5.03469 6.38573 5.48232C6.83334 5.92994 7.37145 6.15375 8.00001 6.15375Z" />
    </g>
    <g id="icon-close">
      <path
        d="M1.78538 15L1 14.2146L7.21459 8.00003L1 1.78538L1.78538 1L8.00003 7.21459L14.2146 1L15 1.78538L8.78538 8.00003L15 14.2146L14.2146 15L8.00003 8.78538L1.78538 15Z" />
    </g>
    <g id="icon-whatsapp">
      <path
        d="M4.46864 12.8979L5.03534 13.2283C5.98212 13.7804 7.05807 14.0752 8.18089 14.0752C11.6358 14.0752 14.4365 11.2744 14.4365 7.81954C14.4365 4.36467 11.6358 1.56391 8.18089 1.56391C4.72599 1.56391 1.92524 4.36467 1.92524 7.81954C1.92524 8.94265 2.22022 10.019 2.77263 10.966L3.10291 11.5321L2.59191 13.4101L4.46864 12.8979ZM0.364597 15.6391L1.42177 11.7539C0.747585 10.5983 0.361328 9.25406 0.361328 7.81954C0.361328 3.50093 3.86226 0 8.18089 0C12.4995 0 16.0004 3.50093 16.0004 7.81954C16.0004 12.1381 12.4995 15.6391 8.18089 15.6391C6.74687 15.6391 5.403 15.2531 4.24755 14.5793L0.364597 15.6391ZM5.35908 4.15088C5.46376 4.14352 5.56881 4.14239 5.67361 4.1475C5.71597 4.15029 5.75812 4.15518 5.8003 4.16005C5.92485 4.17443 6.06178 4.25027 6.10784 4.35465C6.3411 4.88358 6.56742 5.41554 6.78683 5.9504C6.83521 6.06846 6.80607 6.22147 6.71395 6.36956C6.66717 6.44552 6.59374 6.552 6.50868 6.66093C6.42022 6.77406 6.2299 6.98215 6.2299 6.98215C6.2299 6.98215 6.15281 7.07457 6.18186 7.1896C6.19319 7.23309 6.22932 7.29642 6.26203 7.34968C6.28018 7.37916 6.29702 7.40552 6.30793 7.42371C6.50805 7.75785 6.77706 8.09659 7.10561 8.41507C7.19976 8.50636 7.29113 8.59945 7.38932 8.68594C7.7555 9.00884 8.16978 9.27267 8.61723 9.46808L8.62123 9.46985C8.68729 9.49832 8.72123 9.5139 8.81795 9.55495C8.86675 9.57558 8.91664 9.59343 8.96784 9.60695C8.98637 9.61179 9.0054 9.61453 9.02447 9.61587C9.15091 9.62345 9.22401 9.54236 9.25521 9.50505C9.82098 8.81966 9.87273 8.77495 9.87664 8.77524V8.77651C9.951 8.69815 10.0679 8.67095 10.1722 8.67735C10.2198 8.68025 10.2672 8.68939 10.3105 8.70918C10.7264 8.89886 11.4063 9.19478 11.4063 9.19478L11.861 9.39916C11.9372 9.43592 12.0067 9.52248 12.01 9.60661C12.0121 9.65895 12.0177 9.74341 11.999 9.89789C11.9745 10.1002 11.913 10.3438 11.8518 10.4714C11.8089 10.5609 11.7532 10.6404 11.6884 10.7076C11.6006 10.7988 11.5354 10.8541 11.4298 10.9328C11.3656 10.9807 11.3323 11.0032 11.3323 11.0032C11.2236 11.0717 11.1624 11.1059 11.033 11.1748C10.8317 11.2821 10.6093 11.3437 10.3816 11.3554C10.2363 11.3628 10.0915 11.3733 9.94645 11.3655C9.94005 11.3651 9.50216 11.2979 9.50216 11.2979C8.39028 11.0054 7.36203 10.4576 6.49917 9.69781C6.32275 9.54253 6.15917 9.37448 5.99214 9.20821C5.29694 8.51613 4.77066 7.76981 4.4515 7.06387C4.29412 6.71575 4.19448 6.34291 4.19291 5.95924C4.19002 5.48467 4.3454 5.02265 4.63449 4.64627C4.69146 4.57208 4.74557 4.49512 4.83887 4.40699C4.93774 4.31364 5.0006 4.26358 5.06839 4.22888C5.1587 4.18269 5.2579 4.15798 5.35908 4.15088Z" />
    </g>
    <g id="icon-burger">
      <path
        d="M0.5 12.9399V12.0024H15.5V12.9399H0.5ZM0.5 8.46877V7.53127H15.5V8.46877H0.5ZM0.5 3.99756V3.06006H15.5V3.99756H0.5Z" />
    </g>
    <g id="payment-general">
      <path fill-rule="evenodd" clip-rule="evenodd"
        d="M4.93375 2.81849H7.27589L8.00138 0.589802L8.72527 2.81849H11.0681L9.17487 4.19761L9.89908 6.42727L8.00138 5.04944L6.10273 6.42727L6.82628 4.19761L4.93375 2.81849ZM7.20627 3.03314H5.5416L6.88784 4.01422L7.20627 3.03314ZM8.79746 3.0325H10.4634L9.11686 4.01261L8.79746 3.0325Z"
        fill="#155196" />
      <path fill-rule="evenodd" clip-rule="evenodd"
        d="M1.42059 9.82359L2.14544 7.59554L0.25 6.21643L2.59375 6.21804L3.31957 3.99064L4.04474 6.2174L6.38881 6.21869L4.48983 7.59619L5.21371 9.82875L3.31796 8.4506L1.42059 9.82359ZM2.3285 7.72865L1.81282 9.31178L3.16132 8.33554L2.3285 7.72865ZM2.81968 6.21546L3.33472 4.63169L3.85072 6.21546H2.81968Z"
        fill="#155196" />
      <path fill-rule="evenodd" clip-rule="evenodd"
        d="M14.5797 9.82297L13.8549 7.59525L15.75 6.21581L13.4056 6.21774L12.6814 3.99002L11.9553 6.21678L9.61119 6.21839L11.5095 7.59525L10.7863 9.82813L12.6824 8.44998L14.5797 9.82297ZM13.6718 7.72803L14.1875 9.31116L12.838 8.33492L13.6718 7.72803ZM13.1806 6.21452L12.6653 4.63107L12.1493 6.21452H13.1806Z"
        fill="#155196" />
      <path fill-rule="evenodd" clip-rule="evenodd"
        d="M8.96284 15.3977L10.8612 14.0266L12.7544 15.4077L12.0356 13.1774L13.9343 11.8054L11.5921 11.7957L10.8737 9.56475L10.1431 11.7938L7.8319 11.795L9.68866 13.1713L8.96284 15.3977ZM10.6784 13.8919L9.32897 14.8682L9.84594 13.2844L10.6784 13.8919ZM11.9696 12.9621L13.319 11.9865L11.6537 11.9797L11.9696 12.9621Z"
        fill="#155196" />
      <path fill-rule="evenodd" clip-rule="evenodd"
        d="M7.03783 15.4002L5.13917 14.0292L3.24534 15.4102L3.96536 13.1792L2.06606 11.8079L4.40755 11.7982L5.1266 9.56725L5.85918 11.7963H8.17618L6.31169 13.1738L7.03783 15.4002ZM5.32159 13.8951L6.67137 14.87L6.15409 13.2869L5.32159 13.8951ZM4.03111 12.964L2.68068 11.9884L4.34664 11.9822L4.03111 12.964Z"
        fill="#155196" />

    </g>
    <g id="payment-banistmo">
      <path
        d="M11.9337 0.0041459C8.83425 0.386699 5.84023 0.951145 2.83899 1.82163C2.44778 1.94434 2.20814 2.38175 2.30631 2.77008C2.52573 3.63479 2.63689 4.06787 2.8592 4.93547C2.95304 5.30215 3.3226 5.48981 3.69649 5.36566C6.76269 4.42155 9.83611 3.77626 13.0091 3.30565C13.3729 3.25657 13.5707 2.88123 13.4379 2.50446C13.1564 1.70903 13.0149 1.31349 12.7276 0.522397C12.6035 0.187483 12.2729 -0.0333876 11.9337 0.0041459ZM14.5264 4.8171C9.67442 5.4364 4.94809 6.63603 0.467164 8.61953C0.140911 8.774 -0.0554181 9.18542 0.0138745 9.54776C0.189993 10.4746 0.278053 10.9394 0.457059 11.8676C0.533569 12.2646 0.904574 12.4479 1.2698 12.2689C5.82146 10.1829 10.6301 8.85628 15.5629 8.06519C15.8761 8.01322 16.0364 7.65376 15.9165 7.2842C15.6682 6.51621 15.5426 6.13221 15.2857 5.36855C15.1688 5.01343 14.8468 4.77523 14.5264 4.8171ZM14.4686 9.98806C11.4385 10.6463 8.47624 11.4389 5.54285 12.4465C5.1704 12.5836 4.96108 12.9749 5.05924 13.3372C5.29311 14.1976 5.40859 14.6292 5.64534 15.4925C5.7565 15.8981 6.21268 16.106 6.63132 15.9458C9.56327 14.8948 12.5255 13.9782 15.5513 13.2419C15.8415 13.1712 15.9844 12.8305 15.8776 12.4797C15.6394 11.7045 15.5195 11.3176 15.2741 10.5467C15.1543 10.1671 14.8021 9.91877 14.4686 9.98806Z"
        fill="#2C2A29" />
    </g>

    <g id="payment-visa">
      <path
        d="M15.3484 13.6667H0.651619C0.478848 13.6665 0.313199 13.6034 0.191031 13.491C0.0688638 13.3787 0.000159899 13.2265 0 13.0676V3.59904C0.000159899 3.44021 0.0688638 3.28793 0.191031 3.17562C0.313199 3.06331 0.478848 3.00015 0.651619 3H15.3484C15.5212 3.00015 15.6868 3.06331 15.809 3.17562C15.9311 3.28793 15.9998 3.44021 16 3.59904V13.071C15.9998 13.1494 15.9829 13.2271 15.95 13.2995C15.9172 13.3719 15.8691 13.4377 15.8086 13.493C15.748 13.5484 15.6762 13.5922 15.5973 13.622C15.5183 13.6518 15.4337 13.667 15.3484 13.6667Z"
        fill="#322857" />
      <path d="M6.84545 10.4518H5.7577L6.43889 6.27277H7.52664L6.84545 10.4518Z" fill="white" />
      <path
        d="M4.84197 6.272L3.80384 9.14505L3.68147 8.52477L3.31776 6.64699C3.29585 6.53078 3.23046 6.42729 3.13491 6.35762C3.03935 6.28795 2.92083 6.25733 2.80348 6.272H1.08642L1.06668 6.34136C1.46821 6.44166 1.85186 6.60333 2.20406 6.82067L3.14972 10.4505H4.28371L6.01769 6.272H4.84197Z"
        fill="white" />
      <path
        d="M13.4012 10.451H14.3999L13.5298 6.27201H12.654C12.5482 6.26393 12.4425 6.28966 12.3522 6.3455C12.2619 6.40134 12.1917 6.4844 12.1516 6.58272L10.5281 10.451H11.6621L11.8877 9.83076H13.2698L13.4012 10.451ZM12.204 8.97308L12.7758 7.40939L13.0995 8.97308H12.204Z"
        fill="white" />
      <path
        d="M10.6141 7.27765L10.7703 6.38162C10.4558 6.26962 10.1256 6.20833 9.79192 6.20005C9.25283 6.20005 7.97053 6.43463 7.97053 7.58216C7.97053 8.66315 9.47501 8.67668 9.47501 9.24171C9.47501 9.80673 8.12617 9.70805 7.67956 9.35054L7.51772 10.286C7.90719 10.448 8.32586 10.5278 8.74758 10.5206C9.49136 10.5206 10.6084 10.1372 10.6084 9.08889C10.6084 8.00113 9.091 7.90471 9.091 7.42934C9.091 6.95398 10.15 7.01995 10.6141 7.27765Z"
        fill="white" />
    </g>
    <g id="payment-facil">
      <path fill-rule="evenodd" clip-rule="evenodd"
        d="M3.02218 8.44579C2.98242 8.52074 2.99709 8.61386 3.05837 8.67218L3.06076 8.67441L3.06653 8.6795L3.06852 8.68149L4.87763 10.1898C4.45906 10.8 3.96591 11.3551 3.41143 11.8421C3.32309 11.9196 3.32309 12.0575 3.41306 12.1334L7.99494 15.9558C8.07244 16.0209 8.18552 16.0131 8.25525 15.9403L8.53887 15.6427C11.233 12.817 12.7163 9.1109 12.7163 5.20642V4.76776C12.7163 4.66235 12.631 4.5771 12.5255 4.5771H10.1821C10.124 3.39785 9.90267 2.24315 9.52287 1.13267L9.5435 1.12476L9.30128 0.522077L9.14485 0.131473C9.10129 0.0245217 8.97901 -0.028179 8.87207 0.0152215L3.41581 2.19765C3.30743 2.24106 3.25468 2.36195 3.29803 2.47045L3.45466 2.86105C3.75382 3.60971 3.90576 4.39867 3.90576 5.20624C3.90576 6.23701 3.66385 7.22125 3.18659 8.13113L3.02218 8.44579ZM8.9203 4.5771C8.86453 3.55241 8.67252 2.55057 8.34686 1.584L8.38575 1.56844L8.34961 1.58229L4.83718 2.98661C5.05741 3.70427 5.16906 4.44828 5.16906 5.20469C5.16906 6.25251 4.53362 8.28171 4.53362 8.28171L5.52029 9.09134C6.09737 7.91828 6.42164 6.59942 6.42164 5.20642V4.76776C6.42164 4.66235 6.50691 4.5771 6.61222 4.5771H8.9203ZM5.12276 11.9211L8.02439 14.3391C10.103 11.9676 11.2994 8.98846 11.4405 5.83883L7.66163 5.83727C7.5236 8.1065 6.6386 10.2269 5.12276 11.9211Z"
        fill="#6BBE22" />
    </g>
    <g id="payment-yappy">
      <path
        d="M8.75075 6.1437C8.63677 6.61962 8.62622 7.03383 8.61766 7.37003C8.59844 8.12507 8.58923 8.48668 7.44099 8.27016C7.12001 8.22237 7.01755 8.4696 7.19104 8.62665C8.38238 9.58059 9.80949 10.2165 11.4959 10.5026C11.5929 10.5252 11.6916 10.5441 11.7919 10.559C13.7951 10.8574 15.6609 9.47553 15.9594 7.47236C16.2578 5.4692 14.8759 3.60331 12.8727 3.30487C12.6894 3.27753 12.5076 3.26431 12.3277 3.26431C10.6237 3.26443 9.12084 4.45412 8.75075 6.1437Z"
        fill="#F07F46" />
      <path
        d="M3.29034 12.7142C1.47315 12.7142 1.86203e-06 11.2411 1.86203e-06 9.42387C1.86203e-06 7.60668 1.47315 6.13353 3.29034 6.13353C3.38124 6.13353 3.47128 6.13721 3.56031 6.14444C5.09476 6.1754 6.44552 6.55097 7.62896 7.23998C7.80367 7.35648 7.74542 7.58944 7.45425 7.58944C6.40662 7.54913 6.44627 7.87126 6.52904 8.54384C6.56587 8.84313 6.61124 9.2118 6.57316 9.64882C6.45755 11.3611 5.03197 12.7142 3.29034 12.7142Z"
        fill="#3490CF" />
    </g>
    <g id="payment-master">
      <path
        d="M0 3.53333C0 3.23878 0.238781 3 0.533333 3H15.4667C15.7612 3 16 3.23878 16 3.53333V13.1333C16 13.4279 15.7612 13.6667 15.4667 13.6667H0.533334C0.238782 13.6667 0 13.4279 0 13.1333V3.53333Z"
        fill="black" />
      <path d="M9.48144 5.364H6.3534V10.9852H9.48144V5.364Z" fill="#FF5F00" />
      <path
        d="M6.55202 8.1749C6.55153 7.63354 6.6742 7.09916 6.91076 6.61223C7.14732 6.12529 7.49156 5.69855 7.91742 5.36432C7.39005 4.94979 6.75669 4.692 6.08974 4.62042C5.42279 4.54883 4.74915 4.66634 4.14582 4.9595C3.54249 5.25267 3.03381 5.70967 2.67794 6.27827C2.32206 6.84687 2.13333 7.50412 2.13333 8.1749C2.13333 8.84569 2.32206 9.50294 2.67794 10.0715C3.03381 10.6401 3.54249 11.0971 4.14582 11.3903C4.74915 11.6835 5.42279 11.801 6.08974 11.7294C6.75669 11.6578 7.39005 11.4 7.91742 10.9855C7.49156 10.6513 7.14732 10.2245 6.91077 9.73758C6.67421 9.25064 6.55153 8.71626 6.55202 8.1749Z"
        fill="#EB001B" />
      <path
        d="M13.7013 8.1749C13.7013 8.84568 13.5126 9.50292 13.1568 10.0715C12.8009 10.6401 12.2923 11.0971 11.689 11.3903C11.0856 11.6835 10.412 11.801 9.74506 11.7294C9.07812 11.6578 8.44478 11.4 7.91742 10.9855C8.34291 10.6509 8.68687 10.2241 8.92339 9.73725C9.15991 9.25039 9.28281 8.71618 9.28281 8.1749C9.28281 7.63363 9.15991 7.09942 8.92339 6.61256C8.68687 6.12569 8.34291 5.69889 7.91742 5.36432C8.44478 4.94979 9.07812 4.692 9.74506 4.62042C10.412 4.54883 11.0856 4.66634 11.689 4.95951C12.2923 5.25268 12.8009 5.70968 13.1568 6.27828C13.5126 6.84688 13.7013 7.50413 13.7013 8.1749Z"
        fill="#F79E1B" />
      <path
        d="M13.3603 10.3904V10.2753H13.4067V10.2519H13.2885V10.2753H13.3349V10.3904H13.3603ZM13.5897 10.3904V10.2517H13.5535L13.5118 10.3471L13.4701 10.2517H13.4339V10.3904H13.4595V10.2858L13.4985 10.376H13.5251L13.5641 10.2855V10.3904H13.5897Z"
        fill="#F79E1B" />
    </g>

    <g id="icon-industria">
      <path fill-rule="evenodd" clip-rule="evenodd"
        d="M0.591014 8.76291L0.591014 7.29432L1.59584 7.2943V9.13971C1.59584 9.13971 2.46541 9.13971 2.89053 8.48272C1.48956 8.48272 1.50889 6.62765 2.88087 6.65663C1.29633 4.85954 -1.12879 7.14939 0.591014 8.76291ZM1.08377 7.20736C1.35057 7.20736 1.56686 7.00405 1.56686 6.75326C1.56686 6.50246 1.35057 6.29915 1.08377 6.29915C0.816964 6.29915 0.600676 6.50246 0.600676 6.75326C0.600676 7.00405 0.816964 7.20736 1.08377 7.20736Z"
        fill="black" />
      <path
        d="M3.60868 7.79712H15.9952L16 7.80195V7.85992L15.9662 7.86475H3.60868L3.60385 7.85992V7.80195L3.60868 7.79712Z"
        fill="black" />
      <path
        d="M12.5266 6.79712H12.5846L12.6377 6.81161L12.6763 6.8406L12.7053 6.87441L12.7198 6.9034L12.7536 6.87441L12.7923 6.8406L12.8551 6.80678L12.9034 6.79712H12.9517L13.0048 6.81161L13.0338 6.83094L13.0676 6.86958L13.087 6.91306L13.0966 6.99519L13.1015 7.36234L13.1111 7.39615L13.1594 7.41548L13.1643 7.42031V7.44446L13.0821 7.44929H12.8503L12.8406 7.44446V7.42031L12.8599 7.40581L12.8841 7.39132L12.8986 7.372V6.94205L12.8792 6.9034L12.8599 6.89374H12.8309L12.7875 6.91789L12.7633 6.93722L12.7391 6.97103V7.372L12.7536 7.39615L12.7971 7.41548L12.8019 7.42031V7.44446L12.7923 7.44929H12.4928L12.4783 7.44446L12.4831 7.41548L12.5266 7.39132L12.5362 7.37683V6.94688L12.5218 6.91306L12.5073 6.89857L12.4638 6.89374L12.4251 6.91306L12.3913 6.94688L12.3768 6.9662L12.372 7.01451V7.34301L12.3768 7.38166L12.3865 7.40098L12.4348 7.41548L12.4396 7.44446L12.4348 7.44929L12.1111 7.44446L12.116 7.41548L12.1643 7.39132L12.1691 7.38166L12.1739 7.3092V6.97103L12.1691 6.87924L12.1594 6.86475L12.116 6.85026L12.1063 6.8261L12.116 6.81644H12.3672L12.372 6.83094V6.88891L12.4251 6.8406L12.4734 6.81161L12.5266 6.79712Z"
        fill="black" />
      <path
        d="M5.24637 6.53613H5.52173L5.52656 6.54096V7.05787L5.53139 7.3429L5.54589 7.36705L5.59903 7.38637L5.60386 7.4057L5.56038 7.42019L5.33816 7.46367L5.33333 7.45884L5.33816 7.37188L5.28502 7.41536L5.2512 7.44435L5.20289 7.46367H5.14009L5.08695 7.44918L5.0483 7.42985L4.99999 7.38637L4.97101 7.3429L4.94202 7.28009L4.9227 7.19314V7.09169L4.93719 7.01439L4.96135 6.94676L4.99999 6.88396L5.03864 6.84531L5.08695 6.81633L5.13043 6.80183L5.16424 6.797H5.20772L5.27053 6.81633L5.31883 6.8598L5.33333 6.86947L5.3285 6.61826L5.31883 6.5941L5.29468 6.57961L5.24637 6.56995L5.24154 6.56512V6.54096L5.24637 6.53613ZM5.19806 6.86947L5.16908 6.88879L5.14492 6.92744L5.13043 6.97575L5.12077 7.04821V7.16898L5.13043 7.25594L5.14975 7.31874L5.18357 7.36705L5.20289 7.37671H5.24154L5.28019 7.35256L5.30434 7.3284L5.33333 7.29459V6.96125L5.30434 6.91778L5.27053 6.88396L5.23671 6.86947H5.19806Z"
        fill="black" />
      <path
        d="M11.2947 6.51196L11.3092 6.51679V6.8308L11.3044 6.8453L11.285 6.83563L11.2657 6.79699L11.2367 6.73419L11.2077 6.68588L11.1643 6.6424L11.1063 6.60858L11.0628 6.59409L11.0387 6.58926H10.942L10.8792 6.60858L10.8213 6.6424L10.7778 6.68588L10.7488 6.73419L10.7295 6.77766L10.7101 6.85013L10.7005 6.91293V7.05786L10.715 7.14964L10.7343 7.22211L10.773 7.2994L10.8164 7.34288L10.8647 7.37187L10.942 7.39119H11.0338L11.1063 7.37187L11.1643 7.34288L11.2222 7.2994L11.256 7.27042L11.2657 7.25109H11.2754V7.24143L11.2947 7.2366V7.30423L11.2657 7.34288L11.2464 7.35254V7.3622L11.1739 7.41051L11.1208 7.43467L11.058 7.45399L11.0097 7.46365H10.8696L10.773 7.44433L10.7005 7.41534L10.6473 7.38636L10.6039 7.35254L10.5556 7.30906L10.5073 7.24143L10.4734 7.16414L10.4541 7.08684L10.4493 7.04819V6.9709L10.4638 6.88877L10.4879 6.81148L10.5314 6.73419L10.5701 6.68588L10.599 6.65206L10.6522 6.60858L10.715 6.56993L10.7681 6.54578L10.8358 6.52646L10.9082 6.51679H10.9855L11.0531 6.52646L11.1498 6.55544L11.2222 6.5796L11.2464 6.57476L11.2705 6.53612L11.2947 6.51196Z"
        fill="black" />
      <path
        d="M4.57489 6.79712H4.6232L4.66668 6.80678L4.71016 6.83577L4.74397 6.87924L4.7633 6.93722L4.76813 7.00968L4.77296 7.36717L4.78262 7.39615L4.83093 7.41548L4.83576 7.42031V7.44446H4.51692L4.51209 7.4348L4.52658 7.41065L4.5604 7.39132L4.57006 7.372V6.94205L4.55557 6.91306L4.53624 6.89857H4.50243L4.46378 6.91789L4.42996 6.95654L4.42513 6.9662V7.39132L4.44929 7.40098L4.47827 7.42031L4.4831 7.43963L4.46861 7.44929H4.24156L4.15943 7.44446L4.1546 7.4348L4.17393 7.41065L4.21257 7.38649L4.2174 7.38166L4.22223 7.34784V6.92272L4.2174 6.86958L4.19325 6.85992L4.16426 6.84543L4.1546 6.82127L4.15943 6.81644H4.41547L4.4203 6.8406V6.88891L4.45895 6.85026L4.51209 6.81644L4.55074 6.80195L4.57489 6.79712Z"
        fill="black" />
      <path
        d="M5.67149 6.81641H5.9227L5.92753 6.82124L5.93236 7.31399L5.94685 7.34781L5.971 7.3623H6.00482L6.0483 7.32848L6.08212 7.28984V6.90336L6.07728 6.86955L6.02898 6.85022L6.01448 6.8309V6.82124L6.02414 6.81641H6.27535L6.28018 6.82124L6.28501 7.37196L6.29468 7.39612L6.34299 7.41544L6.34782 7.43959L6.34299 7.44443H6.09178L6.08695 7.43959V7.37196L6.0483 7.40578L5.99516 7.44443L5.93236 7.46375H5.87922L5.82608 7.44443L5.78743 7.41544L5.75844 7.37196L5.74395 7.32848L5.73912 7.29467L5.73429 6.99032L5.72946 6.87921L5.7198 6.86472L5.67149 6.84539L5.66666 6.82124L5.67149 6.81641Z"
        fill="black" />
      <path
        d="M8.68115 6.79712H8.74395L8.81158 6.81161L8.86472 6.8406L8.89854 6.87441L8.92269 6.91789L8.92752 6.94205L8.93235 7.28021L8.93718 7.36234L8.971 7.35267L8.99516 7.33818H9.01448L9.00965 7.36717L8.96617 7.41548L8.91786 7.44446L8.86955 7.45412L8.81641 7.44929L8.78259 7.42997L8.74878 7.39132L8.73912 7.36234L8.66665 7.41065L8.59902 7.44446L8.55554 7.45412H8.51689L8.47342 7.43963L8.43477 7.40098L8.41544 7.36234L8.41061 7.34301V7.3092L8.42994 7.25123L8.46375 7.20775L8.50723 7.1691L8.59419 7.11596L8.68598 7.06765L8.73429 7.0435V6.92272L8.71979 6.88408L8.69564 6.86475L8.68598 6.85992H8.62801L8.58453 6.87924L8.57487 6.9034L8.61351 6.96137L8.61834 6.97586V7.01451L8.59902 7.0435L8.57003 7.06282L8.55554 7.06765H8.49757L8.44926 7.0435L8.42511 7.00485V6.95654L8.45409 6.89857L8.49274 6.85992L8.55071 6.8261L8.60868 6.80678L8.68115 6.79712ZM8.72462 7.10147L8.67148 7.14495L8.62801 7.18842L8.60385 7.23673L8.59902 7.27538L8.61351 7.3092L8.6425 7.33335L8.67148 7.33818L8.73912 7.30437V7.10147H8.72462Z"
        fill="black" />
      <path
        d="M3.61353 6.53613H4.08213L4.0918 6.55546L4.08696 6.56512L4.0145 6.57478L3.98068 6.58927L3.96619 6.6086L3.96136 6.72454V7.33807L3.96619 7.37188L3.97102 7.38637L3.99035 7.39604L4.0145 7.4057L4.08213 7.41536L4.0918 7.43951L4.0773 7.44918H3.6232L3.6087 7.43951L3.61353 7.41053L3.67634 7.4057L3.71015 7.39121L3.72465 7.37671L3.72948 7.35256V6.62792L3.71981 6.59893L3.70532 6.58444L3.67151 6.57478L3.61353 6.56512L3.6087 6.54096L3.61353 6.53613Z"
        fill="black" />
      <path
        d="M15.686 6.79712L15.7633 6.80195L15.8116 6.81644L15.8696 6.84543L15.9275 6.89857L15.9662 6.96137L15.9903 7.03383L16 7.10147V7.15461L15.9903 7.2319L15.9662 7.30437L15.9324 7.35751L15.913 7.38166H15.9034V7.39132L15.8406 7.4348L15.7681 7.45895L15.7343 7.46379H15.6763L15.6039 7.44929L15.5459 7.42031L15.4976 7.37683L15.4638 7.33335L15.4299 7.26572L15.4154 7.20775L15.4106 7.1691V7.09664L15.4251 7.01934L15.4541 6.94688L15.5024 6.87924L15.541 6.84543L15.5894 6.81644L15.6425 6.80195L15.686 6.79712ZM15.6908 6.85026L15.6522 6.86958L15.6328 6.89857L15.6232 6.93238L15.6135 7.01451V7.28504L15.628 7.35267L15.6473 7.38649L15.6715 7.40581L15.7198 7.41065L15.7584 7.39132L15.7826 7.35267L15.7923 7.2947L15.7971 7.22224V6.99036L15.7874 6.92272L15.7633 6.87441L15.7391 6.85509L15.6908 6.85026Z"
        fill="black" />
      <path
        d="M11.7053 6.79712L11.7826 6.80195L11.8406 6.82127L11.8986 6.85509L11.9227 6.87441V6.88408H11.9324L11.9759 6.94688L12.0048 7.01934L12.0145 7.06282L12.0193 7.14495L12.0097 7.22707L11.9952 7.27538L11.9662 7.33335L11.9275 7.38166L11.8744 7.42514L11.8213 7.44929L11.7488 7.46379H11.7005L11.6329 7.45412L11.5894 7.4348L11.5411 7.40581L11.5024 7.36234L11.4638 7.29953L11.4396 7.23673L11.43 7.19325V7.07731L11.4493 7.00002L11.4879 6.92272L11.5217 6.87924L11.5556 6.84543L11.6039 6.81644L11.657 6.80195L11.7053 6.79712ZM11.7102 6.85026L11.6763 6.86475L11.6522 6.89374L11.6377 6.94205L11.628 7.03867V7.26572L11.6377 7.33335L11.657 7.37683L11.6812 7.40098L11.7053 7.41065H11.7391L11.7778 7.39132L11.8019 7.34301L11.8116 7.26089L11.8164 7.13528V7.04833L11.8116 6.96137L11.7971 6.9034L11.773 6.86475L11.7391 6.85026H11.7102Z"
        fill="black" />
      <path
        d="M9.39131 6.81641H9.71982L9.71499 6.84539L9.66668 6.86955L9.67151 6.91302L9.71016 7.01447L9.77779 7.16906L9.79711 7.21254L9.81644 7.16906L9.87924 7.00481L9.90339 6.92269V6.87921L9.8889 6.86472L9.84542 6.85022L9.83576 6.84056V6.81641H10.0435L10.0483 6.83573L10.0338 6.85022L10.0048 6.86472L9.98552 6.88887L9.93721 7.00481L9.78262 7.40095L9.72948 7.53621L9.67634 7.65216L9.64252 7.69563L9.61354 7.71979L9.58455 7.73428L9.55557 7.73911H9.51692L9.47827 7.72945L9.44929 7.71013L9.42513 7.68114L9.41064 7.64732V7.60385L9.42996 7.5652L9.45895 7.54104L9.47344 7.53621H9.51209L9.55074 7.55554L9.57006 7.58935L9.57972 7.65699H9.60388L9.64252 7.61351L9.67634 7.54104L9.69566 7.4879L9.69083 7.43959L9.63286 7.30433L9.59904 7.23187L9.51209 7.0338L9.45412 6.90819L9.4203 6.86472L9.39131 6.84539L9.38165 6.83573V6.82124L9.39131 6.81641Z"
        fill="black" />
      <path
        d="M10.7488 8.06274H10.8647L10.9275 8.17869L10.9855 8.28497L11.058 8.42023L11.0773 8.45405V8.26564L11.0821 8.06274H11.1884V8.6811H11.0773L11.058 8.65695L11 8.5555L10.9324 8.42506L10.8889 8.34777L10.8599 8.29946V8.67627L10.8551 8.6811H10.7488V8.06274Z"
        fill="black" />
      <path
        d="M8.314 8.06274H8.42028L8.44444 8.10139L8.50724 8.21733L8.57004 8.32844L8.60869 8.39608L8.63768 8.44922V8.12555L8.64251 8.06274H8.74396L8.74879 8.06758V8.67627L8.74396 8.6811H8.63768L8.60386 8.63279L8.53623 8.50719L8.48792 8.42023L8.42512 8.30912L8.42028 8.29946V8.66661L8.41545 8.6811H8.314L8.30917 8.67627V8.06758L8.314 8.06274Z"
        fill="black" />
      <path
        d="M6.93719 8.06274H7.2029L7.28019 8.07241L7.32367 8.09173L7.34782 8.11588L7.37198 8.15453L7.38647 8.19801V8.28014L7.37198 8.32361L7.33333 8.37675L7.27536 8.40574L7.25604 8.41057L7.30918 8.46371L7.35748 8.541L7.41546 8.64729L7.42995 8.67144V8.6811L7.40579 8.68593L7.29951 8.6811L7.28019 8.65695L7.21739 8.5555L7.16425 8.46854L7.14009 8.44439L7.1256 8.43472L7.05314 8.42506V8.6811H6.93719V8.06274ZM7.05314 8.17386V8.32361H7.20773L7.24637 8.30912L7.2657 8.28497L7.27053 8.26564V8.227L7.2512 8.18835L7.22705 8.17386H7.05314Z"
        fill="black" />
      <path
        d="M13.5072 6.79712H13.5459L13.6135 6.81161L13.6667 6.84543L13.7101 6.88891L13.7488 6.9662L13.7681 7.03867L13.7729 7.1063L13.7681 7.11113H13.4299L13.4493 7.20292L13.4734 7.26572L13.5024 7.30437L13.5411 7.33818L13.5942 7.35267L13.6377 7.34784L13.686 7.32369L13.7343 7.27055L13.744 7.25606H13.7681V7.28504L13.744 7.32852L13.7053 7.37683L13.6618 7.42031L13.5942 7.45412L13.5507 7.46379H13.4831L13.4203 7.44929L13.372 7.42514L13.3237 7.38166L13.2898 7.33335L13.2609 7.26572L13.2464 7.19325V7.09181L13.2609 7.01934L13.285 6.96137L13.314 6.91306L13.3575 6.86475L13.401 6.83094L13.4541 6.80678L13.5072 6.79712ZM13.5169 6.84543L13.4879 6.85509L13.4638 6.87924L13.4444 6.91789L13.4299 6.97103L13.4251 7.00968V7.05799L13.4493 7.06282H13.5942L13.6039 7.05799V7.00002L13.5942 6.91789L13.5749 6.87441L13.5507 6.85026L13.5169 6.84543Z"
        fill="black" />
      <path
        d="M13.2802 8.06274H13.3865L13.4444 8.16419L13.5121 8.2898L13.5797 8.41057L13.6039 8.45405V8.19318L13.6087 8.06274H13.7101L13.715 8.06758V8.67627L13.7101 8.6811H13.6039L13.5845 8.65695L13.5169 8.53617L13.4541 8.42506L13.3913 8.30912L13.3865 8.30429L13.3816 8.6811H13.2802L13.2754 8.67627V8.06758L13.2802 8.06274Z"
        fill="black" />
      <path
        d="M11.6087 8.06274H11.8357L11.9082 8.07241L11.9517 8.09173L11.9807 8.11105L12.0145 8.1497L12.0435 8.20767L12.058 8.25598L12.0676 8.33328V8.42023L12.0531 8.50719L12.029 8.56999L12 8.61347L11.9565 8.65212L11.913 8.67144L11.8696 8.6811H11.6087L11.6039 8.67627V8.06758L11.6087 8.06274ZM11.7198 8.17386V8.57482H11.8502L11.8937 8.56033L11.9179 8.53617L11.9372 8.49753L11.9468 8.45405V8.29463L11.9324 8.24149L11.9034 8.19801L11.8696 8.17869L11.8502 8.17386H11.7198Z"
        fill="black" />
      <path
        d="M14.6957 6.79712H14.7633L14.8261 6.81161L14.8792 6.8406L14.9179 6.88408L14.9372 6.92272L14.942 6.97103L14.9275 7.00485L14.9034 7.03383L14.8841 7.0435H14.8261L14.7971 7.029L14.773 7.00485L14.7585 6.9662L14.744 6.88891L14.7246 6.85992L14.7198 6.85509H14.686L14.6618 6.86958L14.6329 6.92755L14.6232 6.97586V7.10147L14.6425 7.18842L14.6667 7.25606L14.7005 7.30437L14.7391 7.33335L14.7633 7.34301L14.8164 7.34784L14.8599 7.33335L14.8986 7.3092L14.9275 7.28504L14.9517 7.28021L14.9565 7.30437L14.9227 7.35751L14.8696 7.41065L14.8116 7.44446L14.7391 7.46379H14.6763L14.6135 7.44929L14.5507 7.41548L14.5024 7.36717L14.4638 7.30437L14.4396 7.24156L14.43 7.18359V7.10147L14.4445 7.029L14.4686 6.9662L14.5073 6.9034L14.5459 6.85992L14.5942 6.8261L14.6377 6.80678L14.6957 6.79712Z"
        fill="black" />
      <path
        d="M6.81159 6.79224H6.82608L6.83091 6.8019L6.83574 6.90818V7.02412L6.82608 7.02895L6.80192 7.0048L6.76328 6.9275L6.72946 6.88885L6.67149 6.85987H6.61835L6.58936 6.88402L6.58453 6.89369V6.9275L6.60869 6.96132L6.68598 7.01929L6.74395 7.05794L6.79226 7.09658L6.83091 7.13523L6.8599 7.18354L6.86956 7.21736V7.29465L6.85023 7.35262L6.81159 7.40576L6.76811 7.43958L6.71497 7.4589L6.657 7.46373L6.5797 7.44924L6.52173 7.42992H6.50724L6.48791 7.4589L6.48308 7.46373H6.45893L6.4541 7.44924L6.44927 7.34296V7.22702L6.46859 7.23185L6.48791 7.256L6.5169 7.31398L6.56038 7.36228L6.58453 7.38161L6.62801 7.40093H6.67632L6.70531 7.38644L6.7198 7.36228V7.32364L6.70531 7.29465L6.657 7.25117L6.57487 7.1932L6.51207 7.14006L6.47825 7.10625L6.44927 7.05794L6.43961 7.02412V6.95649L6.45893 6.90335L6.48791 6.85987L6.52173 6.82605L6.57487 6.8019L6.60386 6.79707H6.65217L6.71497 6.81156L6.75845 6.83088L6.77777 6.82605L6.81159 6.79224Z"
        fill="black" />
      <path
        d="M14.2802 6.79712H14.3237L14.3575 6.81161L14.3865 6.85026L14.3913 6.87441V6.91306L14.3768 6.94688L14.3478 6.98069L14.3043 6.99036L14.2657 6.97586L14.2125 6.93722L14.1787 6.94205L14.1497 6.97586L14.1256 7.03383L14.1159 7.08697V7.37683L14.1304 7.40098L14.1884 7.41548L14.1932 7.4348L14.1884 7.44446H13.8502V7.42031L13.8744 7.40581L13.9034 7.39132L13.9082 7.38166L13.913 7.33335V6.9034L13.9034 6.86958L13.8551 6.84543L13.8454 6.8261L13.8551 6.81644H14.1063L14.1111 6.82127V6.89374L14.1063 6.95171H14.1159L14.1256 6.92755L14.1594 6.87924L14.1836 6.85509L14.2222 6.82127L14.2802 6.79712Z"
        fill="black" />
      <path
        d="M7.19324 6.58447L7.21257 6.5893V6.81636H7.35749L7.36232 6.84051V6.88399L7.35749 6.88882H7.21257L7.2174 7.3236L7.22706 7.35259L7.24155 7.36225H7.2802L7.31885 7.32843L7.343 7.30428L7.35749 7.30911L7.35266 7.34293L7.32368 7.39124L7.2802 7.42988L7.23189 7.44921L7.2029 7.45404H7.16426L7.12078 7.44438L7.08213 7.42022L7.05798 7.39607L7.02899 7.35259L7.02416 7.32843L7.01933 7.20283V6.96612L7.02416 6.88882H6.94687L6.93237 6.87433L6.95653 6.84534L7.0145 6.80186L7.07247 6.74872L7.11595 6.69558L7.14976 6.64727L7.17875 6.59897L7.19324 6.58447Z"
        fill="black" />
      <path
        d="M6.12559 8.06274H6.53139L6.53622 8.06758V8.16419L6.50723 8.17386H6.24636L6.24153 8.30429H6.51206V8.40574L6.50723 8.41057H6.24153V8.57482H6.54105L6.54588 8.6183V8.66661L6.54105 8.6811H6.12559L6.12076 8.65695V8.06758L6.12559 8.06274Z"
        fill="black" />
      <path
        d="M3.79227 8.05322H3.87439L3.93237 8.06772L3.97584 8.09187L4 8.11602L4.01932 8.14018L4.03865 8.18366L4.04831 8.2223V8.24163L4.03865 8.24646L3.93237 8.25129L3.90821 8.19332L3.88889 8.174L3.8599 8.16433H3.80193L3.75362 8.18849L3.74396 8.21264L3.74879 8.2368L3.77295 8.26095L3.81642 8.28028L3.9227 8.31409L4 8.35274L4.03865 8.39622L4.05797 8.44936L4.0628 8.51216L4.05314 8.5653L4.02898 8.61361L4.00966 8.63776L3.96135 8.67158L3.90338 8.6909L3.87439 8.69573H3.7971L3.73913 8.68124L3.69082 8.65226L3.65217 8.60878L3.62802 8.56047L3.61353 8.50733V8.47834L3.61836 8.47351L3.71981 8.46385L3.7343 8.5025L3.75845 8.55081L3.78261 8.57013L3.80676 8.57979H3.87439L3.9227 8.55564L3.9372 8.52665V8.47834L3.91787 8.45419L3.85507 8.43003L3.75845 8.40105L3.70048 8.37206L3.66667 8.33825L3.63768 8.28028L3.63285 8.26095V8.19332L3.64734 8.14501L3.67633 8.10636L3.71497 8.07738L3.76328 8.05805L3.79227 8.05322Z"
        fill="black" />
      <path
        d="M7.85025 6.79712H7.8889L7.92754 6.81161L7.9517 6.84543L7.95653 6.85992V6.92272L7.93721 6.96137L7.91788 6.98069L7.8744 6.99036L7.83576 6.97586L7.78262 6.93722L7.7488 6.94205L7.71981 6.97586L7.69566 7.029L7.686 7.06765L7.68117 7.12562V7.36234L7.69566 7.39615L7.71981 7.40581L7.75846 7.41548L7.76329 7.42997L7.75846 7.44446H7.4203L7.41547 7.42514L7.42996 7.41065L7.47344 7.39132L7.4831 7.34784V6.89374L7.46861 6.86475L7.4203 6.84543L7.41547 6.82127L7.4203 6.81644H7.67634L7.68117 6.94688L7.71498 6.89857L7.7488 6.85992L7.79228 6.82127L7.83092 6.80195L7.85025 6.79712Z"
        fill="black" />
      <path
        d="M9.93719 8.06274H10.3382L10.3478 8.07241V8.16419L10.343 8.16902L10.1836 8.17386H10.0821L10.0531 8.16902V8.30429H10.3237L10.3285 8.32844V8.39608L10.3237 8.41057H10.0531V8.57482H10.3527L10.3575 8.57965V8.67627L10.3527 8.6811H9.93719V8.06274Z"
        fill="black" />
      <path
        d="M12.4638 8.06274H12.8647L12.8696 8.06758V8.16902L12.8357 8.17386H12.5845L12.5797 8.18352L12.5749 8.30429H12.8454L12.8502 8.30912V8.40574L12.8454 8.41057H12.5749L12.5797 8.42506L12.5749 8.57482H12.8744L12.8792 8.57965V8.6811H12.4638L12.4589 8.06758L12.4638 8.06274Z"
        fill="black" />
      <path
        d="M4.45411 8.06274H4.56039L4.57005 8.07241V8.46371L4.57971 8.52168L4.59904 8.5555L4.63285 8.57482L4.65701 8.57965H4.69566L4.7343 8.56516L4.75846 8.541L4.76812 8.51202L4.77295 8.24149V8.06758L4.77778 8.06274H4.88889L4.89372 8.06758V8.39608L4.88889 8.52651L4.87923 8.57482L4.85991 8.61347L4.85025 8.62796H4.84058V8.63762H4.83092V8.64729L4.78261 8.67627L4.7343 8.69076L4.69566 8.69559H4.64252L4.58455 8.68593L4.53624 8.66178L4.49759 8.62796L4.4686 8.57965L4.45411 8.51202L4.44928 8.42506V8.06758L4.45411 8.06274Z"
        fill="black" />
      <path
        d="M15.6667 8.06274H15.773L15.7875 8.07724L15.8406 8.22216L15.9227 8.45405L15.9614 8.56033L15.9952 8.66178L15.9904 8.68593H15.8889L15.8744 8.6811L15.8309 8.5555V8.54584H15.6184L15.5701 8.6811H15.4445L15.459 8.63762L15.5507 8.37192L15.6135 8.19318L15.657 8.07241L15.6667 8.06274ZM15.715 8.22216L15.6715 8.36226L15.6474 8.43472H15.7875L15.7826 8.40091L15.7247 8.227L15.715 8.22216Z"
        fill="black" />
      <path
        d="M5.30917 8.06274H5.54589L5.62318 8.07241L5.67149 8.09656L5.70531 8.13521L5.72463 8.17869L5.73429 8.227V8.28497L5.7198 8.34294L5.68599 8.39608L5.65217 8.42506L5.60386 8.44439L5.57004 8.44922L5.42512 8.45405V8.67627L5.42028 8.6811H5.30917V8.06274ZM5.42512 8.17386V8.34294H5.5314L5.57971 8.32844L5.60386 8.30429L5.61352 8.2753V8.23666L5.59903 8.20284L5.57487 8.17869L5.55555 8.17386H5.42512Z"
        fill="black" />
      <path
        d="M14.3382 8.05322H14.401L14.4589 8.06772L14.5121 8.0967L14.5507 8.13535L14.5894 8.21264L14.5942 8.23197L14.5845 8.24163L14.4928 8.26578H14.4783L14.4493 8.20781L14.4155 8.17883L14.3913 8.16916H14.3285L14.2802 8.19815L14.2512 8.24646L14.2367 8.30443V8.4397L14.2512 8.49767L14.2705 8.53631L14.3092 8.57013L14.3382 8.57979H14.3816L14.43 8.55564L14.4589 8.51699L14.4686 8.49284L14.4783 8.45419L14.5217 8.46385L14.5894 8.48801L14.5942 8.5025L14.5701 8.5653L14.5411 8.61361L14.5024 8.65226L14.4493 8.68124L14.3865 8.69573H14.3382L14.2899 8.68607L14.2319 8.65709L14.1836 8.61361L14.1498 8.5653L14.1256 8.5025L14.1111 8.41554V8.33342L14.1256 8.25129L14.1449 8.19332L14.1739 8.14501L14.2029 8.11119L14.256 8.07738L14.3092 8.05805L14.3382 8.05322Z"
        fill="black" />
      <path
        d="M15.0097 6.81641H15.2754L15.2802 6.84056V7.28017L15.285 7.37679L15.2947 7.39612L15.343 7.41061L15.3575 7.43476L15.3526 7.44443H15.0145L15.0048 7.4251L15.0241 7.41061L15.0725 7.39612L15.0821 7.3623V6.90336L15.0725 6.86955L15.058 6.85988L15.0145 6.84539L15.0048 6.83573L15.0097 6.81641Z"
        fill="black" />
      <path
        d="M8 6.81641H8.2657L8.27053 6.8309V7.31882L8.27536 7.37679L8.29469 7.40095L8.33816 7.41544L8.343 7.42027V7.44443H8L8.00483 7.42027L8.02899 7.40578L8.05314 7.39612L8.06763 7.38645L8.07246 7.35747V6.93718L8.06763 6.88404L8.05797 6.86472L8.00966 6.85022L8 6.84056V6.81641Z"
        fill="black" />
      <path
        d="M9.13044 8.06274H9.56039L9.56522 8.06758V8.16419L9.56039 8.16902L9.4058 8.17386V8.67627L9.40097 8.6811H9.28986V8.16902H9.12561V8.06758L9.13044 8.06274Z"
        fill="black" />
      <path d="M14.9855 8.06274H15.0918L15.1015 8.07241V8.67144L15.0966 8.6811H14.9807V8.06758L14.9855 8.06274Z"
        fill="black" />
      <path d="M7.79228 8.06274H7.89856L7.90339 8.06758V8.6811H7.79228L7.78745 8.6183V8.06758L7.79228 8.06274Z"
        fill="black" />
      <path
        d="M8.14975 6.51685H8.19323L8.23188 6.53134L8.26569 6.56999L8.28019 6.61346L8.27536 6.65694L8.25603 6.68593L8.21739 6.71974L8.1884 6.72941H8.15458L8.11594 6.71491L8.07729 6.67144L8.06763 6.64728V6.59897L8.09178 6.55066L8.13043 6.52168L8.14975 6.51685Z"
        fill="black" />
      <path
        d="M15.1594 6.51685H15.2029L15.2464 6.53617L15.2754 6.56999L15.285 6.58931L15.2899 6.63762L15.2754 6.67627L15.256 6.70042L15.2174 6.72458L15.1691 6.72941L15.1256 6.71491L15.0918 6.6811L15.0773 6.64728V6.59414L15.1015 6.55066L15.1256 6.53134L15.1594 6.51685Z"
        fill="black" />
    </g>
    <g id="nav-caret--down">
      <path
        d="M7.99053 10.5448L14.8661 3.68774L15.75 4.57161L7.99053 12.3121L0.25 4.57161L1.13386 3.68774L7.99053 10.5448Z"
        fill="currentColor" />
    </g>
    <g id="nav-caret--up">
      <path
        d="M8.00947 5.45449L1.13386 12.3115L0.25 11.4277L8.00947 3.68714L15.75 11.4277L14.8661 12.3115L8.00947 5.45449Z"
        fill="currentColor" />
    </g>
    <g id="icon-filter">
      <path
        d="M2.41254 14.6666C2.28645 14.6666 2.18096 14.624 2.09605 14.5388C2.01115 14.4536 1.96869 14.3481 1.96869 14.2221V8.34181H0.635362C0.509436 8.34181 0.403881 8.29915 0.318696 8.21386C0.23351 8.12855 0.190918 8.02285 0.190918 7.89676C0.190918 7.77066 0.23351 7.66515 0.318696 7.58025C0.403881 7.49536 0.509436 7.45292 0.635362 7.45292H4.19091C4.31684 7.45292 4.4224 7.49556 4.50758 7.58085C4.59277 7.66616 4.63536 7.77186 4.63536 7.89796C4.63536 8.02405 4.59277 8.12955 4.50758 8.21445C4.4224 8.29936 4.31684 8.34181 4.19091 8.34181H2.85758V14.2221C2.85758 14.3481 2.81494 14.4536 2.72965 14.5388C2.64435 14.624 2.53865 14.6666 2.41254 14.6666ZM2.41254 4.99137C2.28645 4.99137 2.18096 4.94877 2.09605 4.86358C2.01115 4.7784 1.96869 4.67284 1.96869 4.54691V1.7777C1.96869 1.65177 2.01135 1.54621 2.09665 1.46103C2.18195 1.37584 2.28765 1.33325 2.41374 1.33325C2.53985 1.33325 2.64535 1.37584 2.73025 1.46103C2.81514 1.54621 2.85758 1.65177 2.85758 1.7777V4.54691C2.85758 4.67284 2.81494 4.7784 2.72965 4.86358C2.64435 4.94877 2.53865 4.99137 2.41254 4.99137ZM6.10545 4.99137C5.97953 4.99137 5.87397 4.94872 5.78878 4.86343C5.7036 4.77812 5.661 4.67243 5.661 4.54632C5.661 4.42023 5.7036 4.31474 5.78878 4.22983C5.87397 4.14492 5.97953 4.10247 6.10545 4.10247H7.43878V1.7777C7.43878 1.65177 7.48144 1.54621 7.56674 1.46103C7.65203 1.37584 7.75772 1.33325 7.88383 1.33325C8.00994 1.33325 8.11543 1.37584 8.20032 1.46103C8.28523 1.54621 8.32767 1.65177 8.32767 1.7777V4.10247H9.66101C9.78697 4.10247 9.89248 4.14513 9.97763 4.23043C10.0629 4.31573 10.1055 4.42143 10.1055 4.54752C10.1055 4.67363 10.0629 4.77913 9.97763 4.86403C9.89248 4.94892 9.78697 4.99137 9.66101 4.99137H6.10545ZM7.88263 14.6666C7.75652 14.6666 7.65103 14.624 7.56614 14.5388C7.48123 14.4536 7.43878 14.3481 7.43878 14.2221V7.89737C7.43878 7.77144 7.48144 7.66588 7.56674 7.5807C7.65203 7.49551 7.75772 7.45292 7.88383 7.45292C8.00994 7.45292 8.11543 7.49551 8.20032 7.5807C8.28523 7.66588 8.32767 7.77144 8.32767 7.89737V14.2221C8.32767 14.3481 8.28502 14.4536 8.19971 14.5388C8.11443 14.624 8.00874 14.6666 7.88263 14.6666ZM13.3527 14.6666C13.2266 14.6666 13.1211 14.624 13.0362 14.5388C12.9513 14.4536 12.9088 14.3481 12.9088 14.2221V11.8973H11.5755C11.4496 11.8973 11.344 11.8547 11.2589 11.7694C11.1737 11.6841 11.1311 11.5784 11.1311 11.4524C11.1311 11.3262 11.1737 11.2207 11.2589 11.1358C11.344 11.0509 11.4496 11.0085 11.5755 11.0085H15.1311C15.257 11.0085 15.3626 11.0511 15.4478 11.1365C15.5329 11.2217 15.5755 11.3274 15.5755 11.4535C15.5755 11.5796 15.5329 11.6851 15.4478 11.7701C15.3626 11.8549 15.257 11.8973 15.1311 11.8973H13.7977V14.2221C13.7977 14.3481 13.7551 14.4536 13.6698 14.5388C13.5845 14.624 13.4788 14.6666 13.3527 14.6666ZM13.3527 8.54691C13.2266 8.54691 13.1211 8.50433 13.0362 8.41914C12.9513 8.33395 12.9088 8.2284 12.9088 8.10248V1.7777C12.9088 1.65177 12.9515 1.54621 13.0368 1.46103C13.1221 1.37584 13.2279 1.33325 13.3539 1.33325C13.48 1.33325 13.5855 1.37584 13.6704 1.46103C13.7553 1.54621 13.7977 1.65177 13.7977 1.7777V8.10248C13.7977 8.2284 13.7551 8.33395 13.6698 8.41914C13.5845 8.50433 13.4788 8.54691 13.3527 8.54691Z" />
    </g>
    <g id="icon-edit">
      <path
        d="M13.5724 0.000488281C13.7174 0.0414883 13.8664 0.0714883 14.0074 0.122488C14.3167 0.236187 14.5929 0.424746 14.8115 0.671305C15.0301 0.917865 15.1841 1.21474 15.2599 1.53539C15.3357 1.85604 15.3308 2.19048 15.2458 2.50879C15.1607 2.82711 14.9981 3.11938 14.7724 3.35949C14.5964 3.54749 14.4104 3.72649 14.2274 3.90849C11.3114 6.82516 8.39411 9.74015 5.47544 12.6535C5.36167 12.7654 5.22383 12.8499 5.07244 12.9005C4.16544 13.1935 3.25244 13.4695 2.34244 13.7555C2.25366 13.7937 2.15563 13.8052 2.06043 13.7884C1.96523 13.7715 1.87705 13.7272 1.80675 13.6608C1.73646 13.5945 1.68713 13.509 1.66486 13.4149C1.64259 13.3209 1.64836 13.2223 1.68144 13.1315C1.93444 12.1545 2.18144 11.1765 2.43744 10.2005C2.46874 10.0844 2.52895 9.97805 2.61244 9.89149C5.70778 6.79015 8.80544 3.69016 11.9054 0.591488C12.1981 0.293299 12.5781 0.0960968 12.9904 0.0284883C13.0138 0.0217274 13.0362 0.0123336 13.0574 0.000488281L13.5724 0.000488281ZM11.5184 2.35649C11.4944 2.37849 11.4674 2.40149 11.4434 2.42649C8.77678 5.09315 6.10811 7.76282 3.43744 10.4355C3.38355 10.4917 3.34439 10.5605 3.32344 10.6355C3.16844 11.2205 3.02344 11.8075 2.87044 12.3945C2.85644 12.4495 2.84844 12.5065 2.83444 12.5795C3.44944 12.3875 4.04244 12.2065 4.63444 12.0155C4.73364 11.9837 4.82427 11.9296 4.89944 11.8575C7.55344 9.20882 10.2054 6.55849 12.8554 3.90649C12.8934 3.86849 12.9304 3.82749 12.9624 3.79249L11.5184 2.35249M13.6554 3.07349C13.8146 2.93797 13.9656 2.79304 14.1074 2.63949C14.2389 2.49331 14.3223 2.31039 14.3467 2.11533C14.371 1.92028 14.335 1.72245 14.2434 1.54849C14.1643 1.36863 14.0327 1.21685 13.8659 1.11301C13.6991 1.00917 13.5048 0.958099 13.3084 0.966488C12.8014 0.966488 12.5324 1.33449 12.2294 1.64249L13.6554 3.07249" />
      <path
        d="M5.48846 15.5304H0.531462C0.467098 15.5362 0.402232 15.5291 0.340631 15.5096C0.279029 15.4901 0.221918 15.4585 0.172612 15.4167C0.123306 15.375 0.0827876 15.3238 0.0534073 15.2663C0.024027 15.2087 0.00637036 15.1459 0.00146218 15.0814C-0.00848055 14.9539 0.0325792 14.8276 0.115631 14.7303C0.198684 14.633 0.316944 14.5727 0.444462 14.5624C0.469462 14.5624 0.494462 14.5624 0.519462 14.5624H10.4485C10.5733 14.5572 10.6953 14.6001 10.7892 14.6824C10.8832 14.7647 10.9419 14.8801 10.953 15.0045C10.9642 15.1289 10.9271 15.2528 10.8494 15.3506C10.7716 15.4483 10.6592 15.5124 10.5355 15.5294C10.4805 15.5344 10.4245 15.5294 10.3695 15.5294H5.48846" />
    </g>
    <g id="icon-remove">
      <path
        d="M4.22477 16C4.12176 15.9712 4.01874 15.9464 3.91572 15.9145C3.53543 15.7881 3.20308 15.5481 2.96358 15.2268C2.72408 14.9054 2.58898 14.5184 2.57651 14.1179C2.57651 14.0293 2.57651 13.9407 2.57651 13.8521C2.57651 10.8852 2.57651 7.91833 2.57651 4.95145C2.58481 4.89486 2.57121 4.83723 2.53847 4.79034C2.50574 4.74343 2.45634 4.71079 2.40035 4.69906C2.11066 4.58276 1.86721 4.37446 1.70751 4.10623C1.54779 3.838 1.48067 3.52471 1.51648 3.2146C1.55313 2.89419 1.69921 2.59623 1.93005 2.37102C2.16089 2.14581 2.46236 2.00713 2.78357 1.9784C3.42228 1.9475 4.06304 1.96089 4.7038 1.95368H4.84184C4.85111 1.74764 4.85626 1.54161 4.87069 1.34691C4.90023 0.981909 5.06626 0.641459 5.33567 0.393436C5.60507 0.145415 5.95807 0.00804605 6.32425 0.00872143C7.44404 0.000480107 8.56383 -0.00673104 9.68259 0.0107818C9.88122 0.0102823 10.0779 0.0501547 10.2606 0.127978C10.4434 0.205802 10.6084 0.319954 10.7457 0.463502C10.883 0.607051 10.9897 0.777003 11.0592 0.963039C11.1289 1.14908 11.16 1.34732 11.1506 1.54573C11.1506 1.67038 11.1506 1.79503 11.1506 1.94028C11.2124 1.94028 11.267 1.9475 11.3216 1.9475C11.8789 1.9475 12.4352 1.9475 12.9925 1.9475C13.3283 1.93038 13.6592 2.03231 13.9273 2.23529C14.1952 2.43828 14.383 2.72931 14.4575 3.05713C14.5319 3.38496 14.4883 3.72855 14.3344 4.0274C14.1804 4.32625 13.926 4.56118 13.6158 4.69082C13.5577 4.70395 13.5066 4.73848 13.4728 4.78755C13.439 4.8366 13.425 4.8966 13.4334 4.95558C13.4389 7.93343 13.4389 10.911 13.4334 13.8882C13.4479 14.1855 13.3988 14.4825 13.2895 14.7594C13.1803 15.0363 13.0134 15.2867 12.7999 15.4942C12.542 15.74 12.2173 15.9041 11.8666 15.966C11.8376 15.9739 11.8094 15.9843 11.7821 15.9969L4.22477 16ZM12.6876 4.81135H3.31926V4.94527C3.31926 7.93893 3.31926 10.9322 3.31926 13.9252C3.31952 14.0287 3.32778 14.132 3.34398 14.2343C3.37721 14.5148 3.51277 14.7733 3.72471 14.9602C3.93666 15.147 4.21008 15.2491 4.49262 15.2469C6.8359 15.2469 9.17884 15.2469 11.5215 15.2469C11.806 15.252 12.081 15.1447 12.2869 14.9482C12.4255 14.8102 12.5331 14.6441 12.6022 14.461C12.6713 14.278 12.7004 14.0823 12.6876 13.8871C12.6876 10.9147 12.6876 7.94202 12.6876 4.96897V4.81135ZM7.99518 4.05109H12.8988C12.982 4.05183 13.0653 4.04804 13.1481 4.03976C13.3016 4.02153 13.444 3.95063 13.5512 3.83916C13.6584 3.72768 13.7236 3.58251 13.7357 3.42837C13.7478 3.27422 13.7062 3.12064 13.6178 2.99375C13.5294 2.86687 13.3999 2.77453 13.2511 2.73248C13.1497 2.70959 13.0459 2.69922 12.942 2.70158C9.6455 2.70158 6.34897 2.70158 3.05245 2.70158C2.97454 2.70106 2.8967 2.70656 2.81963 2.71806C2.66832 2.74325 2.53028 2.81971 2.42865 2.93461C2.32703 3.04951 2.268 3.19587 2.26148 3.34913C2.25496 3.50238 2.30133 3.65322 2.39283 3.77635C2.48433 3.89946 2.61538 3.98738 2.764 4.02534C2.86582 4.04464 2.96948 4.05259 3.07305 4.04903C4.71239 4.04903 6.35206 4.04903 7.99209 4.04903M5.60725 1.93719H10.4016C10.4016 1.86302 10.4016 1.80018 10.4016 1.7394C10.4016 1.6302 10.4016 1.51998 10.3903 1.41181C10.3785 1.23274 10.2983 1.06505 10.1664 0.943328C10.0346 0.82161 9.861 0.755148 9.68156 0.757651C8.56212 0.752157 7.44267 0.752157 6.32322 0.757651C6.1409 0.75527 5.96473 0.823555 5.83165 0.948191C5.69856 1.07282 5.61889 1.24414 5.60932 1.42623C5.59592 1.59106 5.60932 1.75794 5.60932 1.94131" />
      <path
        d="M6.16562 9.70464C6.16562 10.8543 6.16562 12.005 6.16562 13.1547C6.16541 13.2619 6.14038 13.3677 6.09248 13.4637C6.05917 13.5236 6.00731 13.5711 5.9447 13.5989C5.88208 13.6268 5.81211 13.6336 5.74532 13.6183C5.67465 13.6116 5.60784 13.5829 5.55426 13.5364C5.50069 13.4898 5.46303 13.4277 5.44657 13.3587C5.42993 13.2986 5.42128 13.2366 5.42082 13.1743C5.42082 10.8694 5.42082 8.56459 5.42082 6.25977C5.42082 6.01253 5.52383 5.85595 5.70823 5.8168C5.76012 5.80318 5.81439 5.80119 5.86714 5.81095C5.9199 5.82072 5.96985 5.842 6.01344 5.87329C6.05702 5.90457 6.09317 5.94509 6.1193 5.99195C6.14542 6.03881 6.1609 6.09087 6.16459 6.1444C6.17119 6.23248 6.17291 6.32086 6.16975 6.40915V9.70567" />
      <path
        d="M7.62946 9.72318C7.62946 8.56802 7.62946 7.41286 7.62946 6.2577C7.61886 6.17631 7.63281 6.0936 7.66951 6.02019C7.70621 5.94677 7.76402 5.88599 7.83549 5.84564C7.88221 5.82128 7.93363 5.80733 7.98626 5.80469C8.03887 5.80206 8.09142 5.81083 8.14034 5.83039C8.18925 5.84995 8.23336 5.87986 8.26965 5.91805C8.30594 5.95624 8.33353 6.00182 8.35057 6.05167C8.37147 6.13202 8.38118 6.21487 8.37942 6.29788C8.37942 8.57179 8.37942 10.8454 8.37942 13.1186C8.38032 13.1913 8.37307 13.2639 8.35778 13.335C8.33976 13.4156 8.29478 13.4877 8.23027 13.5395C8.16575 13.5911 8.08556 13.6193 8.00289 13.6193C7.92023 13.6193 7.84003 13.5911 7.77552 13.5395C7.71102 13.4877 7.66604 13.4156 7.648 13.335C7.63409 13.2637 7.62822 13.1912 7.63049 13.1186C7.63049 11.984 7.63049 10.8508 7.63049 9.71906" />
      <path
        d="M9.84019 6.30919C9.84019 5.97851 9.97205 5.80647 10.2193 5.81059C10.4665 5.81471 10.5902 5.98881 10.5902 6.30713C10.5902 8.58104 10.5902 10.8546 10.5902 13.1279C10.5902 13.4524 10.4501 13.6337 10.2069 13.6286C9.96382 13.6234 9.84019 13.4534 9.84019 13.13V6.30919Z" />
    </g>
    <g id="hpa-cart">
      <path
        d="M11.2595 12.6124H10.567L16 3.15149H10.8815H8.38098H6.72309V3.38612C9.15024 3.38612 7.81285 6.60899 7.81285 6.60899L6.27057 10.2312L4.02569 4.98363C4.02569 4.98363 3.46911 3.38612 4.67203 3.38612V3.15149H0V3.38612C0.381463 3.38612 0.910894 3.40152 1.39512 4.50274C1.39512 4.50274 1.55707 4.73606 5.15398 12.8483H5.40455L8.04878 6.67945C8.27106 6.18184 8.47675 5.76256 8.66569 5.40537C9.4078 4.26106 11.0714 3.38628 12.773 3.38628H13.462L7.63187 12.8485H15.3859L15.7545 9.63935H15.4896C15.1646 10.4778 13.5081 12.6124 11.2595 12.6124Z" />
    </g>
  </defs>
</svg>
