<svg class="dn" height="0" version="1.1" width="0" xmlns="http://www.w3.org/2000/svg">
  <defs>
    <g id="hpa-search">
      <path
        d="M15.3089 16.0001L9.19433 9.88549C8.706 10.3012 8.14453 10.6229 7.50979 10.8507C6.87504 11.0786 6.2372 11.1925 5.59627 11.1925C4.03219 11.1925 2.70841 10.6511 1.62495 9.56834C0.541652 8.48551 0 7.16255 0 5.59945C0 4.03617 0.541408 2.71208 1.62422 1.62715C2.70704 0.542384 4.03 0 5.5931 0C7.15636 0 8.48044 0.541653 9.56538 1.62495C10.6501 2.70841 11.1925 4.03219 11.1925 5.59627C11.1925 6.2748 11.0724 6.93144 10.832 7.56618C10.5915 8.20093 10.2761 8.74365 9.88543 9.19429L16 15.3091L15.3089 16.0001ZM5.59627 10.216C6.89197 10.216 7.98585 9.76999 8.87793 8.87789C9.76993 7.98601 10.216 6.89213 10.216 5.59627C10.216 4.30041 9.76993 3.20653 8.87793 2.31463C7.98585 1.42257 6.89197 0.976537 5.59627 0.976537C4.30041 0.976537 3.20653 1.42257 2.31463 2.31463C1.42257 3.20653 0.976536 4.30041 0.976536 5.59627C0.976536 6.89213 1.42257 7.98601 2.31463 8.87789C3.20653 9.76999 4.30041 10.216 5.59627 10.216Z" />
    </g>
    <g id="logo-vz">
      <path
        d="M26.7249 8.81759C26.3306 8.8406 25.9401 8.90835 25.561 9.01954C25.1667 9.11165 24.7865 9.25656 24.4308 9.45037C24.0268 9.66991 23.6813 9.98328 23.4231 10.3642C23.1385 10.7861 22.887 11.2295 22.6707 11.6904C21.8489 13.4855 20.6089 16.2904 18.9508 20.105C17.2926 23.9197 15.5941 27.8847 13.8554 32.0001H12.3103C10.5368 27.6244 8.82152 23.4047 7.16448 19.341C5.50743 15.2773 4.38781 12.5341 3.8056 11.1114C3.66358 10.7703 3.4642 10.456 3.21612 10.1824C2.9279 9.88589 2.59806 9.63303 2.23701 9.43186C1.89118 9.23087 1.51602 9.08549 1.12522 9.00102C0.756093 8.90765 0.37963 8.84628 0 8.81759V7.61597H10.8525V8.82095C10.0692 8.85746 9.28894 8.94346 8.51642 9.07844C7.8816 9.20298 7.5625 9.41503 7.5625 9.74152C7.56513 9.89068 7.59178 10.0384 7.64144 10.1791C7.68678 10.3474 7.73213 10.4871 7.76572 10.588C8.22812 11.6954 8.96931 13.504 9.98929 16.0138C11.0093 18.5236 12.4648 22.0915 14.3558 26.7173C15.2918 24.6282 16.3706 22.1543 17.5921 19.2956C18.8063 16.4447 19.6343 14.4857 20.0542 13.4187C20.3495 12.7291 20.5866 12.0158 20.7629 11.2865C20.8211 10.9658 20.8542 10.6412 20.862 10.3154C20.8591 10.1851 20.824 10.0575 20.7598 9.94413C20.6956 9.83075 20.6043 9.73511 20.4942 9.66579C20.1837 9.46353 19.8438 9.3108 19.4865 9.21308C19.0785 9.10215 18.664 9.01672 18.2454 8.95727C17.8289 8.90342 17.4057 8.85798 16.9741 8.82095V7.61597H26.7333L26.7249 8.81759Z" />
      <path
        d="M61.1811 24.6001L60.6773 31.6937H38.9068V30.4854C39.2679 30.4618 39.7666 30.418 40.378 30.3389C40.7865 30.3099 41.1904 30.2349 41.5821 30.1151C41.9217 29.9886 42.2091 29.7515 42.3983 29.4419C42.5665 29.1244 42.6471 28.7677 42.6318 28.4086V11.1114C42.6412 10.7689 42.5729 10.4288 42.4319 10.1168C42.2471 9.78345 41.9436 9.53224 41.5821 9.4133C41.1487 9.23778 40.6985 9.10696 40.2386 9.02285C39.795 8.9289 39.3464 8.86035 38.895 8.81754V7.61255H59.1994V13.4153H57.8088C57.4731 12.4026 56.9302 11.4712 56.2151 10.6805C55.6553 9.87719 54.8171 9.31144 53.8638 9.09354C53.4876 9.04642 53.0359 9.01444 52.5035 8.98583C51.9711 8.95722 51.3598 8.95554 50.6897 8.95554H46.5734V18.5264H49.5326C50.2346 18.5585 50.937 18.4743 51.6117 18.2773C52.0602 18.1064 52.4579 17.8237 52.7672 17.4561C53.074 17.0627 53.3084 16.6176 53.4591 16.1417C53.6415 15.6394 53.7677 15.1185 53.8353 14.5883H55.2259V24.0229H53.8353C53.7803 23.4346 53.6458 22.8566 53.4356 22.3046C53.2913 21.8295 53.0638 21.3838 52.7638 20.9885C52.425 20.5759 51.9713 20.2736 51.4606 20.1201C50.8286 19.967 50.1792 19.898 49.5292 19.9148H46.5734V27.1329C46.5573 27.7083 46.6137 28.2833 46.7413 28.8445C46.83 29.2307 47.0594 29.5698 47.3846 29.7954C47.7841 30.0346 48.2338 30.1775 48.6979 30.2127C49.2555 30.2699 50.0414 30.3036 51.0625 30.3036H52.6782C53.3499 30.3036 53.9075 30.2784 54.3677 30.2329C54.8532 30.1811 55.335 30.099 55.8103 29.9872C56.2009 29.9172 56.5676 29.75 56.8768 29.5008C57.5867 28.7696 58.1879 27.9398 58.662 27.037C59.1274 26.2591 59.5268 25.4433 59.8561 24.5984L61.1811 24.6001ZM53.4289 3.27226C52.8892 3.52245 52.0495 3.89831 50.9097 4.39983C49.766 4.90471 48.4829 5.47691 47.047 6.12315L46.4642 5.46176C47.5895 4.47892 48.5014 3.66943 49.2135 3.02823C49.9256 2.38704 50.6158 1.73742 51.3077 1.06425C51.6271 0.74067 51.9907 0.464155 52.3876 0.242972C52.7129 0.0820441 53.0711 -0.000919331 53.4339 0.000628835C53.8682 -0.0105083 54.2934 0.126571 54.6397 0.389387C54.7954 0.497994 54.9225 0.642726 55.0102 0.811232C55.098 0.979738 55.1437 1.16701 55.1436 1.35708C55.154 1.57235 55.1166 1.78726 55.0341 1.98631C54.9516 2.18536 54.8261 2.36361 54.6666 2.50821C54.2955 2.82484 53.878 3.08252 53.4289 3.27226Z" />
      <path
        d="M96.2808 24.5361L95.7216 31.6953H75.2207V30.487C75.5146 30.4634 75.9429 30.4264 76.5088 30.3725C76.9084 30.3471 77.3033 30.2719 77.6844 30.1487C78.0163 30.0311 78.2982 29.8038 78.4839 29.5041C78.6681 29.1726 78.7559 28.796 78.7374 28.417V11.1803C78.7486 10.8289 78.6779 10.4797 78.5309 10.1604C78.347 9.82847 78.0483 9.5753 77.6912 9.44856C77.308 9.2796 76.9107 9.145 76.5038 9.04634C76.0863 8.93535 75.6606 8.85825 75.2308 8.81578V7.61584H86.2949V8.82083C85.8439 8.84788 85.3951 8.90409 84.9514 8.98912C84.4072 9.10132 84.0092 9.19388 83.7573 9.26681C83.5724 9.31424 83.3999 9.40103 83.2516 9.52126C83.1032 9.64149 82.9824 9.79234 82.8974 9.96354C82.7407 10.2917 82.662 10.6517 82.6673 11.0154V27.18C82.6536 27.7632 82.6952 28.3465 82.7916 28.9218C82.8475 29.3025 83.0471 29.647 83.3492 29.8845C83.7328 30.1172 84.1677 30.2518 84.6155 30.2766C85.397 30.3504 86.1818 30.383 86.9667 30.3742C87.4218 30.3742 87.8971 30.3641 88.3976 30.3389C88.8643 30.3183 89.3296 30.2728 89.7915 30.2026C90.1964 30.141 90.5957 30.047 90.9856 29.9215C91.2908 29.8451 91.5705 29.6896 91.7967 29.4705C92.46 28.741 93.0517 27.9491 93.5635 27.1059C94.1038 26.2948 94.5687 25.4357 94.9524 24.5395L96.2808 24.5361Z" />
      <path
        d="M131.498 24.6002L131.011 31.6938H109.217V30.4854C109.59 30.4618 110.083 30.4181 110.695 30.339C111.102 30.3093 111.505 30.2343 111.896 30.1152C112.238 29.9891 112.529 29.7522 112.722 29.442C112.888 29.1238 112.967 28.7673 112.95 28.4087V11.1114C112.96 10.7687 112.89 10.4283 112.747 10.1168C112.563 9.78185 112.259 9.53011 111.896 9.41335C111.462 9.2383 111.012 9.10749 110.552 9.0229C110.109 8.92821 109.66 8.85966 109.208 8.81759V7.61597H129.513V13.4187H128.122C127.789 12.4046 127.245 11.4727 126.527 10.684C125.97 9.88335 125.136 9.31797 124.187 9.09695C123.804 9.04983 123.348 9.01785 122.819 8.98924C122.29 8.96063 121.688 8.95895 121.01 8.95895H116.889V18.5298H119.844C120.546 18.5641 121.249 18.4799 121.924 18.2807C122.374 18.1108 122.773 17.828 123.082 17.4595C123.39 17.066 123.626 16.621 123.779 16.1451C123.957 15.6421 124.081 15.1213 124.147 14.5917H125.546V24.0263H124.147C124.093 23.4389 123.962 22.8611 123.757 22.308C123.613 21.8328 123.386 21.3871 123.086 20.992C122.75 20.5755 122.295 20.2724 121.782 20.1236C121.149 19.9696 120.499 19.9006 119.848 19.9182H116.892V27.138C116.878 27.7133 116.934 28.2881 117.06 28.8496C117.152 29.2357 117.383 29.5743 117.708 29.8004C118.11 30.0378 118.56 30.1805 119.025 30.2178C119.572 30.275 120.368 30.3087 121.391 30.3087H122.998C123.662 30.3087 124.228 30.2835 124.678 30.238C125.166 30.1852 125.652 30.1032 126.131 29.9923C126.519 29.9222 126.884 29.7556 127.192 29.5076C127.898 28.7746 128.498 27.9451 128.972 27.0438C129.438 26.2658 129.837 25.4501 130.166 24.6052L131.498 24.6002Z" />
      <path
        d="M166.184 24.1759L165.309 31.6953H144.232V31.1012L160.744 8.9622H154.698C153.989 8.9622 153.397 8.97398 152.931 8.99249C152.494 9.01436 152.058 9.0627 151.626 9.13722C150.539 9.45105 149.577 10.0985 148.876 10.9885C147.91 11.9894 147.133 13.1571 146.581 14.4351H145.288L146.068 7.61584H165.73V8.20992L149.211 30.3523H155.447C156.566 30.3494 157.683 30.2819 158.794 30.1504C159.614 30.1391 160.413 29.8971 161.102 29.452C161.959 28.6967 162.712 27.8309 163.342 26.8771C163.939 26.0313 164.453 25.1295 164.876 24.1844L166.184 24.1759Z" />
    </g>
    <g id="logo-flyup">
      <path d="M9.82692 7.03079V13.4498H26.0123L26.0316 19.4806H9.82692V30.3373H1.57678V1H28.1648V7.03079H9.82692Z" />
      <path d="M30.3624 30.3373V1.02008L38.6126 1V24.3066H55.1193V30.3373H30.3624Z" />
      <path
        d="M69.3832 20.083V30.3373H61.1331V20.083L47.5114 1H56.8859L65.271 13.7979L73.6175 1H82.9856L69.3832 20.083Z" />
      <path
        d="M130.778 1V17.6801C130.778 19.6212 130.469 21.4083 129.852 23.0415C129.236 24.6747 128.272 26.0803 126.961 27.2584C125.65 28.4364 123.986 29.3534 121.956 30.0094C119.925 30.672 117.503 31 114.689 31C111.707 31 109.195 30.6653 107.145 29.9893C105.102 29.3199 103.444 28.3896 102.185 27.2115C100.926 26.0268 100.013 24.6278 99.4541 23.0013C98.8951 21.3815 98.6124 19.6078 98.6124 17.7001V1H106.863V17.6934C106.863 18.7644 107.01 19.7483 107.299 20.6452C107.595 21.5355 108.058 22.2985 108.694 22.9344C109.33 23.5703 110.146 24.0589 111.135 24.407C112.125 24.755 113.32 24.9291 114.714 24.9291C116.109 24.9291 117.342 24.7483 118.332 24.3869C119.321 24.0254 120.137 23.5234 120.767 22.8809C121.397 22.2383 121.853 21.4752 122.129 20.585C122.412 19.6948 122.553 18.7242 122.553 17.6734V1H130.765H130.778Z" />
      <path
        d="M165.423 11.7831C165.423 13.3829 165.153 14.8019 164.607 16.0335C164.067 17.2584 163.283 18.2892 162.255 19.1258C161.234 19.9625 159.987 20.5917 158.522 21.0201C157.057 21.4485 155.4 21.6627 153.556 21.6627H143.172V30.3507H134.961V1H153.35C155.213 1 156.884 1.2075 158.375 1.62249C159.865 2.03748 161.131 2.6332 162.172 3.41633C163.213 4.19946 164.016 5.15663 164.575 6.29451C165.134 7.4324 165.417 8.71754 165.417 10.1499V11.7831H165.423ZM157.077 10.7323C157.077 9.44043 156.704 8.50335 155.946 7.90763C155.188 7.31861 154.005 7.0241 152.399 7.0241H143.191V15.6319H152.116C153.723 15.6319 154.956 15.3039 155.804 14.6412C156.653 13.9786 157.077 12.9746 157.077 11.6158V10.7256V10.7323Z" />
    </g>
    <g id="flyup">
      <path d="M0.800012 6.5848V7.20725H2.36951L2.37138 7.79206H0.800012V8.84482H0V6H2.57823V6.5848H0.800012Z" />
      <path d="M2.7915 8.84482V6.00195L3.5915 6V8.26003H5.19216V8.84482H2.7915Z" />
      <path
        d="M6.57502 7.85047V8.84482H5.775V7.85047L4.4541 6H5.36317L6.17626 7.241L6.98562 6H7.89403L6.57502 7.85047Z" />
      <path
        d="M12.5287 6V7.61746C12.5287 7.80569 12.4988 7.97899 12.439 8.13736C12.3792 8.29573 12.2857 8.43202 12.1586 8.54625C12.0315 8.66051 11.8701 8.74943 11.6733 8.81302C11.4764 8.87728 11.2415 8.90909 10.9686 8.90909C10.6795 8.90909 10.4359 8.87663 10.2371 8.81108C10.039 8.74618 9.8782 8.65595 9.75609 8.54172C9.63396 8.42684 9.5455 8.29119 9.49129 8.13346C9.43709 7.97639 9.40967 7.80439 9.40967 7.61941V6H10.2097V7.61876C10.2097 7.72261 10.224 7.81802 10.252 7.90499C10.2807 7.99132 10.3256 8.06531 10.3872 8.12697C10.4489 8.18863 10.5281 8.23601 10.624 8.26977C10.72 8.30352 10.8358 8.32039 10.971 8.32039C11.1062 8.32039 11.2259 8.30287 11.3218 8.26782C11.4178 8.23277 11.4969 8.18409 11.558 8.12178C11.619 8.05947 11.6633 7.98548 11.6901 7.89915C11.7175 7.81283 11.7312 7.71871 11.7312 7.61681V6H12.5275H12.5287Z" />
      <path
        d="M15.888 7.04564C15.888 7.20076 15.8619 7.33836 15.8089 7.45779C15.7566 7.57657 15.6806 7.67652 15.5809 7.75766C15.4818 7.83879 15.3609 7.8998 15.2189 7.94134C15.0768 7.98288 14.916 8.00365 14.7372 8.00365H13.7303V8.84613H12.9341V6H14.7173C14.898 6 15.06 6.02012 15.2045 6.06036C15.3491 6.1006 15.4718 6.15837 15.5727 6.23431C15.6737 6.31025 15.7516 6.40307 15.8058 6.51341C15.86 6.62375 15.8874 6.74837 15.8874 6.88727V7.04564H15.888ZM15.0787 6.94373C15.0787 6.81847 15.0425 6.7276 14.969 6.66983C14.8955 6.61271 14.7808 6.58416 14.6251 6.58416H13.7322V7.41885H14.5977C14.7534 7.41885 14.8731 7.38704 14.9553 7.32279C15.0375 7.25853 15.0787 7.16117 15.0787 7.02941V6.94309V6.94373Z" />
    </g>
    <g id="velez">
      <path
        d="M2.57304 7.30832C2.53508 7.31053 2.49749 7.31706 2.46099 7.32776C2.42302 7.33663 2.38642 7.35058 2.35217 7.36924C2.31328 7.39038 2.28001 7.42055 2.25515 7.45722C2.22775 7.49785 2.20353 7.54054 2.18271 7.58491C2.10359 7.75774 1.98421 8.02779 1.82456 8.39506C1.66491 8.76233 1.50139 9.14408 1.33398 9.5403H1.18522C1.01447 9.11902 0.849326 8.71275 0.689788 8.3215C0.530249 7.93025 0.422453 7.66614 0.366399 7.52917C0.352726 7.49632 0.333529 7.46607 0.309645 7.43973C0.281895 7.41117 0.250138 7.38683 0.215377 7.36746C0.18208 7.34811 0.145961 7.33411 0.108335 7.32598C0.0727958 7.31699 0.0365504 7.31108 0 7.30832V7.19263H1.04487V7.30864C0.969451 7.31216 0.894329 7.32044 0.819952 7.33343C0.758831 7.34542 0.72811 7.36584 0.72811 7.39727C0.728362 7.41163 0.730928 7.42586 0.735709 7.4394C0.740075 7.4556 0.744441 7.46905 0.747675 7.47877C0.792195 7.58539 0.863556 7.75952 0.961758 8.00116C1.05996 8.24281 1.2001 8.58631 1.38216 9.03168C1.47228 8.83055 1.57614 8.59236 1.69375 8.31712C1.81065 8.04264 1.89037 7.85404 1.93079 7.75131C1.95923 7.68491 1.98206 7.61624 1.99903 7.54602C2.00463 7.51515 2.00782 7.48389 2.00857 7.45253C2.00829 7.43998 2.00491 7.4277 1.99873 7.41678C1.99255 7.40586 1.98376 7.39666 1.97316 7.38998C1.94326 7.37051 1.91053 7.3558 1.87614 7.34639C1.83686 7.33572 1.79695 7.32749 1.75665 7.32177C1.71655 7.31658 1.6758 7.31221 1.63424 7.30864V7.19263H2.57385L2.57304 7.30832Z"
        fill="#1A1A1A" />
      <path
        d="M5.89056 8.82795L5.84205 9.51091H3.746V9.39457C3.78077 9.3923 3.82879 9.38809 3.88765 9.38047C3.92698 9.37768 3.96587 9.37045 4.00358 9.35892C4.03628 9.34674 4.06395 9.32392 4.08217 9.29411C4.09836 9.26354 4.10612 9.2292 4.10464 9.19462V7.52926C4.10555 7.4963 4.09897 7.46355 4.0854 7.4335C4.06761 7.40141 4.03839 7.37723 4.00358 7.36577C3.96185 7.34888 3.91851 7.33628 3.87423 7.32818C3.83152 7.31914 3.78833 7.31254 3.74487 7.30842V7.1924H5.69976V7.75109H5.56587C5.53355 7.65358 5.48128 7.56391 5.41243 7.48778C5.35853 7.41044 5.27784 7.35597 5.18605 7.33499C5.14983 7.33045 5.10634 7.32737 5.05508 7.32462C5.00383 7.32186 4.94497 7.3217 4.88045 7.3217H4.48414V8.24317H4.76904C4.83663 8.24627 4.90427 8.23816 4.96922 8.21919C5.0124 8.20273 5.05069 8.17552 5.08047 8.14012C5.11001 8.10225 5.13257 8.0594 5.14709 8.01358C5.16465 7.96522 5.17679 7.91506 5.18331 7.86402H5.31719V8.77237H5.18331C5.17801 8.71573 5.16506 8.66008 5.14482 8.60693C5.13093 8.56119 5.10903 8.51828 5.08014 8.48023C5.04753 8.4405 5.00385 8.41139 4.95467 8.39662C4.89382 8.38188 4.8313 8.37523 4.76872 8.37685H4.48414V9.0718C4.48259 9.12719 4.48802 9.18256 4.50031 9.23659C4.50885 9.27377 4.53093 9.30642 4.56224 9.32814C4.60071 9.35117 4.644 9.36493 4.68868 9.36832C4.74237 9.37383 4.81804 9.37707 4.91635 9.37707H5.0719C5.13658 9.37707 5.19026 9.37464 5.23456 9.37026C5.28131 9.36528 5.32769 9.35738 5.37346 9.34661C5.41106 9.33987 5.44637 9.32377 5.47613 9.29978C5.54448 9.22938 5.60237 9.14949 5.64802 9.06257C5.69282 8.98767 5.73128 8.90913 5.76298 8.82778L5.89056 8.82795ZM5.14418 6.77452C5.09222 6.79861 5.01137 6.8348 4.90163 6.88308C4.79152 6.93169 4.66799 6.98678 4.52974 7.049L4.47363 6.98532C4.58196 6.8907 4.66976 6.81276 4.73832 6.75103C4.80688 6.68929 4.87334 6.62675 4.93996 6.56194C4.9707 6.53078 5.00571 6.50416 5.04393 6.48287C5.07525 6.46737 5.10973 6.45938 5.14466 6.45953C5.18648 6.45846 5.22741 6.47166 5.26076 6.49696C5.27574 6.50742 5.28798 6.52135 5.29643 6.53758C5.30488 6.5538 5.30928 6.57183 5.30927 6.59013C5.31027 6.61086 5.30667 6.63155 5.29872 6.65071C5.29078 6.66988 5.2787 6.68704 5.26334 6.70096C5.22761 6.73144 5.18742 6.75625 5.14418 6.77452V6.77452Z"
        fill="#1A1A1A" />
      <path
        d="M9.26983 8.82169L9.21599 9.51097H7.24219V9.39463C7.27048 9.39236 7.31172 9.3888 7.36621 9.38361C7.40468 9.38117 7.4427 9.37393 7.47939 9.36206C7.51134 9.35075 7.53849 9.32886 7.55636 9.30001C7.5741 9.26809 7.58255 9.23183 7.58078 9.19533V7.53581C7.58185 7.50197 7.57504 7.46835 7.56089 7.43762C7.54318 7.40566 7.51443 7.38128 7.48004 7.36908C7.44315 7.35281 7.40489 7.33985 7.36572 7.33035C7.32553 7.31967 7.28454 7.31224 7.24316 7.30816V7.19263H8.3084V7.30864C8.26498 7.31125 8.22177 7.31666 8.17904 7.32484C8.12666 7.33565 8.08833 7.34456 8.06408 7.35158C8.04628 7.35615 8.02968 7.3645 8.01539 7.37608C8.0011 7.38765 7.98947 7.40218 7.98129 7.41866C7.96621 7.45025 7.95862 7.48491 7.95914 7.51993V9.07624C7.95782 9.1324 7.96182 9.18855 7.9711 9.24394C7.97649 9.28059 7.9957 9.31377 8.02479 9.33663C8.06173 9.35903 8.10359 9.37199 8.14671 9.37438C8.22195 9.38148 8.29751 9.38462 8.37308 9.38378C8.4169 9.38378 8.46266 9.3828 8.51084 9.38037C8.55578 9.37839 8.60058 9.37401 8.64505 9.36725C8.68403 9.36132 8.72247 9.35227 8.76001 9.34019C8.7894 9.33284 8.81633 9.31786 8.83811 9.29677C8.90197 9.22653 8.95894 9.15029 9.00821 9.06911C9.06023 8.99102 9.10499 8.9083 9.14193 8.82201L9.26983 8.82169Z"
        fill="#1A1A1A" />
      <path
        d="M12.6604 8.82785L12.6135 9.51081H10.5152V9.39447C10.5511 9.3922 10.5986 9.38799 10.6575 9.38037C10.6967 9.37752 10.7355 9.37029 10.7731 9.35882C10.8061 9.34668 10.8341 9.32388 10.8527 9.29401C10.8687 9.26338 10.8762 9.22905 10.8747 9.19452V7.52917C10.8756 7.49616 10.8689 7.4634 10.8551 7.43341C10.8374 7.40116 10.8081 7.37692 10.7731 7.36568C10.7314 7.34882 10.688 7.33623 10.6438 7.32809C10.6011 7.31897 10.5579 7.31237 10.5144 7.30832V7.19263H12.4693V7.75131H12.3354C12.3033 7.65367 12.251 7.56394 12.1818 7.48801C12.1281 7.41093 12.0479 7.35649 11.9566 7.33521C11.9197 7.33068 11.8757 7.3276 11.8248 7.32484C11.7738 7.32209 11.716 7.32193 11.6506 7.32193H11.2538V8.2434H11.5384C11.606 8.2467 11.6737 8.2386 11.7386 8.21942C11.7819 8.20306 11.8203 8.17583 11.8502 8.14035C11.8798 8.10247 11.9025 8.05963 11.9173 8.0138C11.9344 7.96538 11.9463 7.91523 11.9527 7.86425H12.0874V8.7726H11.9527C11.9475 8.71604 11.9349 8.66041 11.9152 8.60716C11.9013 8.56141 11.8794 8.5185 11.8505 8.48045C11.8182 8.44036 11.7744 8.41118 11.725 8.39684C11.6641 8.38203 11.6014 8.37538 11.5387 8.37708H11.2542V9.07219C11.2528 9.12758 11.2582 9.18292 11.2703 9.23698C11.2792 9.27415 11.3014 9.30675 11.3327 9.32852C11.3714 9.35137 11.4148 9.36511 11.4595 9.36871C11.5122 9.37422 11.5889 9.37746 11.6873 9.37746H11.8421C11.9059 9.37746 11.9604 9.37503 12.0038 9.37065C12.0508 9.36557 12.0975 9.35767 12.1436 9.347C12.1811 9.34025 12.2162 9.3242 12.2458 9.30033C12.3138 9.22976 12.3715 9.1499 12.4172 9.06312C12.462 8.98822 12.5005 8.90968 12.5322 8.82833L12.6604 8.82785Z"
        fill="#1A1A1A" />
      <path
        d="M16 8.78702L15.9157 9.51097H13.8865V9.45377L15.4763 7.32225H14.8942C14.8259 7.32225 14.7688 7.32339 14.7241 7.32517C14.6819 7.32727 14.64 7.33193 14.5984 7.3391C14.4937 7.36932 14.4011 7.43165 14.3336 7.51734C14.2406 7.61371 14.1658 7.72613 14.1127 7.84918H13.9882L14.0632 7.19263H15.9563V7.24982L14.3659 9.38167H14.9663C15.074 9.38138 15.1816 9.37489 15.2885 9.36223C15.3674 9.36115 15.4444 9.33784 15.5107 9.29498C15.5932 9.22227 15.6658 9.13891 15.7264 9.04708C15.7838 8.96564 15.8333 8.87882 15.874 8.78783L16 8.78702Z"
        fill="#1A1A1A" />

    </g>
    <g id="icon-search">
      <path
        d="M15.3089 16.0001L9.19433 9.88549C8.706 10.3012 8.14453 10.6229 7.50979 10.8507C6.87504 11.0786 6.2372 11.1925 5.59627 11.1925C4.03219 11.1925 2.70841 10.6511 1.62495 9.56834C0.541652 8.48551 0 7.16255 0 5.59945C0 4.03617 0.541408 2.71208 1.62422 1.62715C2.70704 0.542384 4.03 0 5.5931 0C7.15636 0 8.48044 0.541653 9.56538 1.62495C10.6501 2.70841 11.1925 4.03219 11.1925 5.59627C11.1925 6.2748 11.0724 6.93144 10.832 7.56618C10.5915 8.20093 10.2761 8.74365 9.88543 9.19429L16 15.3091L15.3089 16.0001ZM5.59627 10.216C6.89197 10.216 7.98585 9.76999 8.87793 8.87789C9.76993 7.98601 10.216 6.89213 10.216 5.59627C10.216 4.30041 9.76993 3.20653 8.87793 2.31463C7.98585 1.42257 6.89197 0.976537 5.59627 0.976537C4.30041 0.976537 3.20653 1.42257 2.31463 2.31463C1.42257 3.20653 0.976536 4.30041 0.976536 5.59627C0.976536 6.89213 1.42257 7.98601 2.31463 8.87789C3.20653 9.76999 4.30041 10.216 5.59627 10.216Z" />
    </g>
    <g id="icon-cart">
      <path
        d="M3.27648 15.8949C2.87268 15.8949 2.53555 15.7597 2.26508 15.4892C1.99461 15.2187 1.85938 14.8816 1.85938 14.4778V5.03135C1.85938 4.62755 1.99461 4.29041 2.26508 4.01994C2.53555 3.74948 2.87268 3.61424 3.27648 3.61424H4.92955V3.17564C4.92955 2.32316 5.22816 1.59838 5.82538 1.0013C6.42246 0.404079 7.14724 0.105469 7.99972 0.105469C8.85221 0.105469 9.577 0.404079 10.1741 1.0013C10.7713 1.59838 11.0699 2.32316 11.0699 3.17564V3.61424H12.723C13.1267 3.61424 13.4639 3.74948 13.7344 4.01994C14.0048 4.29041 14.1401 4.62755 14.1401 5.03135V14.4778C14.1401 14.8816 14.0048 15.2187 13.7344 15.4892C13.4639 15.7597 13.1267 15.8949 12.723 15.8949H3.27648ZM3.27648 15.0177H12.723C12.858 15.0177 12.9818 14.9616 13.0942 14.8491C13.2067 14.7367 13.2629 14.6129 13.2629 14.4778V5.03135C13.2629 4.89626 13.2067 4.7725 13.0942 4.66007C12.9818 4.54765 12.858 4.49143 12.723 4.49143H11.0699V6.68442C11.0699 6.80927 11.0281 6.91359 10.9443 6.99735C10.8605 7.08112 10.7561 7.12301 10.6313 7.12301C10.5065 7.12301 10.4021 7.08112 10.3183 6.99735C10.2346 6.91359 10.1927 6.80927 10.1927 6.68442V4.49143H5.80675V6.68442C5.80675 6.80927 5.76486 6.91359 5.68109 6.99735C5.59732 7.08112 5.493 7.12301 5.36814 7.12301C5.24329 7.12301 5.13898 7.08112 5.05521 6.99735C4.97144 6.91359 4.92955 6.80927 4.92955 6.68442V4.49143H3.27648C3.14139 4.49143 3.01764 4.54765 2.90521 4.66007C2.79278 4.7725 2.73657 4.89626 2.73657 5.03135V14.4778C2.73657 14.6129 2.79278 14.7367 2.90521 14.8491C3.01764 14.9616 3.14139 15.0177 3.27648 15.0177ZM5.80675 3.61424H10.1927V3.17564C10.1927 2.55824 9.98159 2.03836 9.55938 1.616C9.137 1.19377 8.61712 0.982665 7.99972 0.982665C7.38233 0.982665 6.86244 1.19377 6.44008 1.616C6.01785 2.03836 5.80675 2.55824 5.80675 3.17564V3.61424Z" />
    </g>
    <g id="icon-login">
      <path
        d="M8.00001 7.29661C7.05716 7.29661 6.25001 6.9609 5.57858 6.28947C4.90715 5.61804 4.57144 4.81089 4.57144 3.86803C4.57144 2.92517 4.90715 2.11802 5.57858 1.4466C6.25001 0.775167 7.05716 0.439453 8.00001 0.439453C8.94288 0.439453 9.75001 0.775167 10.4214 1.4466C11.0929 2.11802 11.4286 2.92517 11.4286 3.86803C11.4286 4.81089 11.0929 5.61804 10.4214 6.28947C9.75001 6.9609 8.94288 7.29661 8.00001 7.29661ZM0 15.5607V13.6792C0 13.2074 0.137334 12.766 0.412001 12.3549C0.686859 11.944 1.05648 11.625 1.52086 11.3978C2.59934 10.8807 3.67848 10.4927 4.7583 10.234C5.83811 9.97557 6.91868 9.84632 8.00001 9.84632C9.08135 9.84632 10.1619 9.97557 11.2418 10.234C12.3216 10.4927 13.4006 10.8807 14.4791 11.3978C14.9436 11.625 15.3132 11.944 15.588 12.3549C15.8627 12.766 16 13.2074 16 13.6792V15.5607H0ZM1.14286 14.4178H14.8572V13.6792C14.8572 13.4257 14.7755 13.1875 14.612 12.9649C14.4487 12.7422 14.2228 12.5539 13.9341 12.4C12.9935 11.9445 12.0236 11.5953 11.0246 11.3529C10.0255 11.1104 9.01735 10.9892 8.00001 10.9892C6.98269 10.9892 5.97449 11.1104 4.97544 11.3529C3.97639 11.5953 3.00658 11.9445 2.06601 12.4C1.77724 12.5539 1.55125 12.7422 1.388 12.9649C1.22457 13.1875 1.14286 13.4257 1.14286 13.6792V14.4178ZM8.00001 6.15375C8.62859 6.15375 9.16668 5.92994 9.61431 5.48232C10.0619 5.03469 10.2857 4.4966 10.2857 3.86803C10.2857 3.23946 10.0619 2.70136 9.61431 2.25374C9.16668 1.80613 8.62859 1.58231 8.00001 1.58231C7.37145 1.58231 6.83334 1.80613 6.38573 2.25374C5.9381 2.70136 5.7143 3.23946 5.7143 3.86803C5.7143 4.4966 5.9381 5.03469 6.38573 5.48232C6.83334 5.92994 7.37145 6.15375 8.00001 6.15375Z" />
    </g>
    <g id="icon-close">
      <path
        d="M1.78538 15L1 14.2146L7.21459 8.00003L1 1.78538L1.78538 1L8.00003 7.21459L14.2146 1L15 1.78538L8.78538 8.00003L15 14.2146L14.2146 15L8.00003 8.78538L1.78538 15Z" />
    </g>
    <g id="icon-whatsapp">
      <path
        d="M4.46864 12.8979L5.03534 13.2283C5.98212 13.7804 7.05807 14.0752 8.18089 14.0752C11.6358 14.0752 14.4365 11.2744 14.4365 7.81954C14.4365 4.36467 11.6358 1.56391 8.18089 1.56391C4.72599 1.56391 1.92524 4.36467 1.92524 7.81954C1.92524 8.94265 2.22022 10.019 2.77263 10.966L3.10291 11.5321L2.59191 13.4101L4.46864 12.8979ZM0.364597 15.6391L1.42177 11.7539C0.747585 10.5983 0.361328 9.25406 0.361328 7.81954C0.361328 3.50093 3.86226 0 8.18089 0C12.4995 0 16.0004 3.50093 16.0004 7.81954C16.0004 12.1381 12.4995 15.6391 8.18089 15.6391C6.74687 15.6391 5.403 15.2531 4.24755 14.5793L0.364597 15.6391ZM5.35908 4.15088C5.46376 4.14352 5.56881 4.14239 5.67361 4.1475C5.71597 4.15029 5.75812 4.15518 5.8003 4.16005C5.92485 4.17443 6.06178 4.25027 6.10784 4.35465C6.3411 4.88358 6.56742 5.41554 6.78683 5.9504C6.83521 6.06846 6.80607 6.22147 6.71395 6.36956C6.66717 6.44552 6.59374 6.552 6.50868 6.66093C6.42022 6.77406 6.2299 6.98215 6.2299 6.98215C6.2299 6.98215 6.15281 7.07457 6.18186 7.1896C6.19319 7.23309 6.22932 7.29642 6.26203 7.34968C6.28018 7.37916 6.29702 7.40552 6.30793 7.42371C6.50805 7.75785 6.77706 8.09659 7.10561 8.41507C7.19976 8.50636 7.29113 8.59945 7.38932 8.68594C7.7555 9.00884 8.16978 9.27267 8.61723 9.46808L8.62123 9.46985C8.68729 9.49832 8.72123 9.5139 8.81795 9.55495C8.86675 9.57558 8.91664 9.59343 8.96784 9.60695C8.98637 9.61179 9.0054 9.61453 9.02447 9.61587C9.15091 9.62345 9.22401 9.54236 9.25521 9.50505C9.82098 8.81966 9.87273 8.77495 9.87664 8.77524V8.77651C9.951 8.69815 10.0679 8.67095 10.1722 8.67735C10.2198 8.68025 10.2672 8.68939 10.3105 8.70918C10.7264 8.89886 11.4063 9.19478 11.4063 9.19478L11.861 9.39916C11.9372 9.43592 12.0067 9.52248 12.01 9.60661C12.0121 9.65895 12.0177 9.74341 11.999 9.89789C11.9745 10.1002 11.913 10.3438 11.8518 10.4714C11.8089 10.5609 11.7532 10.6404 11.6884 10.7076C11.6006 10.7988 11.5354 10.8541 11.4298 10.9328C11.3656 10.9807 11.3323 11.0032 11.3323 11.0032C11.2236 11.0717 11.1624 11.1059 11.033 11.1748C10.8317 11.2821 10.6093 11.3437 10.3816 11.3554C10.2363 11.3628 10.0915 11.3733 9.94645 11.3655C9.94005 11.3651 9.50216 11.2979 9.50216 11.2979C8.39028 11.0054 7.36203 10.4576 6.49917 9.69781C6.32275 9.54253 6.15917 9.37448 5.99214 9.20821C5.29694 8.51613 4.77066 7.76981 4.4515 7.06387C4.29412 6.71575 4.19448 6.34291 4.19291 5.95924C4.19002 5.48467 4.3454 5.02265 4.63449 4.64627C4.69146 4.57208 4.74557 4.49512 4.83887 4.40699C4.93774 4.31364 5.0006 4.26358 5.06839 4.22888C5.1587 4.18269 5.2579 4.15798 5.35908 4.15088Z" />
    </g>
    <g id="icon-burger">
      <path
        d="M0.5 12.9399V12.0024H15.5V12.9399H0.5ZM0.5 8.46877V7.53127H15.5V8.46877H0.5ZM0.5 3.99756V3.06006H15.5V3.99756H0.5Z" />
    </g>
    <g id="payment-addi">
      <path fill-rule="evenodd" clip-rule="evenodd"
        d="M0 10.4504V7.5518C0.0128825 6.85615 0.425121 5.46484 1.97101 5.46484C3.90338 5.46484 4.05797 7.39721 4.05797 7.5518V10.4504C4.04509 10.6436 3.91111 11.0301 3.47826 11.0301C2.9372 11.0301 2.8599 10.5663 2.8599 10.4504V9.36823H1.19807V10.4504C1.18519 10.6436 1.04348 11.0301 0.57971 11.0301C0.115942 11.0301 0 10.6436 0 10.4504ZM1.15949 8.16851H2.82132V7.47286C2.82132 7.21521 2.65901 6.69991 2.00973 6.69991C1.36045 6.69991 1.17237 7.21521 1.15949 7.47286V8.16851Z" />
      <path fill-rule="evenodd" clip-rule="evenodd"
        d="M7.80643 6.77819C6.86601 6.41748 4.70509 6.31442 4.48276 8.63326C4.21225 11.4545 8.57938 11.957 8.96585 9.13571V5.61881C8.97875 5.4127 8.87314 5.00049 8.34754 5.00049C7.92239 5.00049 7.79354 5.4127 7.80643 5.61881V6.77819ZM6.7244 9.87105C7.32204 9.87105 7.80652 9.38657 7.80652 8.78893C7.80652 8.19129 7.32204 7.7068 6.7244 7.7068C6.12675 7.7068 5.64227 8.19129 5.64227 8.78893C5.64227 9.38657 6.12675 9.87105 6.7244 9.87105Z" />
      <path fill-rule="evenodd" clip-rule="evenodd"
        d="M12.6886 6.77819C11.7482 6.41748 9.58725 6.31442 9.36492 8.63326C9.09441 11.4545 13.4615 11.957 13.848 9.13571V5.61881C13.8609 5.4127 13.7553 5.00049 13.2297 5.00049C12.8046 5.00049 12.6757 5.4127 12.6886 5.61881V6.77819ZM11.6065 9.87105C12.2042 9.87105 12.6887 9.38657 12.6887 8.78893C12.6887 8.19129 12.2042 7.7068 11.6065 7.7068C11.0089 7.7068 10.5244 8.19129 10.5244 8.78893C10.5244 9.38657 11.0089 9.87105 11.6065 9.87105Z" />
      <path
        d="M14.6087 7.55195C14.6087 7.21044 14.8856 6.93359 15.2271 6.93359C15.5686 6.93359 15.8454 7.21044 15.8454 7.55195V10.4119C15.8454 10.7534 15.5686 11.0302 15.2271 11.0302C14.8856 11.0302 14.6087 10.7534 14.6087 10.4119V7.55195Z" />
      <ellipse cx="15.2271" cy="5.77295" rx="0.772947" ry="0.772947" />
    </g>
    <g id="payment-lovers">
      <path d="M2.21424 6.64014H2.20724L2.21424 6.64714V6.64014Z" />
      <path
        d="M1.89521 6.81164C1.85752 6.76984 1.82313 6.72518 1.79235 6.67806C1.73167 6.5847 1.68465 6.48314 1.65272 6.37646V8.97448H2.17214V7.03691C2.06703 6.97908 1.97322 6.90277 1.89521 6.81164Z" />
      <path
        d="M2.86327 9.26611C3.06025 9.42684 3.30717 9.51376 3.56141 9.51186C3.69977 9.51951 3.83817 9.49766 3.96744 9.44775C4.09672 9.39784 4.2139 9.32101 4.31121 9.22236C4.41327 9.12652 4.48098 8.99977 4.5039 8.86166H3.97703C3.95112 8.91375 3.91522 8.96024 3.87138 8.99849C3.78883 9.06233 3.68609 9.09437 3.58189 9.08878C3.48129 9.09204 3.3819 9.06618 3.29565 9.01432C3.22819 8.96794 3.17366 8.90514 3.13718 8.83186C3.1007 8.75858 3.08348 8.67721 3.08714 8.59543H4.53694C4.54223 8.46342 4.536 8.33121 4.51833 8.20028C4.49673 8.05332 4.4425 7.91305 4.35962 7.78978C4.27646 7.64986 4.15717 7.53491 4.01427 7.45699C3.86607 7.39311 3.70601 7.36138 3.54465 7.36391C3.41084 7.36557 3.27874 7.39425 3.15629 7.44824C3.03384 7.50223 2.92357 7.5804 2.83208 7.67807C2.73578 7.78489 2.66193 7.90998 2.61491 8.0459C2.5679 8.18182 2.54869 8.32581 2.55841 8.4693C2.54513 8.61657 2.56569 8.76492 2.61853 8.90302C2.67137 9.04113 2.75508 9.16532 2.86327 9.26611ZM3.23561 7.94383C3.27688 7.90453 3.32575 7.87406 3.37921 7.85429C3.43266 7.83452 3.4896 7.82587 3.54651 7.82887C3.65917 7.8257 3.76899 7.86451 3.85463 7.93778C3.89815 7.97782 3.93299 8.02635 3.95701 8.08039C3.98102 8.13443 3.9937 8.19281 3.99426 8.25195H3.09644C3.10795 8.13662 3.1572 8.02831 3.23654 7.94383H3.23561Z" />
      <path
        d="M5.28962 9.50555C5.42317 9.50825 5.55499 9.47497 5.67127 9.40921C5.76341 9.35512 5.84727 9.28803 5.92027 9.21001C5.92353 9.25376 5.92958 9.29378 5.93563 9.33148C5.94221 9.3702 5.95379 9.40791 5.97007 9.44365H6.5365V9.36918C6.50655 9.35545 6.48 9.33527 6.45877 9.31007C6.43756 9.26662 6.42688 9.21879 6.42759 9.17044C6.42433 9.08015 6.42433 9.00242 6.42433 8.94006V8.02456C6.43536 7.92181 6.4173 7.81802 6.3722 7.72503C6.32711 7.63204 6.25679 7.55359 6.16927 7.49863C5.98756 7.40879 5.78691 7.36393 5.58423 7.36784C5.45023 7.35962 5.31614 7.38257 5.1925 7.4349C5.06887 7.48723 4.95904 7.56751 4.87166 7.66944C4.7797 7.7939 4.72864 7.94384 4.72552 8.09856H5.22632C5.23454 8.03194 5.26023 7.96868 5.30079 7.91519C5.3354 7.88147 5.37708 7.85588 5.4228 7.84027C5.46852 7.82465 5.51715 7.8194 5.56515 7.82489C5.65162 7.81973 5.73804 7.83571 5.81695 7.87144C5.84584 7.88837 5.86934 7.91313 5.88475 7.94287C5.90015 7.9726 5.90682 8.00609 5.90398 8.03945C5.90342 8.073 5.89226 8.10551 5.87212 8.13234C5.85198 8.15917 5.82387 8.17895 5.79181 8.18886C5.72468 8.21356 5.65456 8.22921 5.5833 8.2354L5.40597 8.25728C5.24591 8.27063 5.08978 8.31389 4.94567 8.3848C4.85281 8.43787 4.77685 8.5161 4.72653 8.61047C4.67622 8.70484 4.6536 8.81151 4.66129 8.91818C4.65628 8.99993 4.66961 9.08176 4.70029 9.1577C4.73097 9.23364 4.77823 9.30176 4.83862 9.35708C4.96623 9.45915 5.12633 9.51186 5.28962 9.50555ZM5.30498 8.65615C5.38038 8.6192 5.46137 8.59498 5.54467 8.58447L5.66289 8.5626C5.7101 8.55403 5.75674 8.54253 5.80252 8.52815C5.83775 8.51598 5.87124 8.49924 5.90212 8.47835V8.67104C5.90862 8.7388 5.8984 8.80712 5.87235 8.87C5.8463 8.93289 5.80522 8.98843 5.75272 9.03175C5.66076 9.09652 5.55103 9.1313 5.43855 9.13135C5.37239 9.13374 5.30749 9.11282 5.25517 9.07224C5.22877 9.04802 5.20831 9.01803 5.19539 8.98461C5.18247 8.95119 5.17745 8.91524 5.18071 8.87955C5.17918 8.83449 5.19 8.78986 5.21198 8.75049C5.23396 8.71112 5.26581 8.6785 5.30498 8.65615Z" />
      <path d="M2.17214 9.02979H1.65272V11.6683H2.17214V9.02979Z" />
      <path
        d="M3.61256 9.65176C3.46939 9.64117 3.32572 9.66405 3.19292 9.71858C3.06011 9.7731 2.94182 9.85778 2.8474 9.96592C2.68391 10.1811 2.59539 10.4439 2.59539 10.7141C2.59539 10.9843 2.68391 11.2471 2.8474 11.4623C2.94481 11.5643 3.06472 11.6422 3.19756 11.6897C3.33041 11.7373 3.47252 11.7531 3.61256 11.7359C3.7526 11.7531 3.89471 11.7373 4.02756 11.6897C4.1604 11.6422 4.28031 11.5643 4.37772 11.4623C4.54121 11.2471 4.62972 10.9843 4.62972 10.7141C4.62972 10.4439 4.54121 10.1811 4.37772 9.96592C4.28374 9.85724 4.16552 9.77217 4.0326 9.7176C3.89969 9.66303 3.7558 9.64047 3.61256 9.65176ZM3.96116 11.1732C3.92039 11.227 3.86701 11.2699 3.80572 11.2982C3.74443 11.3264 3.67713 11.3391 3.60977 11.3352C3.5424 11.3391 3.4751 11.3264 3.41381 11.2982C3.35253 11.2699 3.29914 11.227 3.25837 11.1732C3.16849 11.0372 3.12491 10.8757 3.1341 10.7129C3.12339 10.55 3.1671 10.3881 3.25837 10.2526C3.29914 10.1989 3.35253 10.1559 3.41381 10.1277C3.4751 10.0994 3.5424 10.0867 3.60977 10.0907C3.67709 10.0871 3.74426 10.1 3.80549 10.1282C3.86671 10.1564 3.92014 10.1991 3.96116 10.2526C4.05006 10.389 4.09265 10.5504 4.08264 10.7129C4.09309 10.8755 4.05046 11.037 3.96116 11.1732Z" />
      <path
        d="M5.80687 11.1828L5.38798 9.71436H4.80527L5.52063 11.6692H6.06658L6.78845 9.71436H6.22994L5.80687 11.1828Z" />
      <path
        d="M8.72432 10.0499C8.63976 9.9205 8.51993 9.81795 8.37897 9.7544C8.23077 9.69052 8.07071 9.65879 7.90935 9.66131C7.77797 9.65641 7.64697 9.67845 7.52443 9.72608C7.40188 9.7737 7.29038 9.84591 7.19678 9.93825C7.10048 10.0451 7.02663 10.1702 6.97962 10.3061C6.9326 10.442 6.91339 10.586 6.92311 10.7295C6.90904 10.8712 6.92941 11.0142 6.98249 11.1464C7.03556 11.2786 7.11978 11.396 7.22797 11.4886C7.42496 11.6493 7.67188 11.7362 7.92611 11.7343C8.06182 11.7483 8.19894 11.733 8.32827 11.6896C8.4576 11.6462 8.57614 11.5756 8.67591 11.4825C8.77797 11.3867 8.84568 11.2599 8.8686 11.1218H8.33894C8.31303 11.1739 8.27713 11.2204 8.23329 11.2587C8.15074 11.3225 8.048 11.3545 7.94379 11.349C7.8432 11.3522 7.74381 11.3264 7.65756 11.2745C7.5901 11.2281 7.53557 11.1653 7.49909 11.092C7.46261 11.0187 7.44539 10.9374 7.44905 10.8556H8.89885C8.90414 10.7236 8.89791 10.5914 8.88024 10.4605C8.861 10.3133 8.80761 10.1727 8.72432 10.0499ZM7.46115 10.5154C7.47252 10.4001 7.5216 10.2918 7.60077 10.2073C7.64205 10.168 7.69091 10.1375 7.74437 10.1177C7.79783 10.098 7.85476 10.0893 7.91168 10.0923C8.02434 10.0891 8.13416 10.1279 8.21979 10.2012C8.26331 10.2412 8.29816 10.2898 8.32217 10.3438C8.34619 10.3979 8.35887 10.4562 8.35942 10.5154H7.46115Z" />
      <path
        d="M10.2459 9.66781C10.1089 9.66152 9.97412 9.70463 9.86615 9.78929C9.78268 9.86873 9.71133 9.95999 9.65438 10.0602V9.71109H9.15684V11.6659H9.68277V10.7504C9.67538 10.6292 9.69559 10.508 9.74188 10.3957C9.78495 10.3242 9.84785 10.2668 9.92296 10.2303C9.99806 10.1939 10.0821 10.18 10.165 10.1905C10.1858 10.1902 10.2066 10.1913 10.2273 10.1937C10.252 10.1937 10.2832 10.197 10.3144 10.1998V9.66781C10.2925 9.66781 10.2771 9.66455 10.2706 9.66455C10.2627 9.66714 10.2543 9.66824 10.2459 9.66781Z" />
      <path
        d="M11.6961 10.508C11.511 10.4751 11.3289 10.4273 11.1515 10.3652C11.1275 10.3529 11.1075 10.3342 11.0937 10.311C11.08 10.2879 11.0731 10.2613 11.0738 10.2344C11.0749 10.2094 11.082 10.1851 11.0944 10.1635C11.1069 10.1418 11.1244 10.1235 11.1455 10.1101C11.2195 10.0694 11.3037 10.051 11.388 10.057C11.4415 10.0512 11.4957 10.0577 11.5464 10.076C11.597 10.0943 11.6428 10.124 11.6803 10.1627C11.7135 10.2092 11.7329 10.2643 11.7361 10.3214H12.2555C12.2547 10.2206 12.2296 10.1215 12.1825 10.0324C12.1354 9.94331 12.0675 9.86684 11.9846 9.80944C11.7998 9.70255 11.5883 9.65072 11.3749 9.66004C11.1536 9.64558 10.9353 9.71692 10.7652 9.85924C10.6972 9.91786 10.6425 9.99041 10.6049 10.072C10.5673 10.1536 10.5477 10.2423 10.5474 10.3321C10.5432 10.3983 10.5535 10.4647 10.5776 10.5265C10.6017 10.5884 10.6391 10.6442 10.687 10.69C10.8283 10.797 10.9926 10.8693 11.1669 10.9013C11.3524 10.9378 11.5346 10.9898 11.7114 11.0568C11.7356 11.071 11.7553 11.0916 11.7685 11.1163C11.7817 11.1411 11.7879 11.1689 11.7863 11.1969C11.7847 11.2249 11.7754 11.2519 11.7595 11.2749C11.7436 11.298 11.7217 11.3162 11.6961 11.3277C11.6189 11.3622 11.5348 11.3781 11.4503 11.3742C11.3213 11.3885 11.1917 11.3516 11.0896 11.2713C11.0469 11.2145 11.022 11.1464 11.0179 11.0754H10.4888C10.4865 11.1652 10.5056 11.2542 10.5446 11.3351C10.5835 11.416 10.6411 11.4866 10.7126 11.5408C10.9124 11.6886 11.1588 11.7594 11.4066 11.74C11.6492 11.7599 11.8911 11.6936 12.0898 11.5529C12.1599 11.5021 12.2166 11.4351 12.2551 11.3576C12.2936 11.2802 12.3127 11.1945 12.3109 11.108C12.3128 11.0387 12.3002 10.9698 12.2739 10.9057C12.2476 10.8416 12.2082 10.7837 12.1582 10.7356C12.03 10.6158 11.8692 10.5366 11.6961 10.508Z" />
      <path
        d="M9.80129 7.66119C9.7395 7.56481 9.65515 7.48493 9.55555 7.42848C9.45032 7.38397 9.33701 7.36178 9.22277 7.36332C9.11533 7.36264 9.00909 7.38602 8.91186 7.43173C8.80236 7.50109 8.71234 7.5972 8.65029 7.71099V7.2074H8.61585C8.43701 7.21082 8.26353 7.14629 8.13041 7.02681V9.0747C7.90933 9.0747 7.69803 9.07795 7.69151 9.07795C7.58586 9.07795 7.52349 9.06864 7.50161 9.04677C7.47974 9.02489 7.47043 8.97509 7.47043 8.89411V7.84503H7.79623V7.43592H7.47043V6.88672C7.45786 6.89929 7.44856 6.91139 7.43599 6.92395C7.3081 7.06192 7.1389 7.15468 6.95381 7.18832V7.43592H6.67455V7.84364H6.95148V9.06958C6.94319 9.16971 6.97443 9.26912 7.03851 9.3465C7.10953 9.40076 7.19082 9.44004 7.27747 9.46196C7.36411 9.48388 7.4543 9.48799 7.54257 9.47403L7.78832 9.46472H8.64703V8.36678C8.63773 8.22702 8.67487 8.0881 8.75269 7.97163C8.78953 7.92532 8.83708 7.88867 8.89125 7.86483C8.94541 7.84099 9.00456 7.83068 9.06359 7.8348C9.11701 7.82895 9.17096 7.8391 9.21861 7.86396C9.26625 7.88882 9.30544 7.92726 9.33121 7.97442C9.37071 8.05457 9.38897 8.14351 9.38427 8.23274V9.44611H9.91626V8.27369C9.9189 8.14481 9.91268 8.01589 9.89764 7.88785C9.88646 7.80502 9.85318 7.72672 9.80129 7.66119Z" />
      <path
        d="M12.0506 7.78929C11.9674 7.64937 11.8481 7.53442 11.7052 7.45651C11.557 7.39262 11.397 7.3609 11.2356 7.36342C11.1018 7.36508 10.9697 7.39377 10.8472 7.44775C10.7248 7.50174 10.6145 7.57992 10.523 7.67758C10.4267 7.78441 10.3529 7.90949 10.3059 8.04541C10.2588 8.18133 10.2396 8.32532 10.2494 8.46881C10.2357 8.61604 10.2561 8.76443 10.309 8.90251C10.3618 9.04059 10.4458 9.16467 10.5542 9.26516C10.7512 9.42589 10.9981 9.5128 11.2524 9.5109C11.3907 9.51856 11.5291 9.49671 11.6584 9.4468C11.7877 9.39689 11.9048 9.32006 12.0022 9.22141C12.1042 9.12557 12.1719 8.99882 12.1948 8.8607H11.6652C11.6393 8.9128 11.6034 8.95929 11.5595 8.99754C11.477 9.06137 11.3742 9.09342 11.27 9.08783C11.1694 9.09108 11.0701 9.06523 10.9838 9.01336C10.9163 8.96698 10.8618 8.90419 10.8253 8.83091C10.7889 8.75762 10.7716 8.67626 10.7753 8.59448H12.2251C12.2304 8.46247 12.2242 8.33025 12.2065 8.19933C12.1872 8.05236 12.1338 7.91195 12.0506 7.78929ZM10.7907 8.25471C10.802 8.13945 10.8511 8.03115 10.9303 7.9466C10.9716 7.9073 11.0204 7.87683 11.0739 7.85706C11.1273 7.83729 11.1843 7.82864 11.2412 7.83164C11.3538 7.82847 11.4637 7.86728 11.5493 7.94055C11.5928 7.98059 11.6277 8.02912 11.6517 8.08316C11.6757 8.1372 11.6884 8.19558 11.6889 8.25471H10.7907Z" />
      <path
        d="M13.5971 7.3717H13.5724C13.4354 7.36541 13.3006 7.40851 13.1926 7.49317C13.1105 7.58744 13.0394 7.69082 12.9808 7.80129V7.41545H12.4833V9.44378H13.0092V8.49152C13.0018 8.37035 13.0221 8.24908 13.0683 8.13686C13.1114 8.06535 13.1743 8.00789 13.2494 7.97145C13.3245 7.93501 13.4086 7.92117 13.4914 7.93161C13.5123 7.93135 13.5331 7.93244 13.5538 7.93486C13.5785 7.93486 13.6096 7.93812 13.6408 7.94091V7.3717H13.5971Z" />
      <path
        d="M4.89759 6.11972C4.8902 5.99855 4.91041 5.87728 4.9567 5.76506C4.99977 5.69355 5.06267 5.63609 5.13778 5.59965C5.21288 5.56321 5.29695 5.54937 5.37978 5.55981C5.40061 5.55955 5.42145 5.56064 5.44214 5.56307C5.46681 5.56307 5.49799 5.56632 5.52918 5.56912V5.03853C5.5073 5.03853 5.49194 5.03527 5.48543 5.03527H5.46076C5.3237 5.02898 5.18894 5.07209 5.08097 5.15675C4.9975 5.23619 4.92615 5.32745 4.8692 5.42763V5.08181H4.37166V7.07291H4.89759V6.11972Z" />
      <path d="M7.28109 4.2666H6.69931L6.34791 4.81441H6.72444L7.28109 4.2666Z" />
      <path d="M10.7373 5.08203H10.2086V7.07313H10.7373V5.08203Z" />
      <path d="M10.7373 4.36279H10.2086V4.84172H10.7373V4.36279Z" />
      <path
        d="M11.3133 6.69701C11.305 6.79715 11.3362 6.89656 11.4003 6.97394C11.4713 7.0282 11.5526 7.06748 11.6393 7.0894C11.7259 7.11132 11.8161 7.11543 11.9044 7.10147L12.1501 7.09216V6.70307C12.1348 6.70307 12.1157 6.70632 12.0971 6.70632H12.0473C11.9416 6.70632 11.8792 6.69701 11.8574 6.67514C11.8355 6.65326 11.8262 6.60346 11.8262 6.52248V5.47108H12.152V5.09874H11.8262V4.54395H11.3077V5.0978H11.0331V5.47015H11.3077V6.69888L11.3133 6.69701Z" />
      <path
        d="M14.1478 5.33628C13.9439 5.1349 13.6689 5.02197 13.3824 5.02197C13.0959 5.02197 12.8209 5.1349 12.617 5.33628C12.4492 5.54778 12.3602 5.81104 12.3652 6.08096C12.3583 6.35273 12.4475 6.61823 12.617 6.83077C12.8218 7.03026 13.0965 7.1419 13.3824 7.1419C13.6683 7.1419 13.943 7.03026 14.1478 6.83077C14.3175 6.61829 14.4068 6.35279 14.4001 6.08096C14.4058 5.81084 14.3165 5.54728 14.1478 5.33628ZM13.7289 6.5436C13.6854 6.59432 13.6315 6.63504 13.5708 6.66296C13.5101 6.69088 13.4441 6.70534 13.3773 6.70534C13.3105 6.70534 13.2445 6.69088 13.1838 6.66296C13.1231 6.63504 13.0691 6.59432 13.0256 6.5436C12.9358 6.40753 12.8922 6.2461 12.9014 6.08329C12.8907 5.92032 12.9344 5.75842 13.0256 5.62298C13.0691 5.57225 13.1231 5.53153 13.1838 5.50361C13.2445 5.4757 13.3105 5.46124 13.3773 5.46124C13.4441 5.46124 13.5101 5.4757 13.5708 5.50361C13.6315 5.53153 13.6854 5.57225 13.7289 5.62298C13.8178 5.75938 13.8604 5.92079 13.8504 6.08329C13.8606 6.24475 13.8188 6.40524 13.7312 6.54127L13.7289 6.5436Z" />
      <path
        d="M3.26754 6.46644C3.21507 6.53217 3.14753 6.5843 3.07065 6.61841C2.99376 6.65252 2.9098 6.6676 2.82585 6.66238C2.73594 6.6634 2.64703 6.64339 2.56623 6.60396C2.48542 6.56452 2.41494 6.50675 2.36042 6.43526C2.22663 6.23552 2.1631 5.99695 2.17983 5.75713C2.16573 5.51215 2.22644 5.26867 2.3539 5.05898C2.405 4.98065 2.47526 4.91666 2.55801 4.87309C2.64077 4.82951 2.73328 4.80779 2.82678 4.80998C2.9092 4.80428 2.99186 4.81693 3.06881 4.84703C3.14575 4.87714 3.21505 4.92393 3.27173 4.98405C3.33851 5.07009 3.38526 5.16994 3.40856 5.27634H3.97173C3.95948 5.09536 3.89586 4.92164 3.78835 4.77554C3.67545 4.62392 3.52591 4.50344 3.35374 4.42538C3.18158 4.34731 2.99242 4.31422 2.80397 4.32919C2.65042 4.32472 2.4976 4.35196 2.35505 4.40922C2.2125 4.46648 2.0833 4.55252 1.97551 4.66197C1.84471 4.80934 1.74444 4.98119 1.68053 5.16758C1.61661 5.35397 1.59032 5.55119 1.60317 5.74782C1.59938 5.9483 1.62879 6.14803 1.6902 6.33891C1.72517 6.44497 1.77317 6.54627 1.83309 6.64051C1.86378 6.68685 1.89703 6.73145 1.93269 6.77409C2.01083 6.86472 2.10463 6.94055 2.20962 6.99796C2.40164 7.10117 2.61722 7.15266 2.83516 7.14736C3.11564 7.15778 3.38912 7.05843 3.59753 6.87043C3.79927 6.68117 3.93059 6.42888 3.96987 6.15507H3.41136C3.38556 6.26772 3.33658 6.37376 3.26754 6.46644Z" />
      <path
        d="M7.6347 5.82813C7.6131 5.68116 7.55887 5.5409 7.47599 5.41762C7.39143 5.28818 7.27159 5.18563 7.13064 5.12208C6.98244 5.05819 6.82238 5.02647 6.66102 5.02899C6.52964 5.02409 6.39864 5.04613 6.27609 5.09375C6.15355 5.14138 6.04205 5.21358 5.94845 5.30592C5.85215 5.41274 5.7783 5.53783 5.73129 5.67375C5.68427 5.80967 5.66506 5.95365 5.67478 6.09715C5.66115 6.24437 5.68155 6.39276 5.73441 6.53085C5.78727 6.66893 5.87118 6.79301 5.97964 6.89349C6.17663 7.05422 6.42355 7.14114 6.67778 7.13924C6.76756 7.13933 6.85715 7.13107 6.9454 7.11457C7.13024 7.08021 7.29922 6.98757 7.42758 6.85021C7.44015 6.83764 7.44946 6.82554 7.46202 6.81298C7.54586 6.72439 7.60115 6.61267 7.62074 6.4923H7.09108C7.06517 6.54439 7.02927 6.59088 6.98543 6.62913C6.90287 6.69297 6.80013 6.72501 6.69593 6.71942C6.59534 6.72268 6.49595 6.69682 6.40969 6.64496C6.34224 6.59858 6.2877 6.53579 6.25122 6.4625C6.21474 6.38922 6.19752 6.30785 6.20118 6.22607H7.65099C7.6552 6.0932 7.64975 5.96021 7.6347 5.82813ZM6.21282 5.87793C6.22419 5.76266 6.27327 5.65436 6.35244 5.56982C6.39372 5.53051 6.44258 5.50004 6.49604 5.48028C6.5495 5.46051 6.60643 5.45186 6.66335 5.45486C6.77601 5.45168 6.88583 5.4905 6.97146 5.56377C7.01498 5.6038 7.04983 5.65234 7.07384 5.70637C7.09786 5.76041 7.11054 5.8188 7.11109 5.87793H6.21328H6.21282Z" />
      <path
        d="M8.93583 5.22503C9.02451 5.27436 9.09855 5.34631 9.15039 5.43355V4.5376H9.6484V7.07325H9.17227V6.81214C9.11734 6.91439 9.03416 6.99867 8.93266 7.05495C8.83116 7.11124 8.71561 7.13714 8.59979 7.12957C8.49316 7.13021 8.3878 7.10643 8.2918 7.06004C8.19579 7.01365 8.11168 6.94589 8.04593 6.86194C7.89085 6.66838 7.8113 6.4251 7.82206 6.1773C7.8072 5.90749 7.88523 5.64072 8.04314 5.42145C8.11291 5.33202 8.20281 5.26032 8.30552 5.2122C8.40824 5.16408 8.52086 5.14089 8.63423 5.14452C8.73965 5.14757 8.84291 5.17514 8.93583 5.22503ZM9.0573 6.56267C9.13412 6.44337 9.17216 6.30324 9.16622 6.16148C9.17515 6.07142 9.16401 5.98051 9.13359 5.89528C9.10317 5.81005 9.05422 5.73263 8.99028 5.66859C8.92096 5.60933 8.83248 5.57724 8.74128 5.57829C8.67867 5.57409 8.6161 5.58693 8.5602 5.61545C8.50431 5.64397 8.45719 5.6871 8.42386 5.74026C8.35286 5.86286 8.31831 6.00317 8.32426 6.14472C8.31691 6.2914 8.35267 6.43701 8.42712 6.5636C8.46081 6.61445 8.50725 6.65557 8.56181 6.68285C8.61637 6.71013 8.67713 6.72261 8.73802 6.71906C8.80002 6.72173 8.8617 6.70887 8.91746 6.68164C8.97322 6.65441 9.02129 6.61321 9.0573 6.56267Z" />
    </g>
    <g id="payment-nequi">
      <path
        d="M6.88455 14.8255L0.779761 6.43657C0.156961 5.58075 0.43638 4.37175 1.37155 3.876L8.4282 0.135122C8.89716 -0.113483 9.47504 -0.01199 9.83122 0.381533L15.7001 6.8657C16.1047 7.31275 16.0993 7.9953 15.6875 8.43583L9.56202 14.9897C8.81598 15.7879 7.52743 15.7089 6.88455 14.8255Z" />
      <path opacity="0.7"
        d="M4.6959 0.891189L0.304267 7.30973C-0.285755 8.17207 0.0121656 9.35631 0.940004 9.83679L10.5282 14.8021C11.38 15.2432 12.4218 14.7871 12.6755 13.8619L15.0422 5.22749C15.1974 4.66152 14.9053 4.06885 14.3619 3.84713L6.09118 0.472294C5.58547 0.265942 5.00432 0.440416 4.6959 0.891189Z" />

    </g>
    <g id="payment-pse">
      <path fill-rule="evenodd" clip-rule="evenodd"
        d="M8 16C12.4183 16 16 12.4183 16 8C16 3.58172 12.4183 0 8 0C4.07753 0 0.814404 2.82296 0.131434 6.54805C0.159741 6.50254 0.20357 6.46967 0.256025 6.46967H1.76848L2.42946 7.2932H4.34415C4.44986 7.2932 4.53556 7.38532 4.53556 7.49896C4.53556 7.6126 4.44986 7.70472 4.34415 7.70472H3.40905C3.37386 7.77102 3.3375 7.83431 3.31191 7.87886L3.31189 7.8789L3.31188 7.87892L3.31187 7.87894L3.31185 7.87897L3.31184 7.87898L3.31183 7.87901C3.29861 7.90201 3.28828 7.92 3.28248 7.9308L2.74139 8.93752H1.80802L1.80619 8.93751C1.73518 9.06107 1.60188 9.14428 1.44914 9.14428C1.22186 9.14428 1.03762 8.96003 1.03762 8.73275C1.03762 8.50548 1.22186 8.32123 1.44914 8.32123C1.64054 8.32123 1.80142 8.4519 1.84744 8.62889H2.55899L3.0376 7.70472H0.611737C0.506027 7.70472 0.420332 7.6126 0.420332 7.49896C0.420332 7.38532 0.506027 7.2932 0.611737 7.2932H1.99502L1.6074 6.81024H0.178574C0.11717 6.81024 0.101177 6.78916 0.0974132 6.7479C0.0332911 7.15585 0 7.57404 0 8C0 12.4183 3.58172 16 8 16ZM5.19117 7.13788C5.21053 7.00943 5.27193 6.81427 5.38737 6.65605C5.50024 6.50135 5.65202 6.39648 5.86102 6.39648H6.96888C7.07288 6.40307 7.21916 6.43729 7.32651 6.50974C7.42389 6.57545 7.49116 6.671 7.46615 6.83688C7.39668 7.29776 7.20584 8.20958 7.11515 8.6259C7.07649 8.71153 6.99458 8.8404 6.87298 8.94791C6.7469 9.05937 6.58788 9.13995 6.39547 9.13995H5.30159C5.18681 9.11324 4.96997 9.01562 4.8679 8.82354L5.19069 7.14105L5.19117 7.13788ZM5.24679 9.47427C5.13904 9.45366 4.95122 9.38837 4.78502 9.25552L4.47749 10.8584C4.45989 10.9502 4.36715 11.011 4.27035 10.9943C4.17354 10.9777 4.10934 10.8898 4.12694 10.798L4.83896 7.08683C4.86464 6.91987 4.9413 6.67373 5.09431 6.46402C5.25089 6.2494 5.49994 6.05882 5.86102 6.05882H6.97969L6.98491 6.05911C7.13303 6.06737 7.35348 6.11342 7.53318 6.23469C7.70797 6.35264 7.84038 6.54136 7.82678 6.80696C7.88028 6.52164 8.04813 6.33372 8.24209 6.2187C8.45217 6.09413 8.68508 6.05882 8.82128 6.05882H10.5332C10.6302 6.05882 10.7088 6.12986 10.7088 6.21748C10.7088 6.30511 10.6302 6.37614 10.5332 6.37614H8.82128C8.738 6.37614 8.57586 6.40033 8.43476 6.484C8.30229 6.56255 8.18052 6.69718 8.16246 6.942C8.14837 7.13295 8.21997 7.24937 8.30445 7.32294C8.39063 7.39801 8.4992 7.43556 8.5717 7.44709H9.6553C9.80301 7.44709 10.0116 7.49622 10.1851 7.63925C10.3641 7.78672 10.4893 8.02023 10.4893 8.35938C10.4893 8.72438 10.2812 8.97084 10.034 9.12313C9.79315 9.27153 9.50992 9.33543 9.31935 9.35041L9.31176 9.351H7.5922C7.49523 9.351 7.41662 9.27997 7.41662 9.19235C7.41662 9.10472 7.49523 9.03369 7.5922 9.03369H9.29617C9.44214 9.02112 9.6594 8.96988 9.83623 8.86094C10.0097 8.75409 10.1382 8.59729 10.1382 8.35938C10.1382 8.09563 10.0439 7.95233 9.94851 7.87371C9.84772 7.79065 9.72707 7.76441 9.6553 7.76441H8.54543L8.53308 7.76282C8.40038 7.74569 8.21296 7.68398 8.06075 7.55141C7.90488 7.41566 7.79463 7.21258 7.81116 6.93458C7.73354 7.42609 7.54659 8.31634 7.46067 8.70988L7.45748 8.7245L7.45162 8.73837C7.39849 8.86424 7.28651 9.04409 7.11601 9.19482C6.9437 9.34715 6.70187 9.47761 6.39547 9.47761H5.26424L5.24679 9.47427ZM11.2641 7.58447C11.3083 7.35902 11.3472 7.15674 11.3721 7.02469C11.4189 6.91282 11.5132 6.74848 11.6455 6.61284C11.7841 6.47084 11.9441 6.38001 12.1184 6.38001H13.233C13.3183 6.39828 13.4366 6.44332 13.5252 6.51777C13.6125 6.59104 13.6704 6.69016 13.6458 6.83738C13.5938 7.14854 13.5386 7.41917 13.5023 7.58447H11.2641ZM13.5039 7.90566H11.2004C11.1557 8.12826 11.1096 8.35261 11.0691 8.53938C11.0289 8.72467 11.0917 8.83225 11.1734 8.90188C11.262 8.97736 11.3862 9.01765 11.4764 9.02982H13.3387C13.435 9.02982 13.513 9.10172 13.513 9.19041C13.513 9.2791 13.435 9.351 13.3387 9.351H11.4539L11.4431 9.34976C11.3015 9.33346 11.0961 9.27352 10.9367 9.13768C10.7671 8.99318 10.6629 8.77288 10.7272 8.47639C10.7752 8.25521 10.8314 7.97954 10.8837 7.71615C10.9447 7.40926 11.0003 7.11997 11.0315 6.95473L11.0342 6.94038L11.0396 6.92672C11.0966 6.78429 11.2137 6.57493 11.3863 6.39811C11.5579 6.22227 11.8046 6.05882 12.1184 6.05882H13.2688L13.2857 6.06194C13.4175 6.08623 13.6081 6.15275 13.7601 6.2804C13.9191 6.41389 14.0355 6.61589 13.9904 6.88621C13.9372 7.20483 13.8806 7.48177 13.8434 7.65098C13.8103 7.80117 13.6668 7.90566 13.5039 7.90566ZM2.47754 6.05788C2.70482 6.05788 2.88906 5.87363 2.88906 5.64636C2.88906 5.41908 2.70482 5.23483 2.47754 5.23483C2.25026 5.23483 2.06602 5.41908 2.06602 5.64636C2.06602 5.87363 2.25026 6.05788 2.47754 6.05788ZM0.831854 10.1714C1.05913 10.1714 1.24338 9.98715 1.24338 9.75987C1.24338 9.53259 1.05913 9.34835 0.831854 9.34835C0.604577 9.34835 0.420332 9.53259 0.420332 9.75987C0.420332 9.98715 0.604577 10.1714 0.831854 10.1714ZM2.88906 9.75987C2.88906 9.98715 2.70482 10.1714 2.47754 10.1714C2.25026 10.1714 2.06602 9.98715 2.06602 9.75987C2.06602 9.53259 2.25026 9.34835 2.47754 9.34835C2.70482 9.34835 2.88906 9.53259 2.88906 9.75987ZM1.6553 11.4062C1.88258 11.4062 2.06683 11.222 2.06683 10.9947C2.06683 10.7674 1.88258 10.5832 1.6553 10.5832C1.42803 10.5832 1.24378 10.7674 1.24378 10.9947C1.24378 11.222 1.42803 11.4062 1.6553 11.4062ZM2.06683 4.41152C2.06683 4.6388 1.88258 4.82305 1.6553 4.82305C1.42803 4.82305 1.24378 4.6388 1.24378 4.41152C1.24378 4.18425 1.42803 4 1.6553 4C1.88258 4 2.06683 4.18425 2.06683 4.41152ZM0.831854 6.05788C1.05913 6.05788 1.24338 5.87363 1.24338 5.64636C1.24338 5.41908 1.05913 5.23483 0.831854 5.23483C0.604577 5.23483 0.420332 5.41908 0.420332 5.64636C0.420332 5.87363 0.604577 6.05788 0.831854 6.05788Z" />
    </g>
    <g id="payment-visa">
      <path
        d="M14.8143 10.0988L14.6649 9.34865H12.9887L12.7225 10.0932L11.3785 10.0961C12.2422 8.02085 12.8831 6.48359 13.3013 5.4843C13.4106 5.22333 13.6048 5.09021 13.8909 5.09224C14.1092 5.09388 14.4661 5.09408 14.9614 5.09287L16 10.0965L14.8143 10.0988ZM13.3657 8.32112H14.4461L14.0428 6.44119L13.3657 8.32112ZM4.70713 5.09105L6.05802 5.09281L3.96999 10.0988L2.60245 10.0983C2.14009 8.31299 1.80056 6.98939 1.58387 6.1274C1.51744 5.86312 1.38531 5.67857 1.13135 5.59129C0.904907 5.51346 0.527789 5.39312 0 5.23027V5.09287C0.98682 5.09275 1.70614 5.09275 2.15796 5.09287C2.5316 5.09298 2.74941 5.27335 2.81948 5.64369C2.88982 6.01559 3.06751 6.96099 3.35256 8.47979L4.70713 5.09105ZM7.91347 5.09281L6.84633 10.0983L5.56072 10.0965C5.58609 9.97485 5.94135 8.30639 6.62648 5.09105L7.91347 5.09281ZM10.521 5C10.9052 5 11.3897 5.11939 11.669 5.23027L11.4435 6.26799C11.1914 6.16674 10.7771 6.02986 10.4283 6.03521C9.92087 6.043 9.6078 6.25592 9.6078 6.46025C9.6078 6.79192 10.1518 6.95899 10.7121 7.32192C11.351 7.73572 11.4354 8.10659 11.4275 8.51032C11.4185 9.34745 10.7121 10.1733 9.22147 10.1733C8.54073 10.1631 8.29627 10.106 7.74147 9.90919L7.9758 8.82625C8.5404 9.06272 8.77987 9.13792 9.26233 9.13792C9.7046 9.13792 10.0842 8.95919 10.0875 8.64785C10.0898 8.42645 9.9544 8.31692 9.45807 8.04305C8.9618 7.76919 8.26627 7.39059 8.2752 6.62865C8.28667 5.65375 9.21 5 10.521 5Z" />
    </g>
    <g id="payment-master">
      <path fill-rule="evenodd" clip-rule="evenodd"
        d="M0 3.66651C0 3.11422 0.447715 2.6665 1 2.6665H15C15.5523 2.6665 16 3.11422 16 3.6665V12.3332C16 12.8855 15.5523 13.3332 15 13.3332H1C0.447715 13.3332 0 12.8855 0 12.3332V3.66651ZM7.86433 4.98999C6.21874 6.08866 5.67587 8.81082 7.82349 10.7235C7.31559 11.0962 6.71755 11.3286 6.08974 11.396C5.42278 11.4676 4.74915 11.3501 4.14582 11.0569C3.54249 10.7637 3.03381 10.3067 2.67794 9.73814C2.32206 9.16955 2.13333 8.5123 2.13333 7.84151C2.13333 7.17073 2.32206 6.51348 2.67794 5.94488C3.03381 5.37628 3.54249 4.91928 4.14582 4.62611C4.74915 4.33295 5.42278 4.21544 6.08974 4.28703C6.73446 4.35623 7.34778 4.59942 7.86433 4.98999ZM7.98274 4.98068L7.99169 4.98769C9.21644 5.94745 9.55965 7.11707 9.41798 8.18469C9.27947 9.22854 8.67865 10.1688 8.00466 10.7184C8.51398 11.0941 9.11451 11.3282 9.74507 11.3959C10.412 11.4675 11.0856 11.35 11.689 11.0568C12.2923 10.7636 12.8009 10.3066 13.1568 9.73803C13.5127 9.16943 13.7014 8.51218 13.7013 7.8414C13.7014 7.17063 13.5127 6.51338 13.1568 5.94478C12.8009 5.37619 12.2923 4.91919 11.689 4.62602C11.0856 4.33285 10.412 4.21534 9.74507 4.28692C9.10544 4.35557 8.49671 4.59549 7.98274 4.98068ZM13.3603 10.0568V9.94174H13.4067V9.91829H13.2885V9.94174H13.3349V10.0568H13.3603ZM13.5641 10.0568H13.5897V9.91807H13.5535L13.5118 10.0135L13.4701 9.91807H13.4339V10.0568H13.4595V9.95216L13.4985 10.0424H13.5251L13.5641 9.95193V10.0568ZM7.91288 10.5348C5.93602 8.73166 6.4385 6.23053 7.92537 5.1905C9.04711 6.09699 9.34998 7.17675 9.21972 8.15838C9.09084 9.12969 8.53671 10.0108 7.91288 10.5348Z" />
    </g>
    <g id="icon-industria">
      <path fill-rule="evenodd" clip-rule="evenodd"
        d="M0.591014 8.76291L0.591014 7.29432L1.59584 7.2943V9.13971C1.59584 9.13971 2.46541 9.13971 2.89053 8.48272C1.48956 8.48272 1.50889 6.62765 2.88087 6.65663C1.29633 4.85954 -1.12879 7.14939 0.591014 8.76291ZM1.08377 7.20736C1.35057 7.20736 1.56686 7.00405 1.56686 6.75326C1.56686 6.50246 1.35057 6.29915 1.08377 6.29915C0.816964 6.29915 0.600676 6.50246 0.600676 6.75326C0.600676 7.00405 0.816964 7.20736 1.08377 7.20736Z"
        fill="black" />
      <path
        d="M3.60868 7.79712H15.9952L16 7.80195V7.85992L15.9662 7.86475H3.60868L3.60385 7.85992V7.80195L3.60868 7.79712Z"
        fill="black" />
      <path
        d="M12.5266 6.79712H12.5846L12.6377 6.81161L12.6763 6.8406L12.7053 6.87441L12.7198 6.9034L12.7536 6.87441L12.7923 6.8406L12.8551 6.80678L12.9034 6.79712H12.9517L13.0048 6.81161L13.0338 6.83094L13.0676 6.86958L13.087 6.91306L13.0966 6.99519L13.1015 7.36234L13.1111 7.39615L13.1594 7.41548L13.1643 7.42031V7.44446L13.0821 7.44929H12.8503L12.8406 7.44446V7.42031L12.8599 7.40581L12.8841 7.39132L12.8986 7.372V6.94205L12.8792 6.9034L12.8599 6.89374H12.8309L12.7875 6.91789L12.7633 6.93722L12.7391 6.97103V7.372L12.7536 7.39615L12.7971 7.41548L12.8019 7.42031V7.44446L12.7923 7.44929H12.4928L12.4783 7.44446L12.4831 7.41548L12.5266 7.39132L12.5362 7.37683V6.94688L12.5218 6.91306L12.5073 6.89857L12.4638 6.89374L12.4251 6.91306L12.3913 6.94688L12.3768 6.9662L12.372 7.01451V7.34301L12.3768 7.38166L12.3865 7.40098L12.4348 7.41548L12.4396 7.44446L12.4348 7.44929L12.1111 7.44446L12.116 7.41548L12.1643 7.39132L12.1691 7.38166L12.1739 7.3092V6.97103L12.1691 6.87924L12.1594 6.86475L12.116 6.85026L12.1063 6.8261L12.116 6.81644H12.3672L12.372 6.83094V6.88891L12.4251 6.8406L12.4734 6.81161L12.5266 6.79712Z"
        fill="black" />
      <path
        d="M5.24637 6.53613H5.52173L5.52656 6.54096V7.05787L5.53139 7.3429L5.54589 7.36705L5.59903 7.38637L5.60386 7.4057L5.56038 7.42019L5.33816 7.46367L5.33333 7.45884L5.33816 7.37188L5.28502 7.41536L5.2512 7.44435L5.20289 7.46367H5.14009L5.08695 7.44918L5.0483 7.42985L4.99999 7.38637L4.97101 7.3429L4.94202 7.28009L4.9227 7.19314V7.09169L4.93719 7.01439L4.96135 6.94676L4.99999 6.88396L5.03864 6.84531L5.08695 6.81633L5.13043 6.80183L5.16424 6.797H5.20772L5.27053 6.81633L5.31883 6.8598L5.33333 6.86947L5.3285 6.61826L5.31883 6.5941L5.29468 6.57961L5.24637 6.56995L5.24154 6.56512V6.54096L5.24637 6.53613ZM5.19806 6.86947L5.16908 6.88879L5.14492 6.92744L5.13043 6.97575L5.12077 7.04821V7.16898L5.13043 7.25594L5.14975 7.31874L5.18357 7.36705L5.20289 7.37671H5.24154L5.28019 7.35256L5.30434 7.3284L5.33333 7.29459V6.96125L5.30434 6.91778L5.27053 6.88396L5.23671 6.86947H5.19806Z"
        fill="black" />
      <path
        d="M11.2947 6.51196L11.3092 6.51679V6.8308L11.3044 6.8453L11.285 6.83563L11.2657 6.79699L11.2367 6.73419L11.2077 6.68588L11.1643 6.6424L11.1063 6.60858L11.0628 6.59409L11.0387 6.58926H10.942L10.8792 6.60858L10.8213 6.6424L10.7778 6.68588L10.7488 6.73419L10.7295 6.77766L10.7101 6.85013L10.7005 6.91293V7.05786L10.715 7.14964L10.7343 7.22211L10.773 7.2994L10.8164 7.34288L10.8647 7.37187L10.942 7.39119H11.0338L11.1063 7.37187L11.1643 7.34288L11.2222 7.2994L11.256 7.27042L11.2657 7.25109H11.2754V7.24143L11.2947 7.2366V7.30423L11.2657 7.34288L11.2464 7.35254V7.3622L11.1739 7.41051L11.1208 7.43467L11.058 7.45399L11.0097 7.46365H10.8696L10.773 7.44433L10.7005 7.41534L10.6473 7.38636L10.6039 7.35254L10.5556 7.30906L10.5073 7.24143L10.4734 7.16414L10.4541 7.08684L10.4493 7.04819V6.9709L10.4638 6.88877L10.4879 6.81148L10.5314 6.73419L10.5701 6.68588L10.599 6.65206L10.6522 6.60858L10.715 6.56993L10.7681 6.54578L10.8358 6.52646L10.9082 6.51679H10.9855L11.0531 6.52646L11.1498 6.55544L11.2222 6.5796L11.2464 6.57476L11.2705 6.53612L11.2947 6.51196Z"
        fill="black" />
      <path
        d="M4.57489 6.79712H4.6232L4.66668 6.80678L4.71016 6.83577L4.74397 6.87924L4.7633 6.93722L4.76813 7.00968L4.77296 7.36717L4.78262 7.39615L4.83093 7.41548L4.83576 7.42031V7.44446H4.51692L4.51209 7.4348L4.52658 7.41065L4.5604 7.39132L4.57006 7.372V6.94205L4.55557 6.91306L4.53624 6.89857H4.50243L4.46378 6.91789L4.42996 6.95654L4.42513 6.9662V7.39132L4.44929 7.40098L4.47827 7.42031L4.4831 7.43963L4.46861 7.44929H4.24156L4.15943 7.44446L4.1546 7.4348L4.17393 7.41065L4.21257 7.38649L4.2174 7.38166L4.22223 7.34784V6.92272L4.2174 6.86958L4.19325 6.85992L4.16426 6.84543L4.1546 6.82127L4.15943 6.81644H4.41547L4.4203 6.8406V6.88891L4.45895 6.85026L4.51209 6.81644L4.55074 6.80195L4.57489 6.79712Z"
        fill="black" />
      <path
        d="M5.67149 6.81641H5.9227L5.92753 6.82124L5.93236 7.31399L5.94685 7.34781L5.971 7.3623H6.00482L6.0483 7.32848L6.08212 7.28984V6.90336L6.07728 6.86955L6.02898 6.85022L6.01448 6.8309V6.82124L6.02414 6.81641H6.27535L6.28018 6.82124L6.28501 7.37196L6.29468 7.39612L6.34299 7.41544L6.34782 7.43959L6.34299 7.44443H6.09178L6.08695 7.43959V7.37196L6.0483 7.40578L5.99516 7.44443L5.93236 7.46375H5.87922L5.82608 7.44443L5.78743 7.41544L5.75844 7.37196L5.74395 7.32848L5.73912 7.29467L5.73429 6.99032L5.72946 6.87921L5.7198 6.86472L5.67149 6.84539L5.66666 6.82124L5.67149 6.81641Z"
        fill="black" />
      <path
        d="M8.68115 6.79712H8.74395L8.81158 6.81161L8.86472 6.8406L8.89854 6.87441L8.92269 6.91789L8.92752 6.94205L8.93235 7.28021L8.93718 7.36234L8.971 7.35267L8.99516 7.33818H9.01448L9.00965 7.36717L8.96617 7.41548L8.91786 7.44446L8.86955 7.45412L8.81641 7.44929L8.78259 7.42997L8.74878 7.39132L8.73912 7.36234L8.66665 7.41065L8.59902 7.44446L8.55554 7.45412H8.51689L8.47342 7.43963L8.43477 7.40098L8.41544 7.36234L8.41061 7.34301V7.3092L8.42994 7.25123L8.46375 7.20775L8.50723 7.1691L8.59419 7.11596L8.68598 7.06765L8.73429 7.0435V6.92272L8.71979 6.88408L8.69564 6.86475L8.68598 6.85992H8.62801L8.58453 6.87924L8.57487 6.9034L8.61351 6.96137L8.61834 6.97586V7.01451L8.59902 7.0435L8.57003 7.06282L8.55554 7.06765H8.49757L8.44926 7.0435L8.42511 7.00485V6.95654L8.45409 6.89857L8.49274 6.85992L8.55071 6.8261L8.60868 6.80678L8.68115 6.79712ZM8.72462 7.10147L8.67148 7.14495L8.62801 7.18842L8.60385 7.23673L8.59902 7.27538L8.61351 7.3092L8.6425 7.33335L8.67148 7.33818L8.73912 7.30437V7.10147H8.72462Z"
        fill="black" />
      <path
        d="M3.61353 6.53613H4.08213L4.0918 6.55546L4.08696 6.56512L4.0145 6.57478L3.98068 6.58927L3.96619 6.6086L3.96136 6.72454V7.33807L3.96619 7.37188L3.97102 7.38637L3.99035 7.39604L4.0145 7.4057L4.08213 7.41536L4.0918 7.43951L4.0773 7.44918H3.6232L3.6087 7.43951L3.61353 7.41053L3.67634 7.4057L3.71015 7.39121L3.72465 7.37671L3.72948 7.35256V6.62792L3.71981 6.59893L3.70532 6.58444L3.67151 6.57478L3.61353 6.56512L3.6087 6.54096L3.61353 6.53613Z"
        fill="black" />
      <path
        d="M15.686 6.79712L15.7633 6.80195L15.8116 6.81644L15.8696 6.84543L15.9275 6.89857L15.9662 6.96137L15.9903 7.03383L16 7.10147V7.15461L15.9903 7.2319L15.9662 7.30437L15.9324 7.35751L15.913 7.38166H15.9034V7.39132L15.8406 7.4348L15.7681 7.45895L15.7343 7.46379H15.6763L15.6039 7.44929L15.5459 7.42031L15.4976 7.37683L15.4638 7.33335L15.4299 7.26572L15.4154 7.20775L15.4106 7.1691V7.09664L15.4251 7.01934L15.4541 6.94688L15.5024 6.87924L15.541 6.84543L15.5894 6.81644L15.6425 6.80195L15.686 6.79712ZM15.6908 6.85026L15.6522 6.86958L15.6328 6.89857L15.6232 6.93238L15.6135 7.01451V7.28504L15.628 7.35267L15.6473 7.38649L15.6715 7.40581L15.7198 7.41065L15.7584 7.39132L15.7826 7.35267L15.7923 7.2947L15.7971 7.22224V6.99036L15.7874 6.92272L15.7633 6.87441L15.7391 6.85509L15.6908 6.85026Z"
        fill="black" />
      <path
        d="M11.7053 6.79712L11.7826 6.80195L11.8406 6.82127L11.8986 6.85509L11.9227 6.87441V6.88408H11.9324L11.9759 6.94688L12.0048 7.01934L12.0145 7.06282L12.0193 7.14495L12.0097 7.22707L11.9952 7.27538L11.9662 7.33335L11.9275 7.38166L11.8744 7.42514L11.8213 7.44929L11.7488 7.46379H11.7005L11.6329 7.45412L11.5894 7.4348L11.5411 7.40581L11.5024 7.36234L11.4638 7.29953L11.4396 7.23673L11.43 7.19325V7.07731L11.4493 7.00002L11.4879 6.92272L11.5217 6.87924L11.5556 6.84543L11.6039 6.81644L11.657 6.80195L11.7053 6.79712ZM11.7102 6.85026L11.6763 6.86475L11.6522 6.89374L11.6377 6.94205L11.628 7.03867V7.26572L11.6377 7.33335L11.657 7.37683L11.6812 7.40098L11.7053 7.41065H11.7391L11.7778 7.39132L11.8019 7.34301L11.8116 7.26089L11.8164 7.13528V7.04833L11.8116 6.96137L11.7971 6.9034L11.773 6.86475L11.7391 6.85026H11.7102Z"
        fill="black" />
      <path
        d="M9.39131 6.81641H9.71982L9.71499 6.84539L9.66668 6.86955L9.67151 6.91302L9.71016 7.01447L9.77779 7.16906L9.79711 7.21254L9.81644 7.16906L9.87924 7.00481L9.90339 6.92269V6.87921L9.8889 6.86472L9.84542 6.85022L9.83576 6.84056V6.81641H10.0435L10.0483 6.83573L10.0338 6.85022L10.0048 6.86472L9.98552 6.88887L9.93721 7.00481L9.78262 7.40095L9.72948 7.53621L9.67634 7.65216L9.64252 7.69563L9.61354 7.71979L9.58455 7.73428L9.55557 7.73911H9.51692L9.47827 7.72945L9.44929 7.71013L9.42513 7.68114L9.41064 7.64732V7.60385L9.42996 7.5652L9.45895 7.54104L9.47344 7.53621H9.51209L9.55074 7.55554L9.57006 7.58935L9.57972 7.65699H9.60388L9.64252 7.61351L9.67634 7.54104L9.69566 7.4879L9.69083 7.43959L9.63286 7.30433L9.59904 7.23187L9.51209 7.0338L9.45412 6.90819L9.4203 6.86472L9.39131 6.84539L9.38165 6.83573V6.82124L9.39131 6.81641Z"
        fill="black" />
      <path
        d="M10.7488 8.06274H10.8647L10.9275 8.17869L10.9855 8.28497L11.058 8.42023L11.0773 8.45405V8.26564L11.0821 8.06274H11.1884V8.6811H11.0773L11.058 8.65695L11 8.5555L10.9324 8.42506L10.8889 8.34777L10.8599 8.29946V8.67627L10.8551 8.6811H10.7488V8.06274Z"
        fill="black" />
      <path
        d="M8.314 8.06274H8.42028L8.44444 8.10139L8.50724 8.21733L8.57004 8.32844L8.60869 8.39608L8.63768 8.44922V8.12555L8.64251 8.06274H8.74396L8.74879 8.06758V8.67627L8.74396 8.6811H8.63768L8.60386 8.63279L8.53623 8.50719L8.48792 8.42023L8.42512 8.30912L8.42028 8.29946V8.66661L8.41545 8.6811H8.314L8.30917 8.67627V8.06758L8.314 8.06274Z"
        fill="black" />
      <path
        d="M6.93719 8.06274H7.2029L7.28019 8.07241L7.32367 8.09173L7.34782 8.11588L7.37198 8.15453L7.38647 8.19801V8.28014L7.37198 8.32361L7.33333 8.37675L7.27536 8.40574L7.25604 8.41057L7.30918 8.46371L7.35748 8.541L7.41546 8.64729L7.42995 8.67144V8.6811L7.40579 8.68593L7.29951 8.6811L7.28019 8.65695L7.21739 8.5555L7.16425 8.46854L7.14009 8.44439L7.1256 8.43472L7.05314 8.42506V8.6811H6.93719V8.06274ZM7.05314 8.17386V8.32361H7.20773L7.24637 8.30912L7.2657 8.28497L7.27053 8.26564V8.227L7.2512 8.18835L7.22705 8.17386H7.05314Z"
        fill="black" />
      <path
        d="M13.5072 6.79712H13.5459L13.6135 6.81161L13.6667 6.84543L13.7101 6.88891L13.7488 6.9662L13.7681 7.03867L13.7729 7.1063L13.7681 7.11113H13.4299L13.4493 7.20292L13.4734 7.26572L13.5024 7.30437L13.5411 7.33818L13.5942 7.35267L13.6377 7.34784L13.686 7.32369L13.7343 7.27055L13.744 7.25606H13.7681V7.28504L13.744 7.32852L13.7053 7.37683L13.6618 7.42031L13.5942 7.45412L13.5507 7.46379H13.4831L13.4203 7.44929L13.372 7.42514L13.3237 7.38166L13.2898 7.33335L13.2609 7.26572L13.2464 7.19325V7.09181L13.2609 7.01934L13.285 6.96137L13.314 6.91306L13.3575 6.86475L13.401 6.83094L13.4541 6.80678L13.5072 6.79712ZM13.5169 6.84543L13.4879 6.85509L13.4638 6.87924L13.4444 6.91789L13.4299 6.97103L13.4251 7.00968V7.05799L13.4493 7.06282H13.5942L13.6039 7.05799V7.00002L13.5942 6.91789L13.5749 6.87441L13.5507 6.85026L13.5169 6.84543Z"
        fill="black" />
      <path
        d="M13.2802 8.06274H13.3865L13.4444 8.16419L13.5121 8.2898L13.5797 8.41057L13.6039 8.45405V8.19318L13.6087 8.06274H13.7101L13.715 8.06758V8.67627L13.7101 8.6811H13.6039L13.5845 8.65695L13.5169 8.53617L13.4541 8.42506L13.3913 8.30912L13.3865 8.30429L13.3816 8.6811H13.2802L13.2754 8.67627V8.06758L13.2802 8.06274Z"
        fill="black" />
      <path
        d="M11.6087 8.06274H11.8357L11.9082 8.07241L11.9517 8.09173L11.9807 8.11105L12.0145 8.1497L12.0435 8.20767L12.058 8.25598L12.0676 8.33328V8.42023L12.0531 8.50719L12.029 8.56999L12 8.61347L11.9565 8.65212L11.913 8.67144L11.8696 8.6811H11.6087L11.6039 8.67627V8.06758L11.6087 8.06274ZM11.7198 8.17386V8.57482H11.8502L11.8937 8.56033L11.9179 8.53617L11.9372 8.49753L11.9468 8.45405V8.29463L11.9324 8.24149L11.9034 8.19801L11.8696 8.17869L11.8502 8.17386H11.7198Z"
        fill="black" />
      <path
        d="M14.6957 6.79712H14.7633L14.8261 6.81161L14.8792 6.8406L14.9179 6.88408L14.9372 6.92272L14.942 6.97103L14.9275 7.00485L14.9034 7.03383L14.8841 7.0435H14.8261L14.7971 7.029L14.773 7.00485L14.7585 6.9662L14.744 6.88891L14.7246 6.85992L14.7198 6.85509H14.686L14.6618 6.86958L14.6329 6.92755L14.6232 6.97586V7.10147L14.6425 7.18842L14.6667 7.25606L14.7005 7.30437L14.7391 7.33335L14.7633 7.34301L14.8164 7.34784L14.8599 7.33335L14.8986 7.3092L14.9275 7.28504L14.9517 7.28021L14.9565 7.30437L14.9227 7.35751L14.8696 7.41065L14.8116 7.44446L14.7391 7.46379H14.6763L14.6135 7.44929L14.5507 7.41548L14.5024 7.36717L14.4638 7.30437L14.4396 7.24156L14.43 7.18359V7.10147L14.4445 7.029L14.4686 6.9662L14.5073 6.9034L14.5459 6.85992L14.5942 6.8261L14.6377 6.80678L14.6957 6.79712Z"
        fill="black" />
      <path
        d="M6.81159 6.79224H6.82608L6.83091 6.8019L6.83574 6.90818V7.02412L6.82608 7.02895L6.80192 7.0048L6.76328 6.9275L6.72946 6.88885L6.67149 6.85987H6.61835L6.58936 6.88402L6.58453 6.89369V6.9275L6.60869 6.96132L6.68598 7.01929L6.74395 7.05794L6.79226 7.09658L6.83091 7.13523L6.8599 7.18354L6.86956 7.21736V7.29465L6.85023 7.35262L6.81159 7.40576L6.76811 7.43958L6.71497 7.4589L6.657 7.46373L6.5797 7.44924L6.52173 7.42992H6.50724L6.48791 7.4589L6.48308 7.46373H6.45893L6.4541 7.44924L6.44927 7.34296V7.22702L6.46859 7.23185L6.48791 7.256L6.5169 7.31398L6.56038 7.36228L6.58453 7.38161L6.62801 7.40093H6.67632L6.70531 7.38644L6.7198 7.36228V7.32364L6.70531 7.29465L6.657 7.25117L6.57487 7.1932L6.51207 7.14006L6.47825 7.10625L6.44927 7.05794L6.43961 7.02412V6.95649L6.45893 6.90335L6.48791 6.85987L6.52173 6.82605L6.57487 6.8019L6.60386 6.79707H6.65217L6.71497 6.81156L6.75845 6.83088L6.77777 6.82605L6.81159 6.79224Z"
        fill="black" />
      <path
        d="M14.2802 6.79712H14.3237L14.3575 6.81161L14.3865 6.85026L14.3913 6.87441V6.91306L14.3768 6.94688L14.3478 6.98069L14.3043 6.99036L14.2657 6.97586L14.2125 6.93722L14.1787 6.94205L14.1497 6.97586L14.1256 7.03383L14.1159 7.08697V7.37683L14.1304 7.40098L14.1884 7.41548L14.1932 7.4348L14.1884 7.44446H13.8502V7.42031L13.8744 7.40581L13.9034 7.39132L13.9082 7.38166L13.913 7.33335V6.9034L13.9034 6.86958L13.8551 6.84543L13.8454 6.8261L13.8551 6.81644H14.1063L14.1111 6.82127V6.89374L14.1063 6.95171H14.1159L14.1256 6.92755L14.1594 6.87924L14.1836 6.85509L14.2222 6.82127L14.2802 6.79712Z"
        fill="black" />
      <path
        d="M7.19324 6.58447L7.21257 6.5893V6.81636H7.35749L7.36232 6.84051V6.88399L7.35749 6.88882H7.21257L7.2174 7.3236L7.22706 7.35259L7.24155 7.36225H7.2802L7.31885 7.32843L7.343 7.30428L7.35749 7.30911L7.35266 7.34293L7.32368 7.39124L7.2802 7.42988L7.23189 7.44921L7.2029 7.45404H7.16426L7.12078 7.44438L7.08213 7.42022L7.05798 7.39607L7.02899 7.35259L7.02416 7.32843L7.01933 7.20283V6.96612L7.02416 6.88882H6.94687L6.93237 6.87433L6.95653 6.84534L7.0145 6.80186L7.07247 6.74872L7.11595 6.69558L7.14976 6.64727L7.17875 6.59897L7.19324 6.58447Z"
        fill="black" />
      <path
        d="M6.12559 8.06274H6.53139L6.53622 8.06758V8.16419L6.50723 8.17386H6.24636L6.24153 8.30429H6.51206V8.40574L6.50723 8.41057H6.24153V8.57482H6.54105L6.54588 8.6183V8.66661L6.54105 8.6811H6.12559L6.12076 8.65695V8.06758L6.12559 8.06274Z"
        fill="black" />
      <path
        d="M3.79227 8.05322H3.87439L3.93237 8.06772L3.97584 8.09187L4 8.11602L4.01932 8.14018L4.03865 8.18366L4.04831 8.2223V8.24163L4.03865 8.24646L3.93237 8.25129L3.90821 8.19332L3.88889 8.174L3.8599 8.16433H3.80193L3.75362 8.18849L3.74396 8.21264L3.74879 8.2368L3.77295 8.26095L3.81642 8.28028L3.9227 8.31409L4 8.35274L4.03865 8.39622L4.05797 8.44936L4.0628 8.51216L4.05314 8.5653L4.02898 8.61361L4.00966 8.63776L3.96135 8.67158L3.90338 8.6909L3.87439 8.69573H3.7971L3.73913 8.68124L3.69082 8.65226L3.65217 8.60878L3.62802 8.56047L3.61353 8.50733V8.47834L3.61836 8.47351L3.71981 8.46385L3.7343 8.5025L3.75845 8.55081L3.78261 8.57013L3.80676 8.57979H3.87439L3.9227 8.55564L3.9372 8.52665V8.47834L3.91787 8.45419L3.85507 8.43003L3.75845 8.40105L3.70048 8.37206L3.66667 8.33825L3.63768 8.28028L3.63285 8.26095V8.19332L3.64734 8.14501L3.67633 8.10636L3.71497 8.07738L3.76328 8.05805L3.79227 8.05322Z"
        fill="black" />
      <path
        d="M7.85025 6.79712H7.8889L7.92754 6.81161L7.9517 6.84543L7.95653 6.85992V6.92272L7.93721 6.96137L7.91788 6.98069L7.8744 6.99036L7.83576 6.97586L7.78262 6.93722L7.7488 6.94205L7.71981 6.97586L7.69566 7.029L7.686 7.06765L7.68117 7.12562V7.36234L7.69566 7.39615L7.71981 7.40581L7.75846 7.41548L7.76329 7.42997L7.75846 7.44446H7.4203L7.41547 7.42514L7.42996 7.41065L7.47344 7.39132L7.4831 7.34784V6.89374L7.46861 6.86475L7.4203 6.84543L7.41547 6.82127L7.4203 6.81644H7.67634L7.68117 6.94688L7.71498 6.89857L7.7488 6.85992L7.79228 6.82127L7.83092 6.80195L7.85025 6.79712Z"
        fill="black" />
      <path
        d="M9.93719 8.06274H10.3382L10.3478 8.07241V8.16419L10.343 8.16902L10.1836 8.17386H10.0821L10.0531 8.16902V8.30429H10.3237L10.3285 8.32844V8.39608L10.3237 8.41057H10.0531V8.57482H10.3527L10.3575 8.57965V8.67627L10.3527 8.6811H9.93719V8.06274Z"
        fill="black" />
      <path
        d="M12.4638 8.06274H12.8647L12.8696 8.06758V8.16902L12.8357 8.17386H12.5845L12.5797 8.18352L12.5749 8.30429H12.8454L12.8502 8.30912V8.40574L12.8454 8.41057H12.5749L12.5797 8.42506L12.5749 8.57482H12.8744L12.8792 8.57965V8.6811H12.4638L12.4589 8.06758L12.4638 8.06274Z"
        fill="black" />
      <path
        d="M4.45411 8.06274H4.56039L4.57005 8.07241V8.46371L4.57971 8.52168L4.59904 8.5555L4.63285 8.57482L4.65701 8.57965H4.69566L4.7343 8.56516L4.75846 8.541L4.76812 8.51202L4.77295 8.24149V8.06758L4.77778 8.06274H4.88889L4.89372 8.06758V8.39608L4.88889 8.52651L4.87923 8.57482L4.85991 8.61347L4.85025 8.62796H4.84058V8.63762H4.83092V8.64729L4.78261 8.67627L4.7343 8.69076L4.69566 8.69559H4.64252L4.58455 8.68593L4.53624 8.66178L4.49759 8.62796L4.4686 8.57965L4.45411 8.51202L4.44928 8.42506V8.06758L4.45411 8.06274Z"
        fill="black" />
      <path
        d="M15.6667 8.06274H15.773L15.7875 8.07724L15.8406 8.22216L15.9227 8.45405L15.9614 8.56033L15.9952 8.66178L15.9904 8.68593H15.8889L15.8744 8.6811L15.8309 8.5555V8.54584H15.6184L15.5701 8.6811H15.4445L15.459 8.63762L15.5507 8.37192L15.6135 8.19318L15.657 8.07241L15.6667 8.06274ZM15.715 8.22216L15.6715 8.36226L15.6474 8.43472H15.7875L15.7826 8.40091L15.7247 8.227L15.715 8.22216Z"
        fill="black" />
      <path
        d="M5.30917 8.06274H5.54589L5.62318 8.07241L5.67149 8.09656L5.70531 8.13521L5.72463 8.17869L5.73429 8.227V8.28497L5.7198 8.34294L5.68599 8.39608L5.65217 8.42506L5.60386 8.44439L5.57004 8.44922L5.42512 8.45405V8.67627L5.42028 8.6811H5.30917V8.06274ZM5.42512 8.17386V8.34294H5.5314L5.57971 8.32844L5.60386 8.30429L5.61352 8.2753V8.23666L5.59903 8.20284L5.57487 8.17869L5.55555 8.17386H5.42512Z"
        fill="black" />
      <path
        d="M14.3382 8.05322H14.401L14.4589 8.06772L14.5121 8.0967L14.5507 8.13535L14.5894 8.21264L14.5942 8.23197L14.5845 8.24163L14.4928 8.26578H14.4783L14.4493 8.20781L14.4155 8.17883L14.3913 8.16916H14.3285L14.2802 8.19815L14.2512 8.24646L14.2367 8.30443V8.4397L14.2512 8.49767L14.2705 8.53631L14.3092 8.57013L14.3382 8.57979H14.3816L14.43 8.55564L14.4589 8.51699L14.4686 8.49284L14.4783 8.45419L14.5217 8.46385L14.5894 8.48801L14.5942 8.5025L14.5701 8.5653L14.5411 8.61361L14.5024 8.65226L14.4493 8.68124L14.3865 8.69573H14.3382L14.2899 8.68607L14.2319 8.65709L14.1836 8.61361L14.1498 8.5653L14.1256 8.5025L14.1111 8.41554V8.33342L14.1256 8.25129L14.1449 8.19332L14.1739 8.14501L14.2029 8.11119L14.256 8.07738L14.3092 8.05805L14.3382 8.05322Z"
        fill="black" />
      <path
        d="M15.0097 6.81641H15.2754L15.2802 6.84056V7.28017L15.285 7.37679L15.2947 7.39612L15.343 7.41061L15.3575 7.43476L15.3526 7.44443H15.0145L15.0048 7.4251L15.0241 7.41061L15.0725 7.39612L15.0821 7.3623V6.90336L15.0725 6.86955L15.058 6.85988L15.0145 6.84539L15.0048 6.83573L15.0097 6.81641Z"
        fill="black" />
      <path
        d="M8 6.81641H8.2657L8.27053 6.8309V7.31882L8.27536 7.37679L8.29469 7.40095L8.33816 7.41544L8.343 7.42027V7.44443H8L8.00483 7.42027L8.02899 7.40578L8.05314 7.39612L8.06763 7.38645L8.07246 7.35747V6.93718L8.06763 6.88404L8.05797 6.86472L8.00966 6.85022L8 6.84056V6.81641Z"
        fill="black" />
      <path
        d="M9.13044 8.06274H9.56039L9.56522 8.06758V8.16419L9.56039 8.16902L9.4058 8.17386V8.67627L9.40097 8.6811H9.28986V8.16902H9.12561V8.06758L9.13044 8.06274Z"
        fill="black" />
      <path d="M14.9855 8.06274H15.0918L15.1015 8.07241V8.67144L15.0966 8.6811H14.9807V8.06758L14.9855 8.06274Z"
        fill="black" />
      <path d="M7.79228 8.06274H7.89856L7.90339 8.06758V8.6811H7.79228L7.78745 8.6183V8.06758L7.79228 8.06274Z"
        fill="black" />
      <path
        d="M8.14975 6.51685H8.19323L8.23188 6.53134L8.26569 6.56999L8.28019 6.61346L8.27536 6.65694L8.25603 6.68593L8.21739 6.71974L8.1884 6.72941H8.15458L8.11594 6.71491L8.07729 6.67144L8.06763 6.64728V6.59897L8.09178 6.55066L8.13043 6.52168L8.14975 6.51685Z"
        fill="black" />
      <path
        d="M15.1594 6.51685H15.2029L15.2464 6.53617L15.2754 6.56999L15.285 6.58931L15.2899 6.63762L15.2754 6.67627L15.256 6.70042L15.2174 6.72458L15.1691 6.72941L15.1256 6.71491L15.0918 6.6811L15.0773 6.64728V6.59414L15.1015 6.55066L15.1256 6.53134L15.1594 6.51685Z"
        fill="black" />
    </g>
    <g id="nav-caret--down">
      <path
        d="M7.99053 10.5448L14.8661 3.68774L15.75 4.57161L7.99053 12.3121L0.25 4.57161L1.13386 3.68774L7.99053 10.5448Z"
        fill="currentColor" />
    </g>
    <g id="nav-caret--up">
      <path
        d="M8.00947 5.45449L1.13386 12.3115L0.25 11.4277L8.00947 3.68714L15.75 11.4277L14.8661 12.3115L8.00947 5.45449Z"
        fill="currentColor" />
    </g>
    <g id="icon-filter">
      <path
        d="M2.41254 14.6666C2.28645 14.6666 2.18096 14.624 2.09605 14.5388C2.01115 14.4536 1.96869 14.3481 1.96869 14.2221V8.34181H0.635362C0.509436 8.34181 0.403881 8.29915 0.318696 8.21386C0.23351 8.12855 0.190918 8.02285 0.190918 7.89676C0.190918 7.77066 0.23351 7.66515 0.318696 7.58025C0.403881 7.49536 0.509436 7.45292 0.635362 7.45292H4.19091C4.31684 7.45292 4.4224 7.49556 4.50758 7.58085C4.59277 7.66616 4.63536 7.77186 4.63536 7.89796C4.63536 8.02405 4.59277 8.12955 4.50758 8.21445C4.4224 8.29936 4.31684 8.34181 4.19091 8.34181H2.85758V14.2221C2.85758 14.3481 2.81494 14.4536 2.72965 14.5388C2.64435 14.624 2.53865 14.6666 2.41254 14.6666ZM2.41254 4.99137C2.28645 4.99137 2.18096 4.94877 2.09605 4.86358C2.01115 4.7784 1.96869 4.67284 1.96869 4.54691V1.7777C1.96869 1.65177 2.01135 1.54621 2.09665 1.46103C2.18195 1.37584 2.28765 1.33325 2.41374 1.33325C2.53985 1.33325 2.64535 1.37584 2.73025 1.46103C2.81514 1.54621 2.85758 1.65177 2.85758 1.7777V4.54691C2.85758 4.67284 2.81494 4.7784 2.72965 4.86358C2.64435 4.94877 2.53865 4.99137 2.41254 4.99137ZM6.10545 4.99137C5.97953 4.99137 5.87397 4.94872 5.78878 4.86343C5.7036 4.77812 5.661 4.67243 5.661 4.54632C5.661 4.42023 5.7036 4.31474 5.78878 4.22983C5.87397 4.14492 5.97953 4.10247 6.10545 4.10247H7.43878V1.7777C7.43878 1.65177 7.48144 1.54621 7.56674 1.46103C7.65203 1.37584 7.75772 1.33325 7.88383 1.33325C8.00994 1.33325 8.11543 1.37584 8.20032 1.46103C8.28523 1.54621 8.32767 1.65177 8.32767 1.7777V4.10247H9.66101C9.78697 4.10247 9.89248 4.14513 9.97763 4.23043C10.0629 4.31573 10.1055 4.42143 10.1055 4.54752C10.1055 4.67363 10.0629 4.77913 9.97763 4.86403C9.89248 4.94892 9.78697 4.99137 9.66101 4.99137H6.10545ZM7.88263 14.6666C7.75652 14.6666 7.65103 14.624 7.56614 14.5388C7.48123 14.4536 7.43878 14.3481 7.43878 14.2221V7.89737C7.43878 7.77144 7.48144 7.66588 7.56674 7.5807C7.65203 7.49551 7.75772 7.45292 7.88383 7.45292C8.00994 7.45292 8.11543 7.49551 8.20032 7.5807C8.28523 7.66588 8.32767 7.77144 8.32767 7.89737V14.2221C8.32767 14.3481 8.28502 14.4536 8.19971 14.5388C8.11443 14.624 8.00874 14.6666 7.88263 14.6666ZM13.3527 14.6666C13.2266 14.6666 13.1211 14.624 13.0362 14.5388C12.9513 14.4536 12.9088 14.3481 12.9088 14.2221V11.8973H11.5755C11.4496 11.8973 11.344 11.8547 11.2589 11.7694C11.1737 11.6841 11.1311 11.5784 11.1311 11.4524C11.1311 11.3262 11.1737 11.2207 11.2589 11.1358C11.344 11.0509 11.4496 11.0085 11.5755 11.0085H15.1311C15.257 11.0085 15.3626 11.0511 15.4478 11.1365C15.5329 11.2217 15.5755 11.3274 15.5755 11.4535C15.5755 11.5796 15.5329 11.6851 15.4478 11.7701C15.3626 11.8549 15.257 11.8973 15.1311 11.8973H13.7977V14.2221C13.7977 14.3481 13.7551 14.4536 13.6698 14.5388C13.5845 14.624 13.4788 14.6666 13.3527 14.6666ZM13.3527 8.54691C13.2266 8.54691 13.1211 8.50433 13.0362 8.41914C12.9513 8.33395 12.9088 8.2284 12.9088 8.10248V1.7777C12.9088 1.65177 12.9515 1.54621 13.0368 1.46103C13.1221 1.37584 13.2279 1.33325 13.3539 1.33325C13.48 1.33325 13.5855 1.37584 13.6704 1.46103C13.7553 1.54621 13.7977 1.65177 13.7977 1.7777V8.10248C13.7977 8.2284 13.7551 8.33395 13.6698 8.41914C13.5845 8.50433 13.4788 8.54691 13.3527 8.54691Z" />
    </g>
  </defs>
</svg>
